GeoramaExtended-Light.ufo
<glyph name="exclam" format="2">
  <advance width="282.11999999999995"/>
  <unicode hex="0021"/>
  <outline>
    <contour>
      <point x="111.35999999999999" y="263.0" type="line"/>
      <point x="171.61999999999998" y="263.0" type="line"/>
      <point x="175.38" y="740.0" type="line"/>
      <point x="107.77999999999999" y="740.0" type="line"/>
    </contour>
    <contour>
      <point x="99.77999999999999" y="34.44" type="curve" smooth="yes"/>
      <point x="99.77999999999999" y="6.460000000000001"/>
      <point x="109.12" y="-2.14"/>
      <point x="141.05999999999997" y="-2.14" type="curve" smooth="yes"/>
      <point x="173.79999999999998" y="-2.14"/>
      <point x="182.33999999999997" y="6.460000000000001"/>
      <point x="182.33999999999997" y="34.44" type="curve" smooth="yes"/>
      <point x="182.33999999999997" y="62.620000000000005"/>
      <point x="173.79999999999998" y="71.22"/>
      <point x="141.05999999999997" y="71.22" type="curve" smooth="yes"/>
      <point x="108.32" y="71.22"/>
      <point x="99.77999999999999" y="62.620000000000005"/>
    </contour>
  </outline>
</glyph>
<glyph name="numbersign" format="2">
  <advance width="811.24"/>
  <unicode hex="0023"/>
  <outline>
    <contour>
      <point x="124.77999999999999" y="463.78" type="line"/>
      <point x="259.64" y="463.78" type="line"/>
      <point x="206.22" y="227.48" type="line"/>
      <point x="79.25999999999999" y="227.48" type="line"/>
      <point x="79.25999999999999" y="180.38000000000002" type="line"/>
      <point x="196.57999999999998" y="180.38000000000002" type="line"/>
      <point x="157.22" y="0.0" type="line"/>
      <point x="224.12" y="0.0" type="line"/>
      <point x="263.47999999999996" y="180.38000000000002" type="line"/>
      <point x="477.64" y="180.38000000000002" type="line"/>
      <point x="438.28000000000003" y="0.0" type="line"/>
      <point x="505.18" y="0.0" type="line"/>
      <point x="544.54" y="180.38000000000002" type="line"/>
      <point x="686.5999999999999" y="180.38000000000002" type="line"/>
      <point x="686.5999999999999" y="227.48" type="line"/>
      <point x="554.18" y="227.48" type="line"/>
      <point x="607.6" y="463.78" type="line"/>
      <point x="732.1199999999999" y="463.78" type="line"/>
      <point x="732.1199999999999" y="510.71999999999997" type="line"/>
      <point x="616.78" y="510.71999999999997" type="line"/>
      <point x="659.4200000000001" y="700.0" type="line"/>
      <point x="592.52" y="700.0" type="line"/>
      <point x="549.88" y="510.71999999999997" type="line"/>
      <point x="335.71999999999997" y="510.71999999999997" type="line"/>
      <point x="378.36" y="700.0" type="line"/>
      <point x="311.46" y="700.0" type="line"/>
      <point x="268.82" y="510.71999999999997" type="line"/>
      <point x="124.77999999999999" y="510.71999999999997" type="line"/>
    </contour>
    <contour>
      <point x="326.54" y="463.78" type="line"/>
      <point x="540.7" y="463.78" type="line"/>
      <point x="487.28" y="227.48" type="line"/>
      <point x="273.12" y="227.48" type="line"/>
    </contour>
  </outline>
</glyph>
<glyph name="dollar" format="2">
  <advance width="811.24"/>
  <unicode hex="0024"/>
  <outline>
    <contour>
      <point x="401.15999999999997" y="-10.0" type="curve" smooth="yes"/>
      <point x="619.54" y="-11.68"/>
      <point x="732.16" y="46.3"/>
      <point x="732.16" y="175.26000000000002" type="curve" smooth="yes"/>
      <point x="732.16" y="289.9"/>
      <point x="642.16" y="339.67999999999995"/>
      <point x="452.63999999999993" y="376.52" type="curve" smooth="yes"/>
      <point x="274.24" y="411.52"/>
      <point x="188.18" y="447.71999999999997"/>
      <point x="188.18" y="531.4799999999999" type="curve" smooth="yes"/>
      <point x="188.18" y="610.68"/>
      <point x="273.91999999999996" y="653.8000000000001"/>
      <point x="427.48" y="653.8000000000001" type="curve" smooth="yes"/>
      <point x="502.97999999999996" y="653.8000000000001"/>
      <point x="606.9599999999999" y="638.04"/>
      <point x="680.4" y="616.2" type="curve"/>
      <point x="694.16" y="671.58" type="line"/>
      <point x="618.5199999999999" y="694.4"/>
      <point x="511.82" y="710.0"/>
      <point x="425.09999999999997" y="710.0" type="curve" smooth="yes"/>
      <point x="229.33999999999997" y="708.88"/>
      <point x="118.53999999999999" y="647.2400000000001"/>
      <point x="118.53999999999999" y="526.72" type="curve" smooth="yes"/>
      <point x="118.53999999999999" y="411.8"/>
      <point x="208.85999999999999" y="360.06000000000006"/>
      <point x="390.65999999999997" y="323.7" type="curve" smooth="yes"/>
      <point x="573.7199999999999" y="287.24000000000007"/>
      <point x="662.34" y="252.68"/>
      <point x="662.34" y="169.92" type="curve" smooth="yes"/>
      <point x="662.34" y="84.76"/>
      <point x="583.96" y="44.959999999999994"/>
      <point x="413.63999999999993" y="44.959999999999994" type="curve" smooth="yes"/>
      <point x="322.06" y="44.959999999999994"/>
      <point x="187.94" y="66.96"/>
      <point x="93.38" y="97.53999999999999" type="curve"/>
      <point x="79.36" y="42.13999999999999" type="line"/>
      <point x="171.17999999999998" y="12.079999999999998"/>
      <point x="305.03999999999996" y="-9.440000000000001"/>
    </contour>
    <contour>
      <point x="395.54" y="-105.0" type="line"/>
      <point x="449.47999999999996" y="-105.0" type="line"/>
      <point x="449.47999999999996" y="0.7000000000000014" type="line"/>
      <point x="395.54" y="-2.0599999999999996" type="line"/>
    </contour>
    <contour>
      <point x="395.54" y="700.64" type="line"/>
      <point x="449.47999999999996" y="702.3599999999999" type="line"/>
      <point x="449.47999999999996" y="804.88" type="line"/>
      <point x="395.54" y="804.88" type="line"/>
    </contour>
  </outline>
</glyph>
<glyph name="ampersand" format="2">
  <advance width="833.4599999999999"/>
  <unicode hex="0026"/>
  <outline>
    <contour>
      <point x="755.44" y="-8.860000000000001" type="line"/>
      <point x="831.68" y="3.879999999999999" type="line"/>
      <point x="290.08" y="411.06000000000006" type="line" smooth="yes"/>
      <point x="235.14" y="454.61999999999995"/>
      <point x="208.16" y="496.21999999999997"/>
      <point x="208.16" y="542.16" type="curve" smooth="yes"/>
      <point x="208.16" y="615.5399999999998"/>
      <point x="269.58" y="658.4"/>
      <point x="393.43999999999994" y="658.4" type="curve" smooth="yes"/>
      <point x="504.31999999999994" y="658.4"/>
      <point x="567.1" y="617.72"/>
      <point x="567.1" y="543.1800000000001" type="curve" smooth="yes"/>
      <point x="567.1" y="485.42"/>
      <point x="537.22" y="447.7"/>
      <point x="467.88" y="427.46000000000004" type="curve"/>
      <point x="500.64000000000004" y="394.08" type="line"/>
      <point x="592.28" y="424.28000000000003"/>
      <point x="631.3000000000001" y="476.24"/>
      <point x="631.3000000000001" y="551.5799999999999" type="curve" smooth="yes"/>
      <point x="631.3000000000001" y="654.74"/>
      <point x="548.54" y="710.0"/>
      <point x="391.64000000000004" y="710.0" type="curve" smooth="yes"/>
      <point x="217.79999999999998" y="710.0"/>
      <point x="138.95999999999998" y="644.5200000000001"/>
      <point x="138.95999999999998" y="541.76" type="curve" smooth="yes"/>
      <point x="138.95999999999998" y="482.94"/>
      <point x="165.88" y="431.2"/>
      <point x="223.51999999999995" y="383.36" type="curve" smooth="yes"/>
    </contour>
    <contour>
      <point x="358.26" y="-10.0" type="curve" smooth="yes"/>
      <point x="470.82" y="-10.0"/>
      <point x="569.26" y="24.380000000000003"/>
      <point x="636.84" y="86.03999999999999" type="curve"/>
      <point x="598.9000000000001" y="123.42" type="line"/>
      <point x="545.98" y="71.69999999999999"/>
      <point x="467.21999999999997" y="41.0"/>
      <point x="364.66" y="41.0" type="curve" smooth="yes"/>
      <point x="210.7" y="41.0"/>
      <point x="117.3" y="101.91999999999999"/>
      <point x="117.3" y="201.48" type="curve" smooth="yes"/>
      <point x="117.3" y="279.66"/>
      <point x="165.33999999999997" y="331.08"/>
      <point x="259.68" y="366.68" type="curve"/>
      <point x="221.82" y="400.0" type="line"/>
      <point x="107.62" y="359.9"/>
      <point x="51.49999999999999" y="293.46000000000004"/>
      <point x="51.49999999999999" y="195.28" type="curve" smooth="yes"/>
      <point x="51.49999999999999" y="68.32"/>
      <point x="162.71999999999997" y="-10.0"/>
    </contour>
    <contour>
      <point x="673.92" y="108.97999999999999" type="line"/>
      <point x="725.5600000000001" y="165.56"/>
      <point x="754.96" y="236.22"/>
      <point x="754.96" y="317.43999999999994" type="curve" smooth="yes"/>
      <point x="754.96" y="339.6"/>
      <point x="752.1" y="356.23999999999995"/>
      <point x="746.8" y="375.71999999999997" type="curve"/>
      <point x="692.0" y="371.24" type="line"/>
      <point x="697.3" y="351.96000000000004"/>
      <point x="699.14" y="335.94"/>
      <point x="698.54" y="318.84" type="curve" smooth="yes"/>
      <point x="696.94" y="251.61999999999998"/>
      <point x="676.48" y="194.04000000000002"/>
      <point x="631.6" y="146.92" type="curve"/>
    </contour>
  </outline>
</glyph>
<glyph name="quotesingle" format="2">
  <advance width="187.38"/>
  <unicode hex="0027"/>
  <outline>
    <contour>
      <point x="68.2" y="427.0" type="line"/>
      <point x="119.0" y="427.0" type="line"/>
      <point x="124.94" y="700.0" type="line"/>
      <point x="62.44" y="700.0" type="line"/>
    </contour>
  </outline>
</glyph>
<glyph name="parenleft" format="2">
  <advance width="386.34000000000003"/>
  <unicode hex="0028"/>
  <outline>
    <contour>
      <point x="107.19999999999999" y="265.0" type="curve" smooth="yes"/>
      <point x="107.19999999999999" y="18.039999999999996"/>
      <point x="184.66" y="-187.0"/>
      <point x="360.3" y="-220.24" type="curve"/>
      <point x="360.3" y="-170.04" type="line"/>
      <point x="227.1" y="-134.33999999999997"/>
      <point x="165.96" y="36.58"/>
      <point x="165.96" y="265.0" type="curve" smooth="yes"/>
      <point x="165.96" y="493.4200000000001"/>
      <point x="227.1" y="664.34"/>
      <point x="360.3" y="700.04" type="curve"/>
      <point x="360.3" y="750.2399999999999" type="line"/>
      <point x="184.66" y="717.0"/>
      <point x="107.19999999999999" y="511.9600000000001"/>
    </contour>
  </outline>
</glyph>
<glyph name="parenright" format="2">
  <advance width="386.34000000000003"/>
  <unicode hex="0029"/>
  <outline>
    <contour>
      <point x="26.04" y="-170.04" type="curve"/>
      <point x="26.04" y="-220.24" type="line"/>
      <point x="201.67999999999998" y="-187.0"/>
      <point x="279.14" y="18.039999999999996"/>
      <point x="279.14" y="265.0" type="curve" smooth="yes"/>
      <point x="279.14" y="511.9600000000001"/>
      <point x="201.67999999999998" y="717.0"/>
      <point x="26.04" y="750.2399999999999" type="curve"/>
      <point x="26.04" y="700.04" type="line"/>
      <point x="159.23999999999998" y="664.34"/>
      <point x="220.38000000000002" y="493.4200000000001"/>
      <point x="220.38000000000002" y="265.0" type="curve" smooth="yes"/>
      <point x="220.38000000000002" y="36.58"/>
      <point x="159.23999999999998" y="-134.33999999999997"/>
    </contour>
  </outline>
</glyph>
<glyph name="asterisk" format="2">
  <advance width="395.03999999999996"/>
  <unicode hex="002A"/>
  <outline>
    <contour>
      <point x="97.22" y="334.84000000000003" type="line"/>
      <point x="198.07999999999998" y="471.06" type="line"/>
      <point x="296.69999999999993" y="334.28" type="line"/>
      <point x="324.84000000000003" y="353.71999999999997" type="line"/>
      <point x="231.08" y="496.86" type="line"/>
      <point x="385.44000000000005" y="553.2" type="line"/>
      <point x="374.41999999999996" y="585.18" type="line"/>
      <point x="219.32" y="536.8599999999999" type="line"/>
      <point x="216.56" y="706.3600000000001" type="line"/>
      <point x="179.60000000000002" y="706.3600000000001" type="line"/>
      <point x="176.84" y="536.8599999999999" type="line"/>
      <point x="20.62" y="585.18" type="line"/>
      <point x="9.600000000000001" y="553.2" type="line"/>
      <point x="165.08" y="496.86" type="line"/>
      <point x="68.51999999999998" y="354.84000000000003" type="line"/>
    </contour>
  </outline>
</glyph>
<glyph name="plus" format="2">
  <advance width="537.08"/>
  <unicode hex="002B"/>
  <outline>
    <contour>
      <point x="238.52" y="79.56" type="line"/>
      <point x="298.42" y="79.56" type="line"/>
      <point x="298.42" y="268.5" type="line"/>
      <point x="481.52" y="268.5" type="line"/>
      <point x="481.52" y="322.79999999999995" type="line"/>
      <point x="298.42" y="322.79999999999995" type="line"/>
      <point x="298.42" y="511.6" type="line"/>
      <point x="238.52" y="511.6" type="line"/>
      <point x="238.52" y="322.79999999999995" type="line"/>
      <point x="55.56" y="322.79999999999995" type="line"/>
      <point x="55.56" y="268.5" type="line"/>
      <point x="238.52" y="268.5" type="line"/>
    </contour>
  </outline>
</glyph>
<glyph name="comma" format="2">
  <advance width="211.95999999999998"/>
  <unicode hex="002C"/>
  <outline>
    <contour>
      <point x="76.48" y="46.040000000000006" type="line"/>
      <point x="84.39999999999999" y="24.500000000000004"/>
      <point x="88.86000000000001" y="1.3999999999999995"/>
      <point x="88.86000000000001" y="-19.419999999999998" type="curve" smooth="yes"/>
      <point x="88.86000000000001" y="-80.10000000000001"/>
      <point x="62.559999999999995" y="-146.8"/>
      <point x="8.779999999999996" y="-180.84" type="curve"/>
      <point x="56.239999999999995" y="-199.57999999999998" type="line"/>
      <point x="123.0" y="-161.32"/>
      <point x="154.17999999999998" y="-85.1"/>
      <point x="154.17999999999998" y="-18.98" type="curve" smooth="yes"/>
      <point x="154.17999999999998" y="7.32"/>
      <point x="149.18" y="32.04"/>
      <point x="139.92" y="52.96000000000001" type="curve"/>
    </contour>
  </outline>
</glyph>
<glyph name="hyphen" format="2">
  <advance width="379.18"/>
  <unicode hex="002D"/>
  <outline>
    <contour>
      <point x="47.62" y="250.8" type="line"/>
      <point x="331.56" y="250.8" type="line"/>
      <point x="331.56" y="306.36" type="line"/>
      <point x="47.62" y="306.36" type="line"/>
    </contour>
  </outline>
</glyph>
<glyph name="period" format="2">
  <advance width="214.2"/>
  <unicode hex="002E"/>
  <outline>
    <contour>
      <point x="66.1" y="34.620000000000005" type="curve" smooth="yes"/>
      <point x="66.1" y="6.640000000000001"/>
      <point x="75.44000000000001" y="-1.96"/>
      <point x="107.38" y="-1.96" type="curve" smooth="yes"/>
      <point x="140.12" y="-1.96"/>
      <point x="148.66" y="6.640000000000001"/>
      <point x="148.66" y="34.620000000000005" type="curve" smooth="yes"/>
      <point x="148.66" y="62.800000000000004"/>
      <point x="140.12" y="71.4"/>
      <point x="107.38" y="71.4" type="curve" smooth="yes"/>
      <point x="74.64" y="71.4"/>
      <point x="66.1" y="62.800000000000004"/>
    </contour>
  </outline>
</glyph>
<glyph name="slash" format="2">
  <advance width="406.82"/>
  <unicode hex="002F"/>
  <outline>
    <contour>
      <point x="6.879999999999999" y="-210.0" type="line"/>
      <point x="64.19999999999999" y="-210.0" type="line"/>
      <point x="399.94" y="740.0" type="line"/>
      <point x="342.56" y="740.0" type="line"/>
    </contour>
  </outline>
</glyph>
<glyph name="zero" format="2">
  <advance width="811.24"/>
  <unicode hex="0030"/>
  <outline>
    <contour>
      <point x="39.919999999999995" y="350.0" type="curve" smooth="yes"/>
      <point x="39.919999999999995" y="70.14"/>
      <point x="206.11999999999998" y="-10.0"/>
      <point x="405.62" y="-10.0" type="curve" smooth="yes"/>
      <point x="605.2199999999999" y="-10.0"/>
      <point x="771.3199999999999" y="70.38"/>
      <point x="771.3199999999999" y="350.0" type="curve" smooth="yes"/>
      <point x="771.3199999999999" y="629.92"/>
      <point x="606.1199999999999" y="710.0"/>
      <point x="405.62" y="710.0" type="curve" smooth="yes"/>
      <point x="205.94" y="710.0"/>
      <point x="39.919999999999995" y="630.4"/>
    </contour>
    <contour>
      <point x="110.78" y="349.21999999999997" type="curve" smooth="yes"/>
      <point x="110.78" y="590.5799999999999"/>
      <point x="246.23999999999998" y="656.6"/>
      <point x="405.62" y="656.6" type="curve" smooth="yes"/>
      <point x="565.28" y="656.6"/>
      <point x="700.7399999999999" y="590.64"/>
      <point x="700.7399999999999" y="349.21999999999997" type="curve" smooth="yes"/>
      <point x="700.7399999999999" y="110.02"/>
      <point x="565.4599999999999" y="43.4"/>
      <point x="405.62" y="43.4" type="curve" smooth="yes"/>
      <point x="246.05999999999997" y="43.4"/>
      <point x="110.78" y="109.96"/>
    </contour>
  </outline>
</glyph>
<glyph name="one" format="2">
  <advance width="811.24"/>
  <unicode hex="0031"/>
  <outline>
    <contour>
      <point x="82.47999999999999" y="0.0" type="line"/>
      <point x="775.4200000000001" y="0.0" type="line"/>
      <point x="775.4200000000001" y="55.0" type="line"/>
      <point x="494.0199999999999" y="55.0" type="line"/>
      <point x="494.0199999999999" y="705.6" type="line"/>
      <point x="457.79999999999995" y="705.6" type="line"/>
      <point x="71.6" y="534.0799999999999" type="line"/>
      <point x="90.52" y="480.84" type="line"/>
      <point x="424.34000000000003" y="629.82" type="line"/>
      <point x="424.34000000000003" y="55.0" type="line"/>
      <point x="82.47999999999999" y="55.0" type="line"/>
    </contour>
  </outline>
</glyph>
<glyph name="two" format="2">
  <advance width="811.5999999999999"/>
  <unicode hex="0032"/>
  <outline>
    <contour>
      <point x="76.0" y="44.800000000000004" type="curve"/>
      <point x="80.10000000000001" y="0.0" type="line"/>
      <point x="748.9" y="0.0" type="line"/>
      <point x="748.9" y="55.2" type="line"/>
      <point x="196.39999999999995" y="55.2" type="line"/>
      <point x="567.7999999999998" y="280.5"/>
      <point x="648.0" y="370.59999999999997"/>
      <point x="648.0" y="498.0" type="curve" smooth="yes"/>
      <point x="648.0" y="632.8"/>
      <point x="554.8" y="710.0"/>
      <point x="377.9" y="710.0" type="curve" smooth="yes"/>
      <point x="282.3" y="710.0"/>
      <point x="179.09999999999997" y="686.1"/>
      <point x="104.59999999999998" y="644.7" type="curve"/>
      <point x="126.49999999999997" y="591.9" type="line"/>
      <point x="198.89999999999998" y="629.1999999999999"/>
      <point x="285.6" y="649.3"/>
      <point x="369.29999999999995" y="649.3" type="curve" smooth="yes"/>
      <point x="507.9" y="649.3"/>
      <point x="576.6999999999998" y="593.5000000000001"/>
      <point x="576.6999999999998" y="490.8" type="curve" smooth="yes"/>
      <point x="576.6999999999998" y="377.90000000000003"/>
      <point x="493.70000000000005" y="294.09999999999997"/>
    </contour>
  </outline>
</glyph>
<glyph name="three" format="2">
  <advance width="811.5999999999999"/>
  <unicode hex="0033"/>
  <outline>
    <contour>
      <point x="36.99999999999999" y="65.0" type="line"/>
      <point x="133.6" y="14.0"/>
      <point x="228.29999999999995" y="-9.5"/>
      <point x="364.99999999999994" y="-9.5" type="curve" smooth="yes"/>
      <point x="602.3999999999999" y="-9.5"/>
      <point x="739.3000000000001" y="70.39999999999999"/>
      <point x="739.3000000000001" y="206.89999999999998" type="curve" smooth="yes"/>
      <point x="739.3000000000001" y="298.09999999999997"/>
      <point x="667.0999999999999" y="359.3"/>
      <point x="534.6" y="369.7" type="curve"/>
      <point x="633.1999999999999" y="386.90000000000003"/>
      <point x="689.1" y="444.0"/>
      <point x="689.1" y="528.2" type="curve" smooth="yes"/>
      <point x="689.1" y="642.5999999999999"/>
      <point x="589.9" y="710.0"/>
      <point x="379.69999999999993" y="710.0" type="curve" smooth="yes"/>
      <point x="272.09999999999997" y="710.0"/>
      <point x="167.49999999999997" y="692.8"/>
      <point x="88.0" y="665.5" type="curve"/>
      <point x="102.5" y="613.2" type="line"/>
      <point x="184.7" y="638.5999999999999"/>
      <point x="277.99999999999994" y="653.0"/>
      <point x="369.8999999999999" y="653.0" type="curve" smooth="yes"/>
      <point x="539.5" y="653.0"/>
      <point x="620.7" y="603.4"/>
      <point x="620.7" y="518.2" type="curve" smooth="yes"/>
      <point x="620.7" y="436.9"/>
      <point x="546.8" y="390.2"/>
      <point x="403.8999999999999" y="390.2" type="curve" smooth="yes"/>
      <point x="222.0" y="390.2" type="line"/>
      <point x="222.0" y="339.79999999999995" type="line"/>
      <point x="393.5" y="339.79999999999995" type="line" smooth="yes"/>
      <point x="576.1999999999999" y="339.79999999999995"/>
      <point x="669.0999999999999" y="301.2"/>
      <point x="669.0999999999999" y="210.1" type="curve" smooth="yes"/>
      <point x="669.0999999999999" y="106.6"/>
      <point x="558.8" y="46.30000000000001"/>
      <point x="361.6000000000001" y="46.30000000000001" type="curve" smooth="yes"/>
      <point x="238.29999999999995" y="46.30000000000001"/>
      <point x="145.89999999999998" y="68.09999999999998"/>
      <point x="56.1" y="113.6" type="curve"/>
    </contour>
  </outline>
</glyph>
<glyph name="four" format="2">
  <advance width="811.5999999999999"/>
  <unicode hex="0034"/>
  <outline>
    <contour>
      <point x="34.599999999999994" y="181.4" type="line"/>
      <point x="543.3" y="181.4" type="line"/>
      <point x="543.3" y="0.0" type="line"/>
      <point x="613.0999999999999" y="0.0" type="line"/>
      <point x="613.0999999999999" y="181.4" type="line"/>
      <point x="780.6999999999999" y="181.4" type="line"/>
      <point x="780.6999999999999" y="233.0" type="line"/>
      <point x="613.0999999999999" y="233.0" type="line"/>
      <point x="613.0999999999999" y="699.7" type="line"/>
      <point x="562.4" y="706.4" type="line"/>
      <point x="30.8" y="229.79999999999998" type="line"/>
    </contour>
    <contour>
      <point x="109.8" y="233.0" type="line"/>
      <point x="543.9" y="618.4000000000001" type="line"/>
      <point x="543.9" y="233.0" type="line"/>
    </contour>
  </outline>
</glyph>
<glyph name="five" format="2">
  <advance width="811.48"/>
  <unicode hex="0035"/>
  <outline>
    <contour>
      <point x="55.800000000000004" y="64.48" type="line"/>
      <point x="142.4" y="16.8"/>
      <point x="227.78" y="-9.48"/>
      <point x="377.31999999999994" y="-9.48" type="curve" smooth="yes"/>
      <point x="619.4200000000001" y="-9.48"/>
      <point x="741.66" y="69.52"/>
      <point x="741.66" y="217.8" type="curve" smooth="yes"/>
      <point x="741.66" y="355.41999999999996"/>
      <point x="658.48" y="411.18"/>
      <point x="479.14000000000004" y="411.18" type="curve" smooth="yes"/>
      <point x="167.84" y="411.17999999999995" type="line"/>
      <point x="202.34" y="643.2" type="line"/>
      <point x="690.4799999999999" y="643.2" type="line"/>
      <point x="690.4799999999999" y="700.0" type="line"/>
      <point x="151.3" y="700.0" type="line"/>
      <point x="102.7" y="370.38" type="line"/>
      <point x="112.8" y="359.78000000000003" type="line"/>
      <point x="450.65999999999997" y="359.78000000000003" type="line" smooth="yes"/>
      <point x="615.06" y="359.78000000000003"/>
      <point x="672.26" y="315.53999999999996"/>
      <point x="672.26" y="215.7" type="curve" smooth="yes"/>
      <point x="672.26" y="106.17999999999999"/>
      <point x="585.5999999999999" y="46.42"/>
      <point x="374.32" y="46.42" type="curve" smooth="yes"/>
      <point x="230.83999999999997" y="46.42"/>
      <point x="151.95999999999998" y="73.46000000000001"/>
      <point x="76.08" y="113.80000000000001" type="curve"/>
    </contour>
  </outline>
</glyph>
<glyph name="six" format="2">
  <advance width="811.48"/>
  <unicode hex="0036"/>
  <outline>
    <contour>
      <point x="428.4799999999999" y="-10.0" type="curve" smooth="yes"/>
      <point x="644.64" y="-10.0"/>
      <point x="766.9" y="74.67999999999999"/>
      <point x="766.9" y="221.07999999999998" type="curve" smooth="yes"/>
      <point x="766.9" y="360.09999999999997"/>
      <point x="654.4599999999999" y="433.08000000000004"/>
      <point x="464.53999999999996" y="433.08000000000004" type="curve" smooth="yes"/>
      <point x="326.1" y="433.08000000000004"/>
      <point x="181.57999999999998" y="392.54"/>
      <point x="104.5" y="334.02" type="curve"/>
      <point x="107.6" y="279.76000000000005" type="line"/>
      <point x="180.78" y="337.66"/>
      <point x="315.68" y="380.06"/>
      <point x="445.56" y="380.06" type="curve" smooth="yes"/>
      <point x="602.68" y="380.06"/>
      <point x="697.9" y="326.91999999999996"/>
      <point x="697.9" y="219.73999999999998" type="curve" smooth="yes"/>
      <point x="697.9" y="109.12"/>
      <point x="601.2799999999999" y="44.440000000000005"/>
      <point x="433.09999999999997" y="44.440000000000005" type="curve" smooth="yes"/>
      <point x="217.66" y="44.440000000000005"/>
      <point x="114.82" y="136.02"/>
      <point x="114.82" y="341.88000000000005" type="curve" smooth="yes"/>
      <point x="114.82" y="549.7999999999998"/>
      <point x="229.39999999999998" y="653.3599999999999"/>
      <point x="453.40000000000003" y="653.3599999999999" type="curve" smooth="yes"/>
      <point x="549.2000000000002" y="653.3599999999999"/>
      <point x="630.16" y="638.8199999999999"/>
      <point x="719.92" y="617.0999999999999" type="curve"/>
      <point x="734.7399999999999" y="670.82" type="line"/>
      <point x="648.1999999999999" y="695.08"/>
      <point x="555.7599999999999" y="710.0"/>
      <point x="446.55999999999995" y="710.0" type="curve" smooth="yes"/>
      <point x="185.79999999999998" y="710.0"/>
      <point x="44.21999999999999" y="587.8399999999999"/>
      <point x="44.21999999999999" y="339.86" type="curve" smooth="yes"/>
      <point x="44.21999999999999" y="100.34000000000002"/>
      <point x="168.32" y="-10.0"/>
    </contour>
  </outline>
</glyph>
<glyph name="seven" format="2">
  <advance width="811.48"/>
  <unicode hex="0037"/>
  <outline>
    <contour>
      <point x="283.85999999999996" y="0.0" type="curve"/>
      <point x="354.66" y="0.0" type="line"/>
      <point x="356.03999999999996" y="129.38"/>
      <point x="401.93999999999994" y="228.26"/>
      <point x="497.05999999999995" y="350.08" type="curve" smooth="yes"/>
      <point x="735.6999999999999" y="654.3999999999999" type="line"/>
      <point x="735.6999999999999" y="700.0" type="line"/>
      <point x="68.57999999999998" y="700.0" type="line"/>
      <point x="68.57999999999998" y="640.6" type="line"/>
      <point x="648.7400000000001" y="640.6" type="line"/>
      <point x="455.03999999999996" y="397.38" type="line" smooth="yes"/>
      <point x="322.2999999999999" y="230.68"/>
      <point x="283.85999999999996" y="139.34"/>
    </contour>
  </outline>
</glyph>
<glyph name="eight" format="2">
  <advance width="811.5999999999999"/>
  <unicode hex="0038"/>
  <outline>
    <contour>
      <point x="523.4" y="371.9" type="curve"/>
      <point x="581.6" y="354.59999999999997" type="line"/>
      <point x="694.8999999999999" y="401.30000000000007"/>
      <point x="739.4999999999998" y="463.70000000000005"/>
      <point x="739.4999999999998" y="536.9" type="curve" smooth="yes"/>
      <point x="739.4999999999998" y="649.8000000000001"/>
      <point x="626.9" y="710.0"/>
      <point x="410.3999999999999" y="710.0" type="curve" smooth="yes"/>
      <point x="194.39999999999998" y="710.0"/>
      <point x="72.30000000000001" y="646.9000000000001"/>
      <point x="72.30000000000001" y="530.5" type="curve" smooth="yes"/>
      <point x="72.30000000000001" y="247.3"/>
      <point x="709.5" y="430.70000000000005"/>
      <point x="709.5" y="189.20000000000002" type="curve" smooth="yes"/>
      <point x="709.5" y="90.10000000000001"/>
      <point x="600.6999999999999" y="40.2"/>
      <point x="405.1" y="40.2" type="curve" smooth="yes"/>
      <point x="207.49999999999997" y="40.2"/>
      <point x="100.39999999999999" y="96.7"/>
      <point x="100.39999999999999" y="196.29999999999998" type="curve" smooth="yes"/>
      <point x="100.39999999999999" y="273.6"/>
      <point x="157.7" y="331.7"/>
      <point x="274.1" y="370.79999999999995" type="curve"/>
      <point x="216.19999999999996" y="394.3" type="line"/>
      <point x="88.2" y="348.6"/>
      <point x="29.799999999999994" y="279.3"/>
      <point x="29.799999999999994" y="190.70000000000002" type="curve" smooth="yes"/>
      <point x="29.799999999999994" y="62.2"/>
      <point x="158.2" y="-10.0"/>
      <point x="398.7" y="-10.0" type="curve" smooth="yes"/>
      <point x="646.9000000000001" y="-10.0"/>
      <point x="781.6999999999999" y="58.5"/>
      <point x="781.6999999999999" y="195.3" type="curve" smooth="yes"/>
      <point x="781.6999999999999" y="487.9"/>
      <point x="139.7" y="310.90000000000003"/>
      <point x="139.7" y="533.1999999999999" type="curve" smooth="yes"/>
      <point x="139.7" y="614.0000000000001"/>
      <point x="234.2" y="658.1"/>
      <point x="407.2" y="658.1" type="curve" smooth="yes"/>
      <point x="583.9000000000001" y="658.1"/>
      <point x="672.7" y="614.3000000000001"/>
      <point x="672.7" y="529.0000000000001" type="curve" smooth="yes"/>
      <point x="672.7" y="465.6"/>
      <point x="637.1" y="419.6"/>
    </contour>
  </outline>
</glyph>
<glyph name="nine" format="2">
  <advance width="811.48"/>
  <unicode hex="0039"/>
  <outline>
    <contour>
      <point x="362.9200000000001" y="-10.0" type="curve" smooth="yes"/>
      <point x="623.68" y="-10.0"/>
      <point x="762.34" y="111.35999999999999"/>
      <point x="762.34" y="358.13999999999993" type="curve" smooth="yes"/>
      <point x="762.34" y="598.8600000000001"/>
      <point x="640.84" y="710.0"/>
      <point x="400.0799999999999" y="710.0" type="curve" smooth="yes"/>
      <point x="175.39999999999995" y="710.0"/>
      <point x="39.660000000000004" y="628.0400000000001"/>
      <point x="39.660000000000004" y="479.13999999999993" type="curve" smooth="yes"/>
      <point x="39.660000000000004" y="342.22"/>
      <point x="154.38000000000002" y="266.91999999999996"/>
      <point x="341.0199999999999" y="266.91999999999996" type="curve" smooth="yes"/>
      <point x="480.25999999999993" y="266.91999999999996"/>
      <point x="624.58" y="306.02000000000004"/>
      <point x="702.0600000000001" y="364.74" type="curve"/>
      <point x="701.2399999999999" y="421.2" type="line"/>
      <point x="626.7199999999999" y="359.76000000000005"/>
      <point x="490.67999999999995" y="318.74"/>
      <point x="361.0" y="318.74" type="curve" smooth="yes"/>
      <point x="211.55999999999997" y="318.74"/>
      <point x="108.45999999999998" y="376.19999999999993"/>
      <point x="108.45999999999998" y="481.08000000000004" type="curve" smooth="yes"/>
      <point x="108.45999999999998" y="594.4"/>
      <point x="218.76" y="655.76"/>
      <point x="395.46" y="655.76" type="curve" smooth="yes"/>
      <point x="591.5" y="655.76"/>
      <point x="692.1399999999999" y="564.18"/>
      <point x="692.1399999999999" y="358.12" type="curve" smooth="yes"/>
      <point x="692.1399999999999" y="150.2"/>
      <point x="579.8799999999999" y="45.839999999999996"/>
      <point x="356.08" y="45.839999999999996" type="curve" smooth="yes"/>
      <point x="264.08" y="45.839999999999996"/>
      <point x="180.39999999999998" y="61.18"/>
      <point x="86.64" y="82.69999999999999" type="curve"/>
      <point x="71.82" y="29.78" type="line"/>
      <point x="162.35999999999999" y="5.319999999999999"/>
      <point x="257.72" y="-10.0"/>
    </contour>
  </outline>
</glyph>
<glyph name="less" format="2">
  <advance width="537.08"/>
  <unicode hex="003C"/>
  <outline>
    <contour>
      <point x="482.53999999999996" y="69.42" type="line"/>
      <point x="482.53999999999996" y="125.84" type="line"/>
      <point x="115.94" y="294.68" type="line"/>
      <point x="482.53999999999996" y="464.79999999999995" type="line"/>
      <point x="482.53999999999996" y="520.4" type="line"/>
      <point x="54.54" y="321.56" type="line"/>
      <point x="54.54" y="267.38000000000005" type="line"/>
    </contour>
  </outline>
</glyph>
<glyph name="equal" format="2">
  <advance width="535.88"/>
  <unicode hex="003D"/>
  <outline>
    <contour>
      <point x="480.31999999999994" y="215.76000000000002" type="line"/>
      <point x="55.56" y="215.76000000000002" type="line"/>
      <point x="55.56" y="161.46" type="line"/>
      <point x="480.31999999999994" y="161.46" type="line"/>
    </contour>
    <contour>
      <point x="480.31999999999994" y="430.02" type="line"/>
      <point x="55.56" y="430.02" type="line"/>
      <point x="55.56" y="375.72" type="line"/>
      <point x="480.31999999999994" y="375.72" type="line"/>
    </contour>
  </outline>
</glyph>
<glyph name="greater" format="2">
  <advance width="537.08"/>
  <unicode hex="003E"/>
  <outline>
    <contour>
      <point x="482.53999999999996" y="267.14" type="line"/>
      <point x="482.53999999999996" y="321.32" type="line"/>
      <point x="54.54" y="520.4" type="line"/>
      <point x="54.54" y="463.76" type="line"/>
      <point x="421.14" y="294.44" type="line"/>
      <point x="54.54" y="125.36000000000001" type="line"/>
      <point x="54.54" y="69.42" type="line"/>
    </contour>
  </outline>
</glyph>
<glyph name="question" format="2">
  <advance width="559.92"/>
  <unicode hex="003F"/>
  <outline>
    <contour>
      <point x="226.92000000000002" y="261.32" type="line"/>
      <point x="287.23999999999995" y="261.32" type="line"/>
      <point x="287.52" y="327.54" type="line"/>
      <point x="450.14" y="378.65999999999997"/>
      <point x="526.4799999999999" y="436.5"/>
      <point x="526.4799999999999" y="549.1" type="curve" smooth="yes"/>
      <point x="526.4799999999999" y="699.2"/>
      <point x="398.23999999999995" y="749.9399999999999"/>
      <point x="279.7" y="749.9399999999999" type="curve" smooth="yes"/>
      <point x="189.32000000000002" y="749.9399999999999"/>
      <point x="86.0" y="725.0799999999999"/>
      <point x="12.079999999999998" y="676.9399999999999" type="curve"/>
      <point x="33.72" y="626.48" type="line"/>
      <point x="106.28" y="671.16"/>
      <point x="193.2" y="692.0199999999999"/>
      <point x="270.82000000000005" y="692.0199999999999" type="curve" smooth="yes"/>
      <point x="360.11999999999995" y="692.0199999999999"/>
      <point x="455.64" y="653.2800000000001"/>
      <point x="455.64" y="545.48" type="curve" smooth="yes"/>
      <point x="455.64" y="467.68"/>
      <point x="402.12" y="408.88"/>
      <point x="225.7" y="361.82" type="curve"/>
    </contour>
    <contour>
      <point x="219.29999999999998" y="34.44" type="curve" smooth="yes"/>
      <point x="219.29999999999998" y="6.460000000000001"/>
      <point x="229.06" y="-2.14"/>
      <point x="260.82" y="-2.14" type="curve" smooth="yes"/>
      <point x="293.26" y="-2.14"/>
      <point x="302.1" y="6.460000000000001"/>
      <point x="302.1" y="34.44" type="curve" smooth="yes"/>
      <point x="302.1" y="62.620000000000005"/>
      <point x="293.26" y="71.22"/>
      <point x="260.82" y="71.22" type="curve" smooth="yes"/>
      <point x="228.02" y="71.22"/>
      <point x="219.29999999999998" y="62.620000000000005"/>
    </contour>
  </outline>
</glyph>
<glyph name="at" format="2">
  <advance width="957.3799999999999"/>
  <unicode hex="0040"/>
  <outline>
    <contour>
      <point x="461.85999999999996" y="-123.4" type="curve" smooth="yes"/>
      <point x="559.48" y="-123.4"/>
      <point x="654.3399999999999" y="-96.50000000000001"/>
      <point x="723.68" y="-61.60000000000001" type="curve"/>
      <point x="710.1800000000001" y="-24.66" type="line"/>
      <point x="645.04" y="-58.2"/>
      <point x="558.6999999999999" y="-82.24"/>
      <point x="466.05999999999995" y="-82.24" type="curve" smooth="yes"/>
      <point x="252.82" y="-82.24"/>
      <point x="108.18" y="28.44"/>
      <point x="108.18" y="269.32000000000005" type="curve" smooth="yes"/>
      <point x="108.18" y="494.44"/>
      <point x="236.99999999999997" y="670.22"/>
      <point x="488.96" y="670.22" type="curve" smooth="yes"/>
      <point x="731.2800000000001" y="670.22"/>
      <point x="852.5999999999999" y="550.3599999999999"/>
      <point x="852.5999999999999" y="339.66" type="curve" smooth="yes"/>
      <point x="852.5999999999999" y="210.16"/>
      <point x="806.5" y="109.53999999999999"/>
      <point x="744.1" y="109.53999999999999" type="curve" smooth="yes"/>
      <point x="693.34" y="109.53999999999999"/>
      <point x="667.0" y="146.26"/>
      <point x="673.0199999999999" y="252.35999999999999" type="curve" smooth="yes"/>
      <point x="687.86" y="496.34" type="line"/>
      <point x="624.28" y="514.18"/>
      <point x="560.98" y="525.06"/>
      <point x="508.1599999999999" y="525.06" type="curve" smooth="yes"/>
      <point x="337.37999999999994" y="525.06"/>
      <point x="251.78000000000003" y="401.02"/>
      <point x="251.78000000000003" y="265.9200000000001" type="curve" smooth="yes"/>
      <point x="251.78000000000003" y="134.57999999999998"/>
      <point x="317.20000000000005" y="69.96000000000001"/>
      <point x="410.56" y="69.96000000000001" type="curve" smooth="yes"/>
      <point x="501.5399999999999" y="69.96000000000001"/>
      <point x="581.04" y="130.89999999999998"/>
      <point x="619.78" y="248.86" type="curve"/>
      <point x="619.74" y="137.7"/>
      <point x="642.0400000000001" y="65.32000000000001"/>
      <point x="734.8" y="65.32000000000001" type="curve" smooth="yes"/>
      <point x="838.98" y="65.32000000000001"/>
      <point x="896.42" y="194.82"/>
      <point x="896.42" y="340.74" type="curve" smooth="yes"/>
      <point x="896.42" y="578.0600000000001"/>
      <point x="755.94" y="709.5799999999999"/>
      <point x="493.55999999999995" y="709.5799999999999" type="curve" smooth="yes"/>
      <point x="210.6" y="709.5799999999999"/>
      <point x="62.620000000000005" y="517.6"/>
      <point x="62.620000000000005" y="269.6" type="curve" smooth="yes"/>
      <point x="62.620000000000005" y="2.4800000000000004"/>
      <point x="222.93999999999997" y="-123.4"/>
    </contour>
    <contour>
      <point x="428.8" y="122.34" type="curve" smooth="yes"/>
      <point x="366.74" y="122.34"/>
      <point x="317.94" y="168.66000000000003"/>
      <point x="317.94" y="270.64000000000004" type="curve" smooth="yes"/>
      <point x="317.94" y="373.96000000000004"/>
      <point x="382.34" y="476.84"/>
      <point x="503.2" y="476.84" type="curve" smooth="yes"/>
      <point x="536.7199999999999" y="476.84"/>
      <point x="583.9399999999999" y="469.9"/>
      <point x="624.22" y="459.7" type="curve"/>
      <point x="618.0999999999999" y="375.2" type="line" smooth="yes"/>
      <point x="592.12" y="187.04"/>
      <point x="509.98" y="122.34"/>
    </contour>
  </outline>
</glyph>
<glyph name="A" format="2">
  <advance width="784.82"/>
  <unicode hex="0041"/>
  <anchor x="773.7399999999999" y="0.0" name="ogonek"/>
  <anchor x="390.46" y="0.0" name="bottom"/>
  <anchor x="392.97999999999996" y="700.0" name="top"/>
  <outline>
    <contour>
      <point x="11.36" y="0.0" type="line"/>
      <point x="87.19999999999999" y="0.0" type="line"/>
      <point x="181.98" y="195.42000000000002" type="line"/>
      <point x="598.0799999999999" y="195.42000000000002" type="line"/>
      <point x="693.4399999999999" y="0.0" type="line"/>
      <point x="773.7399999999999" y="0.0" type="line"/>
      <point x="427.02" y="708.0" type="line"/>
      <point x="357.14" y="708.0" type="line"/>
    </contour>
    <contour>
      <point x="203.89999999999998" y="251.56" type="line"/>
      <point x="389.9" y="638.1399999999999" type="line"/>
      <point x="576.58" y="251.56" type="line"/>
    </contour>
  </outline>
</glyph>
<glyph name="B" format="2">
  <advance width="827.3000000000001"/>
  <unicode hex="0042"/>
  <anchor x="420.59999999999997" y="700.0" name="top"/>
  <anchor x="420.59999999999997" y="0.0" name="bottom"/>
  <outline>
    <contour>
      <point x="101.78" y="2.4199999999999995" type="line"/>
      <point x="266.59999999999997" y="-7.760000000000001"/>
      <point x="328.43999999999994" y="-10.0"/>
      <point x="441.52" y="-10.0" type="curve" smooth="yes"/>
      <point x="691.7599999999999" y="-10.0"/>
      <point x="783.26" y="47.52"/>
      <point x="783.26" y="194.26" type="curve" smooth="yes"/>
      <point x="783.26" y="291.14"/>
      <point x="713.62" y="356.16"/>
      <point x="599.64" y="372.3" type="curve"/>
      <point x="599.64" y="374.12" type="line"/>
      <point x="685.3199999999999" y="395.66"/>
      <point x="734.54" y="456.5199999999999"/>
      <point x="734.54" y="539.72" type="curve" smooth="yes"/>
      <point x="734.54" y="662.8000000000001"/>
      <point x="653.04" y="710.0"/>
      <point x="429.7" y="710.0" type="curve" smooth="yes"/>
      <point x="343.06" y="710.0"/>
      <point x="257.5199999999999" y="706.36"/>
      <point x="101.78" y="697.0200000000001" type="curve"/>
    </contour>
    <contour>
      <point x="173.38" y="388.52000000000004" type="line"/>
      <point x="173.38" y="645.3799999999999" type="line"/>
      <point x="312.84" y="653.5600000000001"/>
      <point x="325.44" y="654.5600000000001"/>
      <point x="416.06" y="654.5600000000001" type="curve" smooth="yes"/>
      <point x="599.5399999999998" y="654.5600000000001"/>
      <point x="665.14" y="617.8199999999999"/>
      <point x="665.14" y="524.5200000000001" type="curve" smooth="yes"/>
      <point x="665.14" y="443.68"/>
      <point x="598.62" y="388.52000000000004"/>
      <point x="494.21999999999997" y="388.52000000000004" type="curve" smooth="yes"/>
    </contour>
    <contour>
      <point x="173.38" y="55.04" type="curve"/>
      <point x="173.38" y="334.92" type="line"/>
      <point x="500.6" y="334.92" type="line" smooth="yes"/>
      <point x="636.3399999999999" y="334.92"/>
      <point x="709.06" y="285.68"/>
      <point x="709.06" y="196.0" type="curve" smooth="yes"/>
      <point x="709.06" y="86.13999999999999"/>
      <point x="636.68" y="45.2"/>
      <point x="431.97999999999996" y="45.2" type="curve" smooth="yes"/>
      <point x="364.81999999999994" y="45.2"/>
      <point x="313.17999999999995" y="47.440000000000005"/>
    </contour>
  </outline>
</glyph>
<glyph name="C" format="2">
  <advance width="825.74"/>
  <unicode hex="0043"/>
  <anchor x="461.28" y="700.0" name="top"/>
  <anchor x="458.78" y="0.0" name="bottom"/>
  <outline>
    <contour>
      <point x="63.82" y="336.14" type="curve" smooth="yes"/>
      <point x="63.82" y="93.12"/>
      <point x="206.8" y="-10.0"/>
      <point x="464.3" y="-10.0" type="curve" smooth="yes"/>
      <point x="588.3399999999999" y="-10.0"/>
      <point x="693.8199999999999" y="5.159999999999999"/>
      <point x="782.6" y="31.68" type="curve"/>
      <point x="768.64" y="85.6" type="line"/>
      <point x="681.7599999999999" y="60.900000000000006"/>
      <point x="575.0400000000001" y="46.92"/>
      <point x="473.21999999999997" y="46.92" type="curve" smooth="yes"/>
      <point x="253.72" y="46.92"/>
      <point x="136.5" y="136.0"/>
      <point x="136.5" y="337.38" type="curve" smooth="yes"/>
      <point x="136.5" y="555.46"/>
      <point x="259.16" y="652.2"/>
      <point x="486.59999999999997" y="652.2" type="curve" smooth="yes"/>
      <point x="580.1399999999999" y="652.2"/>
      <point x="653.02" y="643.72"/>
      <point x="738.22" y="622.44" type="curve"/>
      <point x="753.32" y="677.4" type="line"/>
      <point x="666.26" y="701.1600000000001"/>
      <point x="593.76" y="710.0"/>
      <point x="482.63999999999993" y="710.0" type="curve" smooth="yes"/>
      <point x="212.54" y="710.0"/>
      <point x="63.82" y="590.98"/>
    </contour>
  </outline>
</glyph>
<glyph name="D" format="2">
  <advance width="899.9000000000001"/>
  <unicode hex="0044"/>
  <anchor x="442.62" y="700.0" name="top"/>
  <outline>
    <contour>
      <point x="418.72" y="-10.0" type="curve" smooth="yes"/>
      <point x="685.1599999999999" y="-10.0"/>
      <point x="836.0199999999999" y="104.38"/>
      <point x="836.0199999999999" y="345.04" type="curve" smooth="yes"/>
      <point x="836.0199999999999" y="598.02"/>
      <point x="699.5799999999999" y="710.0"/>
      <point x="403.2799999999999" y="710.0" type="curve" smooth="yes"/>
      <point x="308.29999999999995" y="710.0"/>
      <point x="215.66" y="707.18"/>
      <point x="101.78" y="700.72" type="curve"/>
      <point x="101.78" y="-1.4800000000000004" type="line"/>
      <point x="212.93999999999994" y="-5.3"/>
      <point x="324.79999999999995" y="-10.0"/>
    </contour>
    <contour>
      <point x="414.55999999999995" y="43.84" type="curve" smooth="yes"/>
      <point x="357.53999999999996" y="43.84"/>
      <point x="238.85999999999999" y="47.32000000000001"/>
      <point x="173.37999999999997" y="50.98" type="curve"/>
      <point x="173.37999999999997" y="649.0400000000001" type="line"/>
      <point x="248.42" y="653.32"/>
      <point x="346.29999999999995" y="655.98"/>
      <point x="402.5" y="655.98" type="curve" smooth="yes"/>
      <point x="646.9799999999999" y="655.98"/>
      <point x="762.4199999999998" y="563.6200000000001"/>
      <point x="762.4199999999998" y="345.66" type="curve" smooth="yes"/>
      <point x="762.4199999999998" y="139.04"/>
      <point x="637.6" y="43.84"/>
    </contour>
  </outline>
</glyph>
<glyph name="E" format="2">
  <advance width="758.6999999999999"/>
  <unicode hex="0045"/>
  <anchor x="719.4599999999999" y="0.0" name="ogonek"/>
  <anchor x="410.92" y="0.0" name="bottom"/>
  <anchor x="405.6" y="700.0" name="top"/>
  <outline>
    <contour>
      <point x="101.78" y="0.0" type="line"/>
      <point x="719.66" y="0.0" type="line"/>
      <point x="719.66" y="60.4" type="line"/>
      <point x="173.57999999999998" y="60.4" type="line"/>
      <point x="173.57999999999998" y="342.38" type="line"/>
      <point x="668.9399999999999" y="342.38" type="line"/>
      <point x="668.9399999999999" y="401.4" type="line"/>
      <point x="173.57999999999998" y="401.4" type="line"/>
      <point x="173.57999999999998" y="639.5999999999999" type="line"/>
      <point x="696.28" y="639.5999999999999" type="line"/>
      <point x="696.28" y="700.0" type="line"/>
      <point x="101.78" y="700.0" type="line"/>
    </contour>
  </outline>
</glyph>
<glyph name="F" format="2">
  <advance width="721.58"/>
  <unicode hex="0046"/>
  <outline>
    <contour>
      <point x="101.78" y="0.0" type="line"/>
      <point x="173.57999999999998" y="0.0" type="line"/>
      <point x="173.57999999999998" y="289.4600000000001" type="line"/>
      <point x="634.3" y="289.4600000000001" type="line"/>
      <point x="634.3" y="348.28000000000003" type="line"/>
      <point x="173.37999999999997" y="348.28000000000003" type="line"/>
      <point x="173.37999999999997" y="639.2" type="line"/>
      <point x="694.68" y="639.2" type="line"/>
      <point x="694.68" y="700.0" type="line"/>
      <point x="101.78" y="700.0" type="line"/>
    </contour>
  </outline>
</glyph>
<glyph name="G" format="2">
  <advance width="870.8799999999999"/>
  <unicode hex="0047"/>
  <anchor x="450.09999999999997" y="700.0" name="top"/>
  <anchor x="453.1" y="0.0" name="bottom"/>
  <outline>
    <contour>
      <point x="63.82" y="336.26" type="curve" smooth="yes"/>
      <point x="63.82" y="108.86"/>
      <point x="198.64000000000001" y="-10.0"/>
      <point x="445.84000000000003" y="-10.0" type="curve" smooth="yes"/>
      <point x="581.1599999999999" y="-10.0"/>
      <point x="704.54" y="8.32"/>
      <point x="789.84" y="43.0" type="curve"/>
      <point x="789.84" y="340.62" type="line"/>
      <point x="460.9" y="340.62" type="line"/>
      <point x="460.9" y="288.0" type="line"/>
      <point x="724.9799999999999" y="288.0" type="line"/>
      <point x="724.9799999999999" y="81.22" type="line"/>
      <point x="651.34" y="56.12"/>
      <point x="562.12" y="44.08"/>
      <point x="455.3399999999999" y="44.08" type="curve" smooth="yes"/>
      <point x="251.21999999999997" y="44.08"/>
      <point x="136.38" y="143.35999999999999"/>
      <point x="136.38" y="336.96" type="curve" smooth="yes"/>
      <point x="136.38" y="540.8199999999999"/>
      <point x="255.5" y="652.3199999999999"/>
      <point x="468.0" y="652.3199999999999" type="curve" smooth="yes"/>
      <point x="560.5799999999999" y="652.3199999999999"/>
      <point x="650.58" y="640.52"/>
      <point x="741.08" y="615.1" type="curve"/>
      <point x="755.52" y="669.0600000000001" type="line"/>
      <point x="667.64" y="696.5999999999999"/>
      <point x="573.92" y="710.0"/>
      <point x="464.34" y="710.0" type="curve" smooth="yes"/>
      <point x="207.6" y="710.0"/>
      <point x="63.82" y="577.1599999999999"/>
    </contour>
  </outline>
</glyph>
<glyph name="H" format="2">
  <advance width="927.5799999999999"/>
  <unicode hex="0048"/>
  <anchor x="464.09999999999997" y="700.0" name="top"/>
  <outline>
    <contour>
      <point x="101.66" y="0.0" type="line"/>
      <point x="172.95999999999998" y="0.0" type="line"/>
      <point x="172.95999999999998" y="275.46" type="line"/>
      <point x="754.6199999999999" y="275.46" type="line"/>
      <point x="754.6199999999999" y="0.0" type="line"/>
      <point x="825.92" y="0.0" type="line"/>
      <point x="825.92" y="700.0" type="line"/>
      <point x="754.6199999999999" y="700.0" type="line"/>
      <point x="754.6199999999999" y="335.92" type="line"/>
      <point x="172.95999999999998" y="335.92" type="line"/>
      <point x="172.95999999999998" y="700.0" type="line"/>
      <point x="101.66" y="700.0" type="line"/>
    </contour>
  </outline>
</glyph>
<glyph name="I" format="2">
  <advance width="274.62"/>
  <unicode hex="0049"/>
  <anchor x="172.95999999999998" y="0.0" name="ogonek"/>
  <anchor x="137.33999999999997" y="0.0" name="bottom"/>
  <anchor x="137.33999999999997" y="700.0" name="top"/>
  <outline>
    <contour>
      <point x="101.66" y="0.0" type="line"/>
      <point x="172.95999999999998" y="0.0" type="line"/>
      <point x="172.95999999999998" y="700.0" type="line"/>
      <point x="101.66" y="700.0" type="line"/>
    </contour>
  </outline>
</glyph>
<glyph name="J" format="2">
  <advance width="628.6800000000001"/>
  <unicode hex="004A"/>
  <anchor x="310.76" y="700.0" name="top"/>
  <outline>
    <contour>
      <point x="19.119999999999997" y="28.86" type="line"/>
      <point x="99.66" y="3.3400000000000003"/>
      <point x="198.1" y="-10.559999999999999"/>
      <point x="275.56" y="-10.559999999999999" type="curve" smooth="yes"/>
      <point x="455.74" y="-10.559999999999999"/>
      <point x="546.12" y="68.94"/>
      <point x="546.12" y="240.06" type="curve" smooth="yes"/>
      <point x="546.12" y="700.0" type="line"/>
      <point x="77.94" y="700.0" type="line"/>
      <point x="77.94" y="640.6999999999999" type="line"/>
      <point x="474.82" y="640.6999999999999" type="line"/>
      <point x="474.82" y="248.33999999999997" type="line" smooth="yes"/>
      <point x="474.82" y="104.66"/>
      <point x="397.78" y="47.120000000000005"/>
      <point x="261.47999999999996" y="47.120000000000005" type="curve" smooth="yes"/>
      <point x="196.24" y="47.120000000000005"/>
      <point x="109.51999999999998" y="60.540000000000006"/>
      <point x="34.24" y="83.60000000000001" type="curve"/>
    </contour>
  </outline>
</glyph>
<glyph name="K" format="2">
  <advance width="834.0999999999999"/>
  <unicode hex="004B"/>
  <anchor x="416.69999999999993" y="700.0" name="top"/>
  <anchor x="402.4" y="0.0" name="bottom"/>
  <outline>
    <contour>
      <point x="796.3" y="-10.0" type="curve" smooth="yes"/>
      <point x="801.1999999999999" y="-10.0"/>
      <point x="808.4999999999999" y="-10.0"/>
      <point x="815.6999999999998" y="-8.5" type="curve"/>
      <point x="815.6999999999998" y="57.9" type="line"/>
      <point x="810.1999999999999" y="57.1"/>
      <point x="804.3999999999999" y="57.1"/>
      <point x="799.9" y="57.1" type="curve" smooth="yes"/>
      <point x="735.8" y="58.300000000000004"/>
      <point x="684.9999999999999" y="83.9"/>
      <point x="563.7" y="171.0" type="curve" smooth="yes"/>
      <point x="173.29999999999998" y="451.30000000000007" type="line"/>
      <point x="173.29999999999998" y="700.0" type="line"/>
      <point x="101.89999999999999" y="700.0" type="line"/>
      <point x="101.89999999999999" y="0.0" type="line"/>
      <point x="173.29999999999998" y="0.0" type="line"/>
      <point x="173.29999999999998" y="372.5" type="line"/>
      <point x="544.1" y="106.0" type="line" smooth="yes"/>
      <point x="658.8999999999999" y="23.8"/>
      <point x="724.3" y="-10.0"/>
    </contour>
    <contour>
      <point x="326.1" y="313.9" type="line"/>
      <point x="477.3999999999999" y="382.6"/>
      <point x="683.0" y="503.1"/>
      <point x="784.8999999999999" y="673.0000000000001" type="curve"/>
      <point x="731.1" y="706.8000000000001" type="line"/>
      <point x="622.5999999999999" y="534.0"/>
      <point x="411.69999999999993" y="414.6"/>
      <point x="275.8" y="348.2" type="curve"/>
    </contour>
  </outline>
</glyph>
<glyph name="L" format="2">
  <advance width="692.5"/>
  <unicode hex="004C"/>
  <anchor x="346.56" y="350.0" name="center"/>
  <anchor x="137.33999999999997" y="700.0" name="top"/>
  <anchor x="439.5" y="700.0" name="topright"/>
  <anchor x="378.46" y="0.0" name="bottom"/>
  <outline>
    <contour>
      <point x="101.66" y="0.0" type="line"/>
      <point x="669.8" y="0.0" type="line"/>
      <point x="669.8" y="60.04" type="line"/>
      <point x="173.02" y="60.04" type="line"/>
      <point x="173.02" y="700.0" type="line"/>
      <point x="101.66" y="700.0" type="line"/>
    </contour>
  </outline>
</glyph>
<glyph name="M" format="2">
  <advance width="1042.28"/>
  <unicode hex="004D"/>
  <outline>
    <contour>
      <point x="101.85999999999999" y="0.0" type="line"/>
      <point x="168.57999999999998" y="0.0" type="line"/>
      <point x="168.57999999999998" y="607.96" type="line"/>
      <point x="503.9200000000001" y="250.89999999999998" type="line"/>
      <point x="536.54" y="250.89999999999998" type="line"/>
      <point x="873.6999999999999" y="609.84" type="line"/>
      <point x="873.6999999999999" y="0.0" type="line"/>
      <point x="940.4199999999998" y="0.0" type="line"/>
      <point x="940.4199999999998" y="700.0" type="line"/>
      <point x="871.8" y="700.0" type="line"/>
      <point x="522.38" y="323.06" type="line"/>
      <point x="173.57999999999998" y="700.0" type="line"/>
      <point x="101.85999999999999" y="700.0" type="line"/>
    </contour>
  </outline>
</glyph>
<glyph name="N" format="2">
  <advance width="915.1"/>
  <unicode hex="004E"/>
  <anchor x="457.79999999999995" y="700.0" name="top"/>
  <anchor x="457.79999999999995" y="0.0" name="bottom"/>
  <outline>
    <contour>
      <point x="101.79999999999998" y="0.0" type="line"/>
      <point x="167.59999999999997" y="0.0" type="line"/>
      <point x="167.59999999999997" y="604.0" type="line"/>
      <point x="749.0" y="-0.40000000000000013" type="line"/>
      <point x="813.2999999999998" y="-0.40000000000000013" type="line"/>
      <point x="813.2999999999998" y="700.0" type="line"/>
      <point x="747.4999999999999" y="700.0" type="line"/>
      <point x="747.4999999999999" y="96.1" type="line"/>
      <point x="165.89999999999998" y="705.6" type="line"/>
      <point x="101.79999999999998" y="705.6" type="line"/>
    </contour>
  </outline>
</glyph>
<glyph name="O" format="2">
  <advance width="961.6999999999999"/>
  <unicode hex="004F"/>
  <anchor x="541.9999999999999" y="0.3000000000000007" name="ogonek"/>
  <anchor x="479.59999999999997" y="700.0" name="top"/>
  <anchor x="726.5999999999999" y="672.1999999999999" name="topright"/>
  <anchor x="479.9" y="0.0" name="bottom"/>
  <outline>
    <contour>
      <point x="479.69999999999993" y="43.9" type="curve" smooth="yes"/>
      <point x="315.49999999999994" y="43.9"/>
      <point x="136.5" y="106.7"/>
      <point x="136.5" y="349.8" type="curve" smooth="yes"/>
      <point x="136.5" y="600.1999999999999"/>
      <point x="314.79999999999995" y="656.5"/>
      <point x="479.69999999999993" y="656.5" type="curve" smooth="yes"/>
      <point x="646.3" y="656.5"/>
      <point x="824.2999999999998" y="599.8"/>
      <point x="824.2999999999998" y="349.9" type="curve" smooth="yes"/>
      <point x="824.2999999999998" y="100.5"/>
      <point x="646.1999999999999" y="43.9"/>
    </contour>
    <contour>
      <point x="479.9" y="-10.0" type="curve" smooth="yes"/>
      <point x="697.3000000000001" y="-10.0"/>
      <point x="897.4999999999999" y="62.300000000000004"/>
      <point x="897.4999999999999" y="353.3" type="curve" smooth="yes"/>
      <point x="897.4999999999999" y="636.8000000000001"/>
      <point x="693.8" y="710.0"/>
      <point x="479.69999999999993" y="710.0" type="curve" smooth="yes"/>
      <point x="263.5" y="710.0"/>
      <point x="64.2" y="634.6999999999999"/>
      <point x="64.2" y="350.2" type="curve" smooth="yes"/>
      <point x="64.2" y="71.8"/>
      <point x="266.79999999999995" y="-10.0"/>
    </contour>
  </outline>
</glyph>
<glyph name="P" format="2">
  <advance width="825.3000000000001"/>
  <unicode hex="0050"/>
  <outline>
    <contour>
      <point x="101.66" y="0.0" type="line"/>
      <point x="173.02" y="0.0" type="line"/>
      <point x="173.02" y="243.59999999999997" type="line"/>
      <point x="290.35999999999996" y="240.32000000000002"/>
      <point x="332.56" y="239.76"/>
      <point x="431.79999999999995" y="239.76" type="curve" smooth="yes"/>
      <point x="685.38" y="239.76"/>
      <point x="779.0600000000001" y="299.53999999999996"/>
      <point x="779.0600000000001" y="480.96" type="curve" smooth="yes"/>
      <point x="779.0600000000001" y="646.28"/>
      <point x="707.72" y="710.0"/>
      <point x="403.65999999999997" y="710.0" type="curve" smooth="yes"/>
      <point x="352.94" y="710.0"/>
      <point x="273.15999999999997" y="707.9200000000001"/>
      <point x="101.66" y="701.08" type="curve"/>
    </contour>
    <contour>
      <point x="173.07999999999998" y="648.4" type="line"/>
      <point x="308.62" y="654.34"/>
      <point x="357.06" y="655.7"/>
      <point x="408.4" y="655.7" type="curve" smooth="yes"/>
      <point x="648.54" y="655.7"/>
      <point x="706.7200000000001" y="605.3199999999999"/>
      <point x="706.7200000000001" y="480.82" type="curve" smooth="yes"/>
      <point x="706.7200000000001" y="344.44000000000005"/>
      <point x="644.26" y="294.78"/>
      <point x="410.32" y="294.78" type="curve" smooth="yes"/>
      <point x="319.84" y="294.78"/>
      <point x="271.9" y="296.6"/>
      <point x="173.07999999999998" y="299.2" type="curve"/>
    </contour>
  </outline>
</glyph>
<glyph name="Q" format="2">
  <advance width="961.76"/>
  <unicode hex="0051"/>
  <outline>
    <contour>
      <point x="573.84" y="9.680000000000001" type="curve"/>
      <point x="508.49999999999994" y="0.24000000000000077" type="line"/>
      <point x="560.62" y="-130.0"/>
      <point x="625.38" y="-205.92"/>
      <point x="728.9000000000001" y="-205.92" type="curve" smooth="yes"/>
      <point x="764.18" y="-205.92"/>
      <point x="805.42" y="-197.62"/>
      <point x="850.3799999999999" y="-178.66" type="curve"/>
      <point x="838.8" y="-124.83999999999999" type="line"/>
      <point x="802.4399999999999" y="-140.94"/>
      <point x="769.0999999999999" y="-148.32000000000002"/>
      <point x="740.3" y="-148.32000000000002" type="curve" smooth="yes"/>
      <point x="663.84" y="-148.32000000000002"/>
      <point x="615.8" y="-91.32"/>
    </contour>
    <component base="O"/>
  </outline>
</glyph>
<glyph name="R" format="2">
  <advance width="878.9"/>
  <unicode hex="0052"/>
  <anchor x="415.09999999999997" y="700.0" name="top"/>
  <anchor x="432.49999999999994" y="0.0" name="bottom"/>
  <outline>
    <contour>
      <point x="848.1999999999999" y="-10.0" type="curve" smooth="yes"/>
      <point x="855.2999999999998" y="-10.0"/>
      <point x="863.3999999999999" y="-9.0"/>
      <point x="869.5999999999999" y="-8.0" type="curve"/>
      <point x="868.7999999999998" y="55.5" type="line"/>
      <point x="863.9" y="54.7"/>
      <point x="856.1999999999999" y="54.2"/>
      <point x="852.5999999999999" y="54.2" type="curve" smooth="yes"/>
      <point x="783.9999999999999" y="54.2"/>
      <point x="667.5" y="143.8"/>
      <point x="540.6" y="300.2" type="curve"/>
      <point x="684.6" y="318.4"/>
      <point x="765.4" y="370.9"/>
      <point x="765.4" y="508.0" type="curve" smooth="yes"/>
      <point x="765.4" y="662.4000000000001"/>
      <point x="665.2" y="709.7"/>
      <point x="385.8" y="709.7" type="curve" smooth="yes"/>
      <point x="291.79999999999995" y="709.7"/>
      <point x="218.09999999999997" y="707.8000000000001"/>
      <point x="101.89999999999999" y="701.9000000000001" type="curve"/>
      <point x="101.89999999999999" y="0.0" type="line"/>
      <point x="173.49999999999997" y="0.0" type="line"/>
      <point x="173.49999999999997" y="287.59999999999997" type="line"/>
      <point x="249.19999999999996" y="285.50000000000006"/>
      <point x="322.79999999999995" y="284.40000000000003"/>
      <point x="390.29999999999995" y="284.40000000000003" type="curve" smooth="yes"/>
      <point x="411.6" y="284.40000000000003"/>
      <point x="439.19999999999993" y="284.50000000000006"/>
      <point x="460.49999999999994" y="285.3" type="curve"/>
      <point x="607.6" y="102.89999999999999"/>
      <point x="748.6" y="-10.0"/>
    </contour>
    <contour>
      <point x="403.99999999999994" y="341.0" type="curve" smooth="yes"/>
      <point x="331.7" y="341.0"/>
      <point x="259.4" y="342.5"/>
      <point x="173.49999999999997" y="345.0" type="curve"/>
      <point x="173.49999999999997" y="651.1" type="line"/>
      <point x="264.0" y="655.9"/>
      <point x="298.79999999999995" y="656.1999999999999"/>
      <point x="388.9" y="656.1999999999999" type="curve" smooth="yes"/>
      <point x="616.0999999999999" y="656.1999999999999"/>
      <point x="692.0000000000001" y="619.5999999999999"/>
      <point x="692.0000000000001" y="500.7" type="curve" smooth="yes"/>
      <point x="692.0000000000001" y="380.5"/>
      <point x="619.3" y="341.0"/>
    </contour>
  </outline>
</glyph>
<glyph name="S" format="2">
  <advance width="768.5000000000001"/>
  <unicode hex="0053"/>
  <anchor x="386.5" y="700.0" name="top"/>
  <anchor x="382.8999999999999" y="0.0" name="bottom"/>
  <outline>
    <contour>
      <point x="670.3000000000001" y="671.5000000000001" type="line"/>
      <point x="607.9" y="689.8000000000001"/>
      <point x="494.0999999999999" y="710.0"/>
      <point x="397.2" y="710.0" type="curve" smooth="yes"/>
      <point x="178.79999999999998" y="710.0"/>
      <point x="64.19999999999999" y="641.3"/>
      <point x="64.19999999999999" y="521.4" type="curve" smooth="yes"/>
      <point x="64.19999999999999" y="402.2"/>
      <point x="177.09999999999997" y="360.79999999999995"/>
      <point x="353.7" y="324.3" type="curve" smooth="yes"/>
      <point x="532.1999999999999" y="288.5"/>
      <point x="646.4" y="263.4"/>
      <point x="646.4" y="175.9" type="curve" smooth="yes"/>
      <point x="646.4" y="88.3"/>
      <point x="555.6" y="45.0"/>
      <point x="379.3" y="45.0" type="curve" smooth="yes"/>
      <point x="262.9" y="45.0"/>
      <point x="111.4" y="77.39999999999999"/>
      <point x="49.599999999999994" y="98.20000000000002" type="curve"/>
      <point x="34.2" y="42.699999999999996" type="line"/>
      <point x="95.2" y="22.4"/>
      <point x="251.6" y="-10.0"/>
      <point x="373.09999999999997" y="-10.0" type="curve" smooth="yes"/>
      <point x="598.6999999999999" y="-10.0"/>
      <point x="719.9" y="53.0"/>
      <point x="719.9" y="181.7" type="curve" smooth="yes"/>
      <point x="719.9" y="301.09999999999997"/>
      <point x="603.7" y="340.5"/>
      <point x="420.69999999999993" y="376.9" type="curve" smooth="yes"/>
      <point x="246.39999999999998" y="410.99999999999994"/>
      <point x="137.49999999999994" y="437.1"/>
      <point x="137.49999999999994" y="526.0" type="curve" smooth="yes"/>
      <point x="137.49999999999994" y="607.8000000000001"/>
      <point x="229.20000000000002" y="655.3"/>
      <point x="394.4" y="655.3" type="curve" smooth="yes"/>
      <point x="482.2999999999999" y="655.3"/>
      <point x="594.9999999999999" y="635.9999999999999"/>
      <point x="655.8000000000001" y="616.9000000000001" type="curve"/>
    </contour>
  </outline>
</glyph>
<glyph name="T" format="2">
  <advance width="699.8399999999999"/>
  <unicode hex="0054"/>
  <anchor x="349.91999999999996" y="700.0" name="top"/>
  <anchor x="349.91999999999996" y="0.0" name="bottom"/>
  <outline>
    <contour>
      <point x="689.7799999999999" y="640.28" type="line"/>
      <point x="689.7799999999999" y="700.0" type="line"/>
      <point x="10.059999999999999" y="700.0" type="line"/>
      <point x="10.059999999999999" y="640.28" type="line"/>
      <point x="314.3" y="640.28" type="line"/>
      <point x="314.3" y="0.0" type="line"/>
      <point x="385.6" y="0.0" type="line"/>
      <point x="385.6" y="640.28" type="line"/>
    </contour>
  </outline>
</glyph>
<glyph name="U" format="2">
  <advance width="888.2999999999998"/>
  <unicode hex="0055"/>
  <anchor x="510.94" y="0.12000000000000005" name="ogonek"/>
  <anchor x="444.29999999999995" y="700.0" name="top"/>
  <anchor x="805.74" y="700.0" name="topright"/>
  <anchor x="444.29999999999995" y="0.0" name="bottom"/>
  <outline>
    <contour>
      <point x="82.55999999999999" y="249.27999999999994" type="line"/>
      <point x="82.55999999999999" y="43.39999999999999"/>
      <point x="257.74" y="-10.0"/>
      <point x="444.18" y="-10.0" type="curve" smooth="yes"/>
      <point x="631.04" y="-10.0"/>
      <point x="805.74" y="43.39999999999999"/>
      <point x="805.74" y="249.27999999999994" type="curve" smooth="yes"/>
      <point x="805.74" y="700.0" type="line"/>
      <point x="735.4399999999999" y="700.0" type="line"/>
      <point x="735.4399999999999" y="252.26" type="line" smooth="yes"/>
      <point x="735.4399999999999" y="84.84"/>
      <point x="585.84" y="46.34"/>
      <point x="444.6" y="46.34" type="curve" smooth="yes"/>
      <point x="304.4" y="46.34"/>
      <point x="152.73999999999998" y="83.58"/>
      <point x="152.73999999999998" y="252.26" type="curve" smooth="yes"/>
      <point x="152.73999999999998" y="700.0" type="line"/>
      <point x="82.55999999999999" y="700.0" type="line"/>
    </contour>
  </outline>
</glyph>
<glyph name="V" format="2">
  <advance width="793.0199999999999"/>
  <unicode hex="0056"/>
  <outline>
    <contour>
      <point x="361.03999999999996" y="0.0" type="line"/>
      <point x="432.59999999999997" y="0.0" type="line"/>
      <point x="783.82" y="696.6" type="line"/>
      <point x="710.34" y="704.0400000000001" type="line"/>
      <point x="397.1" y="71.5" type="line"/>
      <point x="83.1" y="704.0400000000001" type="line"/>
      <point x="9.2" y="696.6" type="line"/>
    </contour>
  </outline>
</glyph>
<glyph name="W" format="2">
  <advance width="1075.1"/>
  <unicode hex="0057"/>
  <anchor x="537.3" y="700.0" name="top"/>
  <anchor x="537.3" y="0.0" name="bottom"/>
  <outline>
    <contour>
      <point x="839.2799999999999" y="0.0" type="line"/>
      <point x="1065.4399999999998" y="697.8199999999999" type="line"/>
      <point x="991.28" y="702.82" type="line"/>
      <point x="805.7399999999999" y="86.72" type="line"/>
      <point x="573.14" y="670.14" type="line"/>
      <point x="505.09999999999997" y="670.14" type="line"/>
      <point x="270.11999999999995" y="86.16" type="line"/>
      <point x="82.98" y="702.82" type="line"/>
      <point x="9.66" y="697.8199999999999" type="line"/>
      <point x="234.01999999999998" y="0.0" type="line"/>
      <point x="299.9" y="0.0" type="line"/>
      <point x="535.78" y="576.4000000000001" type="line"/>
      <point x="768.3599999999999" y="0.0" type="line"/>
    </contour>
  </outline>
</glyph>
<glyph name="X" format="2">
  <advance width="786.5999999999999"/>
  <unicode hex="0058"/>
  <outline>
    <contour>
      <point x="17.900000000000002" y="4.8" type="line"/>
      <point x="93.0" y="-5.6" type="line"/>
      <point x="392.09999999999997" y="314.5" type="line"/>
      <point x="689.5" y="-5.6" type="line"/>
      <point x="767.9" y="4.8" type="line"/>
      <point x="439.49999999999994" y="361.59999999999997" type="line"/>
      <point x="748.8999999999999" y="694.6" type="line"/>
      <point x="677.0999999999999" y="704.4000000000001" type="line"/>
      <point x="397.5" y="405.3" type="line"/>
      <point x="119.5" y="704.8000000000001" type="line"/>
      <point x="39.7" y="694.6" type="line"/>
      <point x="352.4" y="359.69999999999993" type="line"/>
    </contour>
  </outline>
</glyph>
<glyph name="Y" format="2">
  <advance width="776.3999999999999"/>
  <unicode hex="0059"/>
  <anchor x="388.44" y="700.0" name="top"/>
  <anchor x="392.12" y="0.0" name="bottom"/>
  <outline>
    <contour>
      <point x="356.68" y="0.0" type="line"/>
      <point x="427.97999999999996" y="0.0" type="line"/>
      <point x="427.97999999999996" y="295.00000000000006" type="line"/>
      <point x="766.68" y="694.8000000000001" type="line"/>
      <point x="693.74" y="705.1999999999999" type="line"/>
      <point x="392.63999999999993" y="342.14" type="line"/>
      <point x="82.25999999999999" y="705.1999999999999" type="line"/>
      <point x="8.760000000000002" y="694.8000000000001" type="line"/>
      <point x="356.68" y="295.00000000000006" type="line"/>
    </contour>
  </outline>
</glyph>
<glyph name="Z" format="2">
  <advance width="756.02"/>
  <unicode hex="005A"/>
  <anchor x="378.03999999999996" y="350.0" name="center"/>
  <anchor x="378.03999999999996" y="0.0" name="bottom"/>
  <anchor x="380.92" y="700.0" name="top"/>
  <outline>
    <contour>
      <point x="34.7" y="0.0" type="line"/>
      <point x="727.54" y="0.0" type="line"/>
      <point x="727.54" y="55.72" type="line"/>
      <point x="133.93999999999997" y="55.72" type="line"/>
      <point x="133.93999999999997" y="57.62000000000001" type="line"/>
      <point x="691.7799999999999" y="650.4000000000001" type="line"/>
      <point x="691.7799999999999" y="700.0" type="line"/>
      <point x="62.239999999999995" y="700.0" type="line"/>
      <point x="62.239999999999995" y="644.48" type="line"/>
      <point x="594.1399999999999" y="644.48" type="line"/>
      <point x="594.1399999999999" y="642.3799999999999" type="line"/>
      <point x="34.7" y="49.800000000000004" type="line"/>
    </contour>
  </outline>
</glyph>
<glyph name="bracketleft" format="2">
  <advance width="386.34000000000003"/>
  <unicode hex="005B"/>
  <outline>
    <contour>
      <point x="157.78" y="-163.0" type="line"/>
      <point x="157.78" y="693.0" type="line"/>
      <point x="353.34" y="693.0" type="line"/>
      <point x="353.34" y="740.0" type="line"/>
      <point x="101.6" y="740.0" type="line"/>
      <point x="101.6" y="-210.0" type="line"/>
      <point x="353.34" y="-210.0" type="line"/>
      <point x="353.34" y="-163.0" type="line"/>
    </contour>
  </outline>
</glyph>
<glyph name="backslash" format="2">
  <advance width="406.82"/>
  <unicode hex="005C"/>
  <outline>
    <contour>
      <point x="64.25999999999999" y="740.0" type="line"/>
      <point x="6.879999999999999" y="740.0" type="line"/>
      <point x="342.62" y="-210.0" type="line"/>
      <point x="399.94" y="-210.0" type="line"/>
    </contour>
  </outline>
</glyph>
<glyph name="bracketright" format="2">
  <advance width="386.34000000000003"/>
  <unicode hex="005D"/>
  <outline>
    <contour>
      <point x="33.0" y="-163.0" type="line"/>
      <point x="33.0" y="-210.0" type="line"/>
      <point x="284.74" y="-210.0" type="line"/>
      <point x="284.74" y="740.0" type="line"/>
      <point x="33.0" y="740.0" type="line"/>
      <point x="33.0" y="693.0" type="line"/>
      <point x="228.55999999999997" y="693.0" type="line"/>
      <point x="228.55999999999997" y="-163.0" type="line"/>
    </contour>
  </outline>
</glyph>
<glyph name="asciicircum" format="2">
  <advance width="537.08"/>
  <unicode hex="005E"/>
  <outline>
    <contour>
      <point x="49.9" y="264.32" type="line"/>
      <point x="108.22" y="264.32" type="line"/>
      <point x="268.54" y="637.22" type="line"/>
      <point x="429.06" y="264.32" type="line"/>
      <point x="487.18" y="264.32" type="line"/>
      <point x="298.68" y="708.0" type="line"/>
      <point x="238.39999999999998" y="708.0" type="line"/>
    </contour>
  </outline>
</glyph>
<glyph name="underscore" format="2">
  <advance width="889.08"/>
  <unicode hex="005F"/>
  <outline>
    <contour>
      <point x="4.0" y="-150.73999999999998" type="line"/>
      <point x="885.08" y="-150.73999999999998" type="line"/>
      <point x="885.08" y="-101.14" type="line"/>
      <point x="4.0" y="-101.14" type="line"/>
    </contour>
  </outline>
</glyph>
<glyph name="a" format="2">
  <advance width="658.9999999999999"/>
  <unicode hex="0061"/>
  <anchor x="644.0" y="2.4000000000000004" name="ogonek"/>
  <anchor x="326.6" y="0.0" name="bottom"/>
  <anchor x="327.59999999999997" y="534.0" name="top"/>
  <outline>
    <contour>
      <point x="50.9" y="126.29999999999998" type="curve" smooth="yes"/>
      <point x="50.9" y="31.700000000000003"/>
      <point x="117.89999999999999" y="-10.0"/>
      <point x="209.70000000000002" y="-10.0" type="curve" smooth="yes"/>
      <point x="328.79999999999995" y="-10.0"/>
      <point x="422.9" y="39.800000000000004"/>
      <point x="489.40000000000003" y="92.1" type="curve"/>
      <point x="495.4" y="17.5"/>
      <point x="529.7" y="-10.0"/>
      <point x="587.3000000000001" y="-10.0" type="curve" smooth="yes"/>
      <point x="608.8999999999999" y="-10.0"/>
      <point x="630.0000000000001" y="-5.1"/>
      <point x="650.0" y="5.4" type="curve"/>
      <point x="641.2" y="51.8" type="line"/>
      <point x="629.9" y="47.2"/>
      <point x="618.8999999999999" y="45.6"/>
      <point x="608.9000000000001" y="45.6" type="curve" smooth="yes"/>
      <point x="574.3999999999999" y="45.6"/>
      <point x="553.1" y="64.1"/>
      <point x="553.7" y="129.7" type="curve" smooth="yes"/>
      <point x="555.2" y="368.7" type="line" smooth="yes"/>
      <point x="556.1" y="490.3"/>
      <point x="465.49999999999994" y="544.0"/>
      <point x="313.3" y="544.0" type="curve" smooth="yes"/>
      <point x="244.7" y="544.0"/>
      <point x="167.29999999999995" y="532.1999999999999"/>
      <point x="93.79999999999998" y="512.6999999999999" type="curve"/>
      <point x="104.59999999999998" y="461.2" type="line"/>
      <point x="179.49999999999997" y="481.5"/>
      <point x="253.39999999999998" y="490.6"/>
      <point x="310.79999999999995" y="490.6" type="curve" smooth="yes"/>
      <point x="427.59999999999997" y="490.6"/>
      <point x="487.69999999999993" y="446.59999999999997"/>
      <point x="487.0999999999999" y="368.1" type="curve" smooth="yes"/>
      <point x="486.7999999999999" y="300.8" type="line"/>
      <point x="192.6" y="285.5"/>
      <point x="50.9" y="267.2"/>
    </contour>
    <contour>
      <point x="120.89999999999999" y="132.3" type="curve" smooth="yes"/>
      <point x="120.89999999999999" y="237.29999999999998"/>
      <point x="260.59999999999997" y="251.2"/>
      <point x="486.4999999999999" y="260.8" type="curve"/>
      <point x="485.5999999999999" y="136.59999999999997" type="line"/>
      <point x="411.8" y="73.4"/>
      <point x="312.79999999999995" y="36.5"/>
      <point x="231.2" y="36.5" type="curve" smooth="yes"/>
      <point x="163.7" y="36.5"/>
      <point x="120.89999999999999" y="67.8"/>
    </contour>
  </outline>
</glyph>
<glyph name="b" format="2">
  <advance width="698.56"/>
  <unicode hex="0062"/>
  <outline>
    <contour>
      <point x="88.7" y="17.08" type="line"/>
      <point x="182.0" y="-1.180000000000001"/>
      <point x="257.9" y="-10.0"/>
      <point x="325.44" y="-10.0" type="curve" smooth="yes"/>
      <point x="542.46" y="-10.0"/>
      <point x="645.5" y="81.52"/>
      <point x="645.5" y="282.54" type="curve" smooth="yes"/>
      <point x="645.5" y="447.93999999999994"/>
      <point x="558.7" y="544.0"/>
      <point x="411.79999999999995" y="544.0" type="curve" smooth="yes"/>
      <point x="327.74" y="544.0"/>
      <point x="251.44" y="517.52"/>
      <point x="157.2" y="454.40000000000003" type="curve"/>
      <point x="157.2" y="740.0" type="line"/>
      <point x="88.7" y="740.0" type="line"/>
    </contour>
    <contour>
      <point x="157.2" y="58.699999999999996" type="curve"/>
      <point x="157.2" y="404.70000000000005" type="line"/>
      <point x="247.85999999999999" y="464.74"/>
      <point x="313.94" y="488.6"/>
      <point x="389.0" y="488.6" type="curve" smooth="yes"/>
      <point x="505.37999999999994" y="488.6"/>
      <point x="575.78" y="412.32"/>
      <point x="575.78" y="279.32" type="curve" smooth="yes"/>
      <point x="575.78" y="112.24000000000001"/>
      <point x="494.06" y="38.81999999999999"/>
      <point x="325.62" y="38.81999999999999" type="curve" smooth="yes"/>
      <point x="279.02000000000004" y="38.81999999999999"/>
      <point x="223.20000000000002" y="45.099999999999994"/>
    </contour>
  </outline>
</glyph>
<glyph name="c" format="2">
  <advance width="649.14"/>
  <unicode hex="0063"/>
  <anchor x="370.8" y="534.0" name="top"/>
  <anchor x="371.04" y="0.0" name="bottom"/>
  <outline>
    <contour>
      <point x="53.25999999999999" y="255.21999999999997" type="curve" smooth="yes"/>
      <point x="53.25999999999999" y="78.58"/>
      <point x="163.07999999999998" y="-10.0"/>
      <point x="370.74" y="-10.0" type="curve" smooth="yes"/>
      <point x="450.28" y="-10.0"/>
      <point x="543.6199999999999" y="3.0"/>
      <point x="614.16" y="21.419999999999998" type="curve"/>
      <point x="604.3399999999999" y="69.36" type="line"/>
      <point x="534.0400000000001" y="52.839999999999996"/>
      <point x="451.84" y="41.160000000000004"/>
      <point x="383.58" y="41.160000000000004" type="curve" smooth="yes"/>
      <point x="217.04" y="41.160000000000004"/>
      <point x="122.17999999999999" y="106.92"/>
      <point x="122.17999999999999" y="255.68" type="curve" smooth="yes"/>
      <point x="122.17999999999999" y="418.86"/>
      <point x="220.42" y="492.28"/>
      <point x="380.84" y="492.28" type="curve" smooth="yes"/>
      <point x="443.3999999999999" y="492.28"/>
      <point x="527.0400000000001" y="481.59999999999997"/>
      <point x="592.84" y="466.4" type="curve"/>
      <point x="601.9000000000001" y="516.38" type="line"/>
      <point x="537.7" y="532.8000000000001"/>
      <point x="447.87999999999994" y="544.0"/>
      <point x="378.4" y="544.0" type="curve" smooth="yes"/>
      <point x="175.74" y="544.0"/>
      <point x="53.25999999999999" y="446.15999999999997"/>
    </contour>
  </outline>
</glyph>
<glyph name="d" format="2">
  <advance width="698.9"/>
  <unicode hex="0064"/>
  <anchor x="350.26" y="275.0" name="center"/>
  <anchor x="347.12" y="740.0" name="top"/>
  <anchor x="704.4" y="740.0" name="topright"/>
  <anchor x="350.26" y="0.0" name="bottom"/>
  <outline>
    <contour>
      <point x="553.5600000000001" y="-0.6" type="line"/>
      <point x="610.3" y="-0.6" type="line"/>
      <point x="610.3" y="740.0" type="line"/>
      <point x="541.5" y="740.0" type="line"/>
      <point x="541.5" y="527.04" type="line"/>
      <point x="484.0" y="538.26"/>
      <point x="423.25999999999993" y="544.0"/>
      <point x="370.41999999999996" y="544.0" type="curve" smooth="yes"/>
      <point x="156.32" y="544.0"/>
      <point x="53.099999999999994" y="451.13999999999993"/>
      <point x="53.099999999999994" y="252.01999999999998" type="curve" smooth="yes"/>
      <point x="53.099999999999994" y="86.14000000000001"/>
      <point x="140.23999999999998" y="-10.0"/>
      <point x="287.18" y="-10.0" type="curve" smooth="yes"/>
      <point x="371.79999999999995" y="-10.0"/>
      <point x="446.92" y="16.0"/>
      <point x="541.5" y="79.20000000000002" type="curve"/>
    </contour>
    <contour>
      <point x="541.3" y="129.06" type="line"/>
      <point x="450.85999999999996" y="69.5"/>
      <point x="384.5799999999999" y="45.44"/>
      <point x="309.58" y="45.44" type="curve" smooth="yes"/>
      <point x="193.44" y="45.44"/>
      <point x="123.1" y="121.3"/>
      <point x="123.1" y="255.61999999999998" type="curve" smooth="yes"/>
      <point x="123.1" y="421.86"/>
      <point x="204.67999999999998" y="494.76000000000005"/>
      <point x="372.91999999999996" y="494.76000000000005" type="curve" smooth="yes"/>
      <point x="419.84" y="494.76000000000005"/>
      <point x="475.53999999999996" y="488.62"/>
      <point x="541.3" y="474.96" type="curve"/>
    </contour>
  </outline>
</glyph>
<glyph name="e" format="2">
  <advance width="683.4599999999999"/>
  <unicode hex="0065"/>
  <anchor x="585.38" y="15.459999999999999" name="ogonek"/>
  <anchor x="359.4" y="0.0" name="bottom"/>
  <anchor x="360.08" y="534.0" name="top"/>
  <outline>
    <contour>
      <point x="346.92" y="-10.0" type="curve" smooth="yes"/>
      <point x="460.73999999999995" y="-10.0"/>
      <point x="563.0200000000001" y="7.619999999999998"/>
      <point x="628.5" y="24.720000000000002" type="curve"/>
      <point x="619.72" y="74.36" type="line"/>
      <point x="555.92" y="59.68"/>
      <point x="453.24" y="42.02000000000001"/>
      <point x="354.7" y="42.02000000000001" type="curve" smooth="yes"/>
      <point x="214.62" y="42.02000000000001"/>
      <point x="122.9" y="102.0"/>
      <point x="122.9" y="240.08" type="curve" smooth="yes"/>
      <point x="122.9" y="249.4"/>
      <point x="123.32" y="257.88000000000005"/>
      <point x="124.14000000000001" y="266.78" type="curve"/>
      <point x="371.6" y="267.58000000000004"/>
      <point x="571.04" y="282.38"/>
      <point x="634.4399999999998" y="286.52" type="curve"/>
      <point x="635.2599999999999" y="297.18"/>
      <point x="635.6399999999999" y="310.41999999999996"/>
      <point x="635.6399999999999" y="318.0" type="curve" smooth="yes"/>
      <point x="635.6399999999999" y="474.82"/>
      <point x="548.46" y="544.0"/>
      <point x="375.0" y="544.0" type="curve" smooth="yes"/>
      <point x="202.04" y="544.0"/>
      <point x="53.099999999999994" y="464.18"/>
      <point x="53.099999999999994" y="251.18" type="curve" smooth="yes"/>
      <point x="53.099999999999994" y="72.26"/>
      <point x="167.28" y="-10.0"/>
    </contour>
    <contour>
      <point x="126.0" y="312.82" type="curve"/>
      <point x="147.7" y="454.90000000000003"/>
      <point x="269.52" y="495.56"/>
      <point x="371.8" y="495.56" type="curve" smooth="yes"/>
      <point x="504.82000000000005" y="495.56"/>
      <point x="565.2199999999999" y="442.03999999999996"/>
      <point x="566.42" y="328.15999999999997" type="curve"/>
      <point x="525.68" y="324.62"/>
      <point x="341.71999999999997" y="313.21999999999997"/>
    </contour>
  </outline>
</glyph>
<glyph name="f" format="2">
  <advance width="457.71999999999997"/>
  <unicode hex="0066"/>
  <outline>
    <contour>
      <point x="140.04" y="0.0" type="line"/>
      <point x="207.73999999999998" y="0.0" type="line"/>
      <point x="207.73999999999998" y="436.88" type="line"/>
      <point x="445.70000000000005" y="436.88" type="line"/>
      <point x="445.70000000000005" y="486.7" type="line"/>
      <point x="207.79999999999998" y="486.7" type="line"/>
      <point x="207.79999999999998" y="504.71999999999997" type="line" smooth="yes"/>
      <point x="207.79999999999998" y="643.6800000000001"/>
      <point x="264.12" y="697.5600000000001"/>
      <point x="370.8" y="697.5600000000001" type="curve" smooth="yes"/>
      <point x="418.56" y="697.5600000000001"/>
      <point x="464.78" y="689.3599999999999"/>
      <point x="518.0400000000001" y="674.22" type="curve"/>
      <point x="527.9" y="723.48" type="line"/>
      <point x="463.74" y="742.8799999999999"/>
      <point x="413.64" y="750.5600000000001"/>
      <point x="356.96" y="750.5600000000001" type="curve" smooth="yes"/>
      <point x="220.44" y="750.5600000000001"/>
      <point x="140.04" y="680.0400000000001"/>
      <point x="140.04" y="505.67999999999995" type="curve" smooth="yes"/>
      <point x="140.04" y="486.7" type="line"/>
      <point x="30.099999999999994" y="479.24" type="line"/>
      <point x="30.099999999999994" y="436.88" type="line"/>
      <point x="140.04" y="436.88" type="line"/>
    </contour>
  </outline>
</glyph>
<glyph name="g" format="2">
  <advance width="707.24"/>
  <unicode hex="0067"/>
  <anchor x="353.47999999999996" y="534.0" name="top"/>
  <anchor x="342.23999999999995" y="-217.0" name="bottom"/>
  <outline>
    <contour>
      <point x="334.78" y="-220.0" type="curve" smooth="yes"/>
      <point x="567.76" y="-220.0"/>
      <point x="685.58" y="-154.14000000000001"/>
      <point x="685.58" y="-41.46" type="curve" smooth="yes"/>
      <point x="685.58" y="44.20000000000001"/>
      <point x="628.62" y="87.14"/>
      <point x="513.24" y="87.14" type="curve" smooth="yes"/>
      <point x="251.93999999999997" y="87.14" type="line" smooth="yes"/>
      <point x="168.85999999999999" y="87.14"/>
      <point x="127.57999999999998" y="112.38"/>
      <point x="127.57999999999998" y="158.5" type="curve" smooth="yes"/>
      <point x="127.57999999999998" y="194.98"/>
      <point x="154.2" y="221.54000000000002"/>
      <point x="199.04" y="241.9" type="curve"/>
      <point x="158.67999999999998" y="256.66" type="line"/>
      <point x="99.0" y="228.92"/>
      <point x="69.76" y="192.8"/>
      <point x="69.76" y="142.44" type="curve" smooth="yes"/>
      <point x="69.76" y="68.02"/>
      <point x="136.25999999999996" y="31.919999999999998"/>
      <point x="254.28" y="31.919999999999998" type="curve" smooth="yes"/>
      <point x="493.02000000000004" y="31.919999999999998" type="line" smooth="yes"/>
      <point x="577.14" y="31.919999999999998"/>
      <point x="619.3800000000001" y="7.14"/>
      <point x="619.3800000000001" y="-47.42" type="curve" smooth="yes"/>
      <point x="619.3800000000001" y="-125.91999999999999"/>
      <point x="528.18" y="-171.98000000000002"/>
      <point x="340.78" y="-171.98000000000002" type="curve" smooth="yes"/>
      <point x="171.14" y="-171.98000000000002"/>
      <point x="87.72" y="-136.39999999999998"/>
      <point x="87.72" y="-57.559999999999995" type="curve" smooth="yes"/>
      <point x="87.72" y="-12.540000000000003"/>
      <point x="112.67999999999999" y="26.959999999999994"/>
      <point x="196.18000000000004" y="47.519999999999996" type="curve"/>
      <point x="149.05999999999997" y="61.7" type="line"/>
      <point x="54.040000000000006" y="36.86"/>
      <point x="27.72" y="-14.14"/>
      <point x="27.72" y="-68.58" type="curve" smooth="yes"/>
      <point x="27.72" y="-172.9"/>
      <point x="130.4" y="-220.0"/>
    </contour>
    <contour>
      <point x="349.48" y="208.76" type="curve" smooth="yes"/>
      <point x="528.7799999999999" y="208.76"/>
      <point x="613.84" y="264.26000000000005"/>
      <point x="613.84" y="376.59999999999997" type="curve" smooth="yes"/>
      <point x="613.84" y="488.94"/>
      <point x="528.7799999999999" y="544.1999999999999"/>
      <point x="349.48" y="544.1999999999999" type="curve" smooth="yes"/>
      <point x="170.18" y="544.1999999999999"/>
      <point x="85.32" y="488.94"/>
      <point x="85.32" y="376.59999999999997" type="curve" smooth="yes"/>
      <point x="85.32" y="264.26000000000005"/>
      <point x="170.18" y="208.76"/>
    </contour>
    <contour>
      <point x="349.48" y="253.96" type="curve" smooth="yes"/>
      <point x="212.17999999999998" y="253.96"/>
      <point x="150.72" y="291.68"/>
      <point x="150.72" y="376.59999999999997" type="curve" smooth="yes"/>
      <point x="150.72" y="461.9"/>
      <point x="212.17999999999998" y="499.2"/>
      <point x="349.48" y="499.2" type="curve" smooth="yes"/>
      <point x="486.78" y="499.2"/>
      <point x="548.2399999999999" y="461.9"/>
      <point x="548.2399999999999" y="376.59999999999997" type="curve" smooth="yes"/>
      <point x="548.2399999999999" y="291.68"/>
      <point x="486.78" y="253.96"/>
    </contour>
    <contour>
      <point x="536.22" y="477.32" type="line"/>
      <point x="553.1200000000001" y="510.73999999999995"/>
      <point x="585.62" y="525.4599999999999"/>
      <point x="633.3599999999999" y="525.4599999999999" type="curve" smooth="yes"/>
      <point x="648.8599999999999" y="525.4599999999999"/>
      <point x="662.7800000000001" y="524.64"/>
      <point x="678.1999999999999" y="521.8" type="curve"/>
      <point x="684.6200000000001" y="572.6" type="line"/>
      <point x="664.66" y="575.44"/>
      <point x="652.2" y="576.46"/>
      <point x="635.56" y="576.46" type="curve" smooth="yes"/>
      <point x="568.16" y="576.46"/>
      <point x="522.1" y="552.5400000000001"/>
      <point x="504.48" y="504.4" type="curve"/>
    </contour>
  </outline>
</glyph>
<glyph name="h" format="2">
  <advance width="712.7399999999999"/>
  <unicode hex="0068"/>
  <anchor x="355.22" y="395.0" name="center"/>
  <anchor x="356.62" y="0.0" name="bottom"/>
  <anchor x="357.84000000000003" y="740.0" name="top"/>
  <outline>
    <contour>
      <point x="88.60000000000001" y="0.0" type="line"/>
      <point x="157.39999999999998" y="0.0" type="line"/>
      <point x="157.39999999999998" y="417.70000000000005" type="line"/>
      <point x="246.14" y="459.70000000000005"/>
      <point x="312.38000000000005" y="488.26"/>
      <point x="404.9599999999999" y="488.26" type="curve" smooth="yes"/>
      <point x="507.67999999999995" y="488.26"/>
      <point x="555.3399999999999" y="436.71999999999997"/>
      <point x="555.3399999999999" y="349.84" type="curve" smooth="yes"/>
      <point x="555.3399999999999" y="0.0" type="line"/>
      <point x="624.1399999999999" y="0.0" type="line"/>
      <point x="624.1399999999999" y="368.04" type="line" smooth="yes"/>
      <point x="624.1399999999999" y="479.14000000000004"/>
      <point x="557.9599999999998" y="544.0"/>
      <point x="428.92" y="544.0" type="curve" smooth="yes"/>
      <point x="325.06" y="544.0"/>
      <point x="251.07999999999998" y="512.5799999999999"/>
      <point x="157.39999999999998" y="466.99999999999994" type="curve"/>
      <point x="157.39999999999998" y="740.0" type="line"/>
      <point x="88.60000000000001" y="740.0" type="line"/>
    </contour>
  </outline>
</glyph>
<glyph name="i" format="2">
  <advance width="245.9"/>
  <unicode hex="0069"/>
  <anchor x="156.64000000000001" y="0.0" name="ogonek"/>
  <anchor x="122.97999999999999" y="0.0" name="bottom"/>
  <outline>
    <contour>
      <point x="122.97999999999999" y="655.54" type="curve" smooth="yes"/>
      <point x="157.34" y="655.54"/>
      <point x="166.94" y="663.88"/>
      <point x="166.94" y="691.14" type="curve" smooth="yes"/>
      <point x="166.94" y="718.52"/>
      <point x="157.22" y="726.8"/>
      <point x="122.97999999999999" y="726.8" type="curve" smooth="yes"/>
      <point x="88.67999999999999" y="726.8"/>
      <point x="78.96000000000001" y="718.52"/>
      <point x="78.96000000000001" y="691.14" type="curve" smooth="yes"/>
      <point x="78.96000000000001" y="663.8199999999999"/>
      <point x="89.47999999999999" y="655.54"/>
    </contour>
    <contour>
      <point x="88.7" y="0.0" type="line"/>
      <point x="157.2" y="0.0" type="line"/>
      <point x="157.2" y="534.0" type="line"/>
      <point x="88.7" y="534.0" type="line"/>
    </contour>
  </outline>
</glyph>
<glyph name="j" format="2">
  <advance width="250.7"/>
  <unicode hex="006A"/>
  <outline>
    <contour>
      <point x="162.56" y="534.0" type="line"/>
      <point x="94.06" y="534.0" type="line"/>
      <point x="94.06" y="24.36" type="line" smooth="yes"/>
      <point x="94.06" y="-64.96000000000001"/>
      <point x="69.89999999999999" y="-117.16000000000001"/>
      <point x="21.22" y="-142.76" type="curve" smooth="yes"/>
      <point x="13.0" y="-147.32"/>
      <point x="4.9" y="-150.9"/>
      <point x="-4.300000000000001" y="-153.56" type="curve"/>
      <point x="0.4399999999999995" y="-207.74" type="line"/>
      <point x="15.439999999999998" y="-205.29999999999998"/>
      <point x="33.74" y="-201.28"/>
      <point x="46.879999999999995" y="-196.48" type="curve" smooth="yes"/>
      <point x="125.52" y="-168.0"/>
      <point x="162.56" y="-96.72"/>
      <point x="162.56" y="22.419999999999998" type="curve" smooth="yes"/>
    </contour>
    <contour>
      <point x="127.21999999999998" y="655.54" type="curve" smooth="yes"/>
      <point x="161.34" y="655.54"/>
      <point x="171.18" y="663.88"/>
      <point x="171.18" y="691.14" type="curve" smooth="yes"/>
      <point x="171.18" y="718.52"/>
      <point x="161.22" y="726.8"/>
      <point x="127.21999999999998" y="726.8" type="curve" smooth="yes"/>
      <point x="92.92" y="726.8"/>
      <point x="83.19999999999999" y="718.52"/>
      <point x="83.19999999999999" y="691.14" type="curve" smooth="yes"/>
      <point x="83.19999999999999" y="663.8199999999999"/>
      <point x="93.72" y="655.54"/>
    </contour>
  </outline>
</glyph>
<glyph name="k" format="2">
  <advance width="653.5999999999999"/>
  <unicode hex="006B"/>
  <anchor x="121.99999999999999" y="740.0" name="top"/>
  <anchor x="337.69999999999993" y="0.0" name="bottom"/>
  <outline>
    <contour>
      <point x="619.6999999999999" y="-9.2" type="curve" smooth="yes"/>
      <point x="628.4" y="-9.2"/>
      <point x="636.3" y="-8.4"/>
      <point x="642.9000000000001" y="-7.199999999999999" type="curve"/>
      <point x="639.9999999999999" y="58.0" type="line"/>
      <point x="634.2" y="57.2"/>
      <point x="628.5999999999999" y="56.7"/>
      <point x="624.9" y="56.7" type="curve" smooth="yes"/>
      <point x="585.4999999999999" y="56.7"/>
      <point x="533.6" y="85.10000000000001"/>
      <point x="394.8999999999999" y="194.60000000000002" type="curve" smooth="yes"/>
      <point x="155.2" y="384.3" type="line"/>
      <point x="155.2" y="740.0" type="line"/>
      <point x="88.6" y="740.0" type="line"/>
      <point x="88.6" y="0.0" type="line"/>
      <point x="155.2" y="0.0" type="line"/>
      <point x="155.2" y="306.99999999999994" type="line"/>
      <point x="383.49999999999994" y="126.30000000000001" type="line" smooth="yes"/>
      <point x="542.4" y="0.4999999999999998"/>
      <point x="576.9" y="-9.2"/>
    </contour>
    <contour>
      <point x="286.09999999999997" y="253.9" type="line"/>
      <point x="389.59999999999997" y="315.90000000000003"/>
      <point x="540.1" y="406.2"/>
      <point x="601.2" y="533.2" type="curve"/>
      <point x="531.3000000000001" y="543.5" type="line"/>
      <point x="474.7" y="426.7"/>
      <point x="344.2" y="349.59999999999997"/>
      <point x="223.6" y="276.6" type="curve"/>
    </contour>
  </outline>
</glyph>
<glyph name="l" format="2">
  <advance width="318.02"/>
  <unicode hex="006C"/>
  <anchor x="159.3" y="395.0" name="center"/>
  <anchor x="122.97999999999999" y="740.0" name="top"/>
  <anchor x="251.4" y="740.0" name="topright"/>
  <anchor x="201.39999999999998" y="0.0" name="bottom"/>
  <outline>
    <contour>
      <point x="157.2" y="740.0" type="line"/>
      <point x="88.7" y="740.0" type="line"/>
      <point x="88.7" y="151.98000000000002" type="line" smooth="yes"/>
      <point x="88.7" y="20.8"/>
      <point x="145.42" y="-10.0"/>
      <point x="223.98" y="-10.0" type="curve" smooth="yes"/>
      <point x="259.46" y="-10.0"/>
      <point x="292.34000000000003" y="-2.8"/>
      <point x="319.28" y="7.1" type="curve"/>
      <point x="310.72" y="59.34" type="line"/>
      <point x="287.0799999999999" y="51.78000000000001"/>
      <point x="262.68" y="46.86000000000001"/>
      <point x="240.14" y="46.86000000000001" type="curve" smooth="yes"/>
      <point x="195.42" y="46.86000000000001"/>
      <point x="157.2" y="63.74000000000001"/>
      <point x="157.2" y="155.56" type="curve" smooth="yes"/>
    </contour>
  </outline>
</glyph>
<glyph name="m" format="2">
  <advance width="1082.16"/>
  <unicode hex="006D"/>
  <outline>
    <contour>
      <point x="88.7" y="0.0" type="line"/>
      <point x="157.26" y="0.0" type="line"/>
      <point x="157.26" y="414.82" type="line"/>
      <point x="230.76" y="457.24"/>
      <point x="290.38" y="485.06"/>
      <point x="373.1" y="485.06" type="curve" smooth="yes"/>
      <point x="490.52" y="485.06"/>
      <point x="508.26000000000005" y="399.92"/>
      <point x="508.26000000000005" y="347.14" type="curve" smooth="yes"/>
      <point x="508.26000000000005" y="0.0" type="line"/>
      <point x="576.8199999999999" y="0.0" type="line"/>
      <point x="576.8199999999999" y="352.38" type="line" smooth="yes"/>
      <point x="576.8199999999999" y="371.18000000000006"/>
      <point x="574.98" y="394.82000000000005"/>
      <point x="567.48" y="418.09999999999997" type="curve"/>
      <point x="618.48" y="447.44"/>
      <point x="692.38" y="488.0"/>
      <point x="788.18" y="488.0" type="curve" smooth="yes"/>
      <point x="907.6999999999999" y="488.0"/>
      <point x="925.0200000000001" y="402.44"/>
      <point x="925.0200000000001" y="349.38" type="curve" smooth="yes"/>
      <point x="925.0200000000001" y="0.0" type="line"/>
      <point x="993.5800000000002" y="0.0" type="line"/>
      <point x="993.5800000000002" y="367.8" type="line" smooth="yes"/>
      <point x="993.5800000000002" y="441.34"/>
      <point x="960.4" y="544.0"/>
      <point x="815.16" y="544.0" type="curve" smooth="yes"/>
      <point x="700.6999999999999" y="544.0"/>
      <point x="617.42" y="499.20000000000005"/>
      <point x="552.6600000000001" y="461.04" type="curve"/>
      <point x="529.24" y="506.65999999999997"/>
      <point x="484.7" y="541.2"/>
      <point x="398.53999999999996" y="541.2" type="curve" smooth="yes"/>
      <point x="302.59999999999997" y="541.2"/>
      <point x="229.01999999999998" y="507.84"/>
      <point x="151.9" y="463.35999999999996" type="curve"/>
      <point x="151.9" y="534.0" type="line"/>
      <point x="88.7" y="534.0" type="line"/>
    </contour>
  </outline>
</glyph>
<glyph name="n" format="2">
  <advance width="712.6199999999999"/>
  <unicode hex="006E"/>
  <anchor x="363.09999999999997" y="534.0" name="top"/>
  <anchor x="364.7" y="0.0" name="bottom"/>
  <outline>
    <contour>
      <point x="88.7" y="0.0" type="line"/>
      <point x="157.26" y="0.0" type="line"/>
      <point x="157.26" y="417.78000000000003" type="line"/>
      <point x="246.01999999999998" y="459.84000000000003"/>
      <point x="312.34" y="488.56"/>
      <point x="405.06" y="488.56" type="curve" smooth="yes"/>
      <point x="507.7799999999999" y="488.56"/>
      <point x="555.48" y="436.88"/>
      <point x="555.48" y="349.94" type="curve" smooth="yes"/>
      <point x="555.48" y="0.0" type="line"/>
      <point x="624.04" y="0.0" type="line"/>
      <point x="624.04" y="368.35999999999996" type="line" smooth="yes"/>
      <point x="624.04" y="478.43999999999994"/>
      <point x="558.3799999999999" y="544.0"/>
      <point x="428.82" y="544.0" type="curve" smooth="yes"/>
      <point x="323.44" y="544.0"/>
      <point x="248.06" y="511.94000000000005"/>
      <point x="151.9" y="464.88" type="curve"/>
      <point x="151.9" y="534.0" type="line"/>
      <point x="88.7" y="534.0" type="line"/>
    </contour>
  </outline>
</glyph>
<glyph name="o" format="2">
  <advance width="722.5599999999998"/>
  <unicode hex="006F"/>
  <anchor x="436.31999999999994" y="0.8800000000000002" name="ogonek"/>
  <anchor x="361.2799999999999" y="534.0" name="top"/>
  <anchor x="495.46" y="529.6" name="topright"/>
  <anchor x="361.28" y="0.0" name="bottom"/>
  <outline>
    <contour>
      <point x="53.199999999999996" y="268.46" type="curve" smooth="yes"/>
      <point x="53.199999999999996" y="77.06"/>
      <point x="145.14" y="-10.0"/>
      <point x="361.28" y="-10.0" type="curve" smooth="yes"/>
      <point x="577.42" y="-10.0"/>
      <point x="669.36" y="77.06"/>
      <point x="669.36" y="268.46" type="curve" smooth="yes"/>
      <point x="669.36" y="450.76"/>
      <point x="589.32" y="544.0"/>
      <point x="361.28" y="544.0" type="curve" smooth="yes"/>
      <point x="132.95999999999998" y="544.0"/>
      <point x="53.199999999999996" y="450.76"/>
    </contour>
    <contour>
      <point x="122.8" y="268.46" type="curve" smooth="yes"/>
      <point x="122.8" y="418.28"/>
      <point x="182.09999999999997" y="493.2"/>
      <point x="361.2799999999999" y="493.2" type="curve" smooth="yes"/>
      <point x="540.4" y="493.2"/>
      <point x="599.4799999999999" y="418.28"/>
      <point x="599.4799999999999" y="268.46" type="curve" smooth="yes"/>
      <point x="599.4799999999999" y="111.92"/>
      <point x="530.18" y="40.86"/>
      <point x="361.2799999999999" y="40.86" type="curve" smooth="yes"/>
      <point x="192.32" y="40.86"/>
      <point x="122.8" y="111.92"/>
    </contour>
  </outline>
</glyph>
<glyph name="p" format="2">
  <advance width="698.62"/>
  <unicode hex="0070"/>
  <outline>
    <contour>
      <point x="88.7" y="-210.0" type="line"/>
      <point x="157.39999999999998" y="-210.0" type="line"/>
      <point x="157.39999999999998" y="7.76" type="line"/>
      <point x="222.73999999999998" y="-4.220000000000001"/>
      <point x="277.41999999999996" y="-10.0"/>
      <point x="328.0799999999999" y="-10.0" type="curve" smooth="yes"/>
      <point x="542.28" y="-10.0"/>
      <point x="645.56" y="83.02"/>
      <point x="645.56" y="282.06" type="curve" smooth="yes"/>
      <point x="645.56" y="447.34"/>
      <point x="558.64" y="544.0"/>
      <point x="412.21999999999997" y="544.0" type="curve" smooth="yes"/>
      <point x="327.36" y="544.0"/>
      <point x="249.24" y="516.86"/>
      <point x="152.61999999999998" y="452.32000000000005" type="curve"/>
      <point x="151.9" y="536.4" type="line"/>
      <point x="88.7" y="536.4" type="line"/>
    </contour>
    <contour>
      <point x="325.67999999999995" y="39.06" type="curve" smooth="yes"/>
      <point x="279.02000000000004" y="39.06"/>
      <point x="223.20000000000002" y="45.4"/>
      <point x="157.26" y="59.120000000000005" type="curve"/>
      <point x="157.26" y="405.12" type="line"/>
      <point x="247.79999999999998" y="465.03999999999996"/>
      <point x="313.94" y="488.84"/>
      <point x="388.93999999999994" y="488.84" type="curve" smooth="yes"/>
      <point x="505.37999999999994" y="488.84"/>
      <point x="575.78" y="412.44"/>
      <point x="575.78" y="278.36" type="curve" smooth="yes"/>
      <point x="575.78" y="112.35999999999999"/>
      <point x="494.06" y="39.06"/>
    </contour>
  </outline>
</glyph>
<glyph name="q" format="2">
  <advance width="698.6800000000001"/>
  <unicode hex="0071"/>
  <outline>
    <contour>
      <point x="609.98" y="517.4" type="line"/>
      <point x="516.4399999999999" y="535.5400000000001"/>
      <point x="441.2" y="544.0"/>
      <point x="373.24" y="544.0" type="curve" smooth="yes"/>
      <point x="156.82" y="544.0"/>
      <point x="53.059999999999995" y="452.06"/>
      <point x="53.059999999999995" y="253.14" type="curve" smooth="yes"/>
      <point x="53.059999999999995" y="86.6"/>
      <point x="140.04" y="-10.0"/>
      <point x="286.88" y="-10.0" type="curve" smooth="yes"/>
      <point x="371.06" y="-10.0"/>
      <point x="447.36" y="16.479999999999997"/>
      <point x="541.48" y="79.53999999999999" type="curve"/>
      <point x="541.48" y="-210.0" type="line"/>
      <point x="609.98" y="-210.0" type="line"/>
    </contour>
    <contour>
      <point x="541.42" y="474.94" type="curve"/>
      <point x="541.42" y="129.17999999999998" type="line"/>
      <point x="450.87999999999994" y="69.19999999999999"/>
      <point x="384.74" y="45.28"/>
      <point x="309.68" y="45.28" type="curve" smooth="yes"/>
      <point x="193.54" y="45.28"/>
      <point x="122.89999999999999" y="122.03999999999999"/>
      <point x="122.89999999999999" y="254.55999999999997" type="curve" smooth="yes"/>
      <point x="122.89999999999999" y="421.64"/>
      <point x="204.62" y="495.06000000000006"/>
      <point x="373.06" y="495.06000000000006" type="curve" smooth="yes"/>
      <point x="419.49999999999994" y="495.06000000000006"/>
      <point x="475.47999999999996" y="488.78"/>
    </contour>
  </outline>
</glyph>
<glyph name="r" format="2">
  <advance width="499.41999999999996"/>
  <unicode hex="0072"/>
  <anchor x="280.11999999999995" y="534.0" name="top"/>
  <anchor x="122.92" y="0.0" name="bottom"/>
  <outline>
    <contour>
      <point x="151.84" y="534.0" type="line"/>
      <point x="88.7" y="534.0" type="line"/>
      <point x="88.7" y="0.0" type="line"/>
      <point x="157.14000000000001" y="0.0" type="line"/>
      <point x="157.14000000000001" y="389.32" type="line"/>
      <point x="237.20000000000002" y="459.5"/>
      <point x="310.32" y="485.34000000000003"/>
      <point x="379.08" y="485.34000000000003" type="curve" smooth="yes"/>
      <point x="411.71999999999997" y="485.34000000000003"/>
      <point x="450.0" y="479.53999999999996"/>
      <point x="481.76" y="471.47999999999996" type="curve"/>
      <point x="492.65999999999997" y="529.88" type="line"/>
      <point x="465.62" y="537.72"/>
      <point x="425.84" y="544.0"/>
      <point x="385.68" y="544.0" type="curve" smooth="yes"/>
      <point x="307.47999999999996" y="544.0"/>
      <point x="238.35999999999999" y="515.92"/>
      <point x="151.84" y="443.16" type="curve"/>
    </contour>
  </outline>
</glyph>
<glyph name="s" format="2">
  <advance width="601.0999999999999"/>
  <unicode hex="0073"/>
  <anchor x="297.90000000000003" y="534.0" name="top"/>
  <anchor x="302.09999999999997" y="0.0" name="bottom"/>
  <outline>
    <contour>
      <point x="37.99999999999999" y="29.6" type="line"/>
      <point x="98.19999999999999" y="6.799999999999998"/>
      <point x="201.59999999999997" y="-10.0"/>
      <point x="294.8" y="-10.0" type="curve" smooth="yes"/>
      <point x="456.4" y="-10.0"/>
      <point x="562.4000000000001" y="34.1"/>
      <point x="562.4000000000001" y="142.5" type="curve" smooth="yes"/>
      <point x="562.4000000000001" y="245.6"/>
      <point x="459.5" y="273.4"/>
      <point x="331.5999999999999" y="295.09999999999997" type="curve" smooth="yes"/>
      <point x="222.79999999999998" y="312.79999999999995"/>
      <point x="125.4" y="327.29999999999995"/>
      <point x="125.4" y="400.8" type="curve" smooth="yes"/>
      <point x="125.4" y="460.7"/>
      <point x="189.9" y="493.2"/>
      <point x="316.7" y="493.2" type="curve" smooth="yes"/>
      <point x="391.1" y="493.2"/>
      <point x="470.0" y="476.4"/>
      <point x="512.4" y="464.0" type="curve"/>
      <point x="522.9" y="514.0" type="line"/>
      <point x="478.59999999999997" y="527.4"/>
      <point x="399.69999999999993" y="544.0"/>
      <point x="317.2999999999999" y="544.0" type="curve" smooth="yes"/>
      <point x="144.6" y="544.0"/>
      <point x="60.599999999999994" y="491.2"/>
      <point x="60.599999999999994" y="394.8" type="curve" smooth="yes"/>
      <point x="60.599999999999994" y="296.0"/>
      <point x="160.5" y="265.09999999999997"/>
      <point x="283.79999999999995" y="245.3" type="curve" smooth="yes"/>
      <point x="404.19999999999993" y="225.0"/>
      <point x="496.2" y="206.39999999999998"/>
      <point x="496.2" y="137.5" type="curve" smooth="yes"/>
      <point x="496.2" y="73.3"/>
      <point x="426.69999999999993" y="40.0"/>
      <point x="297.59999999999997" y="40.0" type="curve" smooth="yes"/>
      <point x="211.99999999999997" y="40.0"/>
      <point x="104.6" y="58.199999999999996"/>
      <point x="48.8" y="79.39999999999999" type="curve"/>
    </contour>
  </outline>
</glyph>
<glyph name="t" format="2">
  <advance width="509.41999999999996"/>
  <unicode hex="0074"/>
  <anchor x="252.96000000000004" y="275.0" name="center"/>
  <anchor x="179.18" y="664.3399999999999" name="top"/>
  <anchor x="391.94" y="779.3" name="topright"/>
  <anchor x="299.24" y="0.0" name="bottom"/>
  <outline>
    <contour>
      <point x="312.96" y="-10.0" type="curve" smooth="yes"/>
      <point x="364.56" y="-10.0"/>
      <point x="426.35999999999996" y="-0.24000000000000052"/>
      <point x="493.7199999999999" y="20.619999999999997" type="curve"/>
      <point x="483.08" y="73.10000000000001" type="line"/>
      <point x="434.47999999999996" y="57.5"/>
      <point x="385.4" y="46.7"/>
      <point x="333.56" y="46.7" type="curve" smooth="yes"/>
      <point x="246.26" y="46.7"/>
      <point x="208.8" y="86.28"/>
      <point x="208.8" y="172.94" type="curve" smooth="yes"/>
      <point x="208.8" y="484.18" type="line"/>
      <point x="470.81999999999994" y="484.18" type="line"/>
      <point x="470.81999999999994" y="534.0" type="line"/>
      <point x="208.8" y="534.0" type="line"/>
      <point x="208.8" y="664.3399999999999" type="line"/>
      <point x="149.31999999999996" y="664.3399999999999" type="line"/>
      <point x="140.3" y="534.0" type="line"/>
      <point x="9.5" y="526.6" type="line"/>
      <point x="9.5" y="484.24" type="line"/>
      <point x="140.3" y="484.24" type="line"/>
      <point x="140.3" y="169.66" type="line" smooth="yes"/>
      <point x="140.3" y="43.24"/>
      <point x="201.6" y="-10.0"/>
    </contour>
  </outline>
</glyph>
<glyph name="u" format="2">
  <advance width="705.98"/>
  <unicode hex="0075"/>
  <anchor x="696.8199999999999" y="5.279999999999999" name="ogonek"/>
  <anchor x="345.88" y="534.0" name="top"/>
  <anchor x="599.78" y="534.0" name="topright"/>
  <anchor x="353.28" y="0.0" name="bottom"/>
  <outline>
    <contour>
      <point x="275.38" y="-10.0" type="curve" smooth="yes"/>
      <point x="376.64" y="-10.0"/>
      <point x="449.66" y="22.48"/>
      <point x="539.7199999999999" y="69.42" type="curve"/>
      <point x="551.4999999999999" y="13.56"/>
      <point x="588.7" y="-10.0"/>
      <point x="630.96" y="-10.0" type="curve" smooth="yes"/>
      <point x="653.62" y="-10.0"/>
      <point x="677.4599999999999" y="-4.18"/>
      <point x="696.8199999999999" y="5.279999999999999" type="curve"/>
      <point x="687.76" y="50.379999999999995" type="line"/>
      <point x="677.76" y="45.76"/>
      <point x="666.9799999999999" y="43.4"/>
      <point x="656.6" y="43.4" type="curve" smooth="yes"/>
      <point x="626.18" y="43.4"/>
      <point x="599.78" y="63.2"/>
      <point x="599.78" y="129.16" type="curve" smooth="yes"/>
      <point x="599.78" y="534.0" type="line"/>
      <point x="531.28" y="534.0" type="line"/>
      <point x="531.28" y="114.82" type="line"/>
      <point x="448.53999999999996" y="73.4"/>
      <point x="385.94" y="44.879999999999995"/>
      <point x="299.02" y="44.879999999999995" type="curve" smooth="yes"/>
      <point x="204.98" y="44.879999999999995"/>
      <point x="157.14000000000001" y="93.75999999999999"/>
      <point x="157.14000000000001" y="170.9" type="curve" smooth="yes"/>
      <point x="157.14000000000001" y="534.0" type="line"/>
      <point x="88.58" y="534.0" type="line"/>
      <point x="88.58" y="155.94" type="line" smooth="yes"/>
      <point x="88.58" y="52.49999999999999"/>
      <point x="155.48" y="-10.0"/>
    </contour>
  </outline>
</glyph>
<glyph name="v" format="2">
  <advance width="631.62"/>
  <unicode hex="0076"/>
  <outline>
    <contour>
      <point x="282.41999999999996" y="0.0" type="line"/>
      <point x="348.34" y="0.0" type="line"/>
      <point x="619.88" y="530.16" type="line"/>
      <point x="548.52" y="537.84" type="line"/>
      <point x="318.03999999999996" y="65.36" type="line"/>
      <point x="83.3" y="537.84" type="line"/>
      <point x="11.64" y="530.16" type="line"/>
    </contour>
  </outline>
</glyph>
<glyph name="w" format="2">
  <advance width="932.6799999999998"/>
  <unicode hex="0077"/>
  <anchor x="466.15999999999997" y="534.0" name="top"/>
  <anchor x="466.15999999999997" y="0.0" name="bottom"/>
  <outline>
    <contour>
      <point x="215.95999999999998" y="0.0" type="line"/>
      <point x="287.42" y="0.0" type="line"/>
      <point x="464.74" y="458.54" type="line"/>
      <point x="644.92" y="0.0" type="line"/>
      <point x="714.08" y="0.0" type="line"/>
      <point x="919.3199999999999" y="530.38" type="line"/>
      <point x="853.4599999999999" y="537.24" type="line"/>
      <point x="681.08" y="70.89999999999999" type="line"/>
      <point x="501.8399999999999" y="534.0" type="line"/>
      <point x="430.3399999999999" y="534.0" type="line"/>
      <point x="254.19999999999996" y="70.32" type="line"/>
      <point x="80.68" y="537.24" type="line"/>
      <point x="12.86" y="530.38" type="line"/>
    </contour>
  </outline>
</glyph>
<glyph name="x" format="2">
  <advance width="660.0"/>
  <unicode hex="0078"/>
  <outline>
    <contour>
      <point x="15.0" y="3.1999999999999993" type="line"/>
      <point x="91.59999999999998" y="-6.7" type="line"/>
      <point x="329.59999999999997" y="232.3" type="line"/>
      <point x="568.9999999999999" y="-6.7" type="line"/>
      <point x="645.3" y="3.1999999999999993" type="line"/>
      <point x="372.59999999999997" y="275.90000000000003" type="line"/>
      <point x="628.9000000000001" y="529.2" type="line"/>
      <point x="557.6" y="539.3" type="line"/>
      <point x="333.29999999999995" y="315.4" type="line"/>
      <point x="109.7" y="539.3" type="line"/>
      <point x="32.99999999999999" y="528.9000000000001" type="line"/>
      <point x="290.40000000000003" y="272.90000000000003" type="line"/>
    </contour>
  </outline>
</glyph>
<glyph name="y" format="2">
  <advance width="633.22"/>
  <unicode hex="0079"/>
  <anchor x="314.03999999999996" y="534.0" name="top"/>
  <anchor x="492.9" y="0.0" name="bottom"/>
  <outline>
    <contour>
      <point x="217.98" y="-206.86" type="line"/>
      <point x="284.56" y="-213.72" type="line"/>
      <point x="621.16" y="533.1" type="line"/>
      <point x="552.7199999999999" y="539.66" type="line"/>
      <point x="339.42" y="57.440000000000005" type="line"/>
      <point x="85.52" y="540.08" type="line"/>
      <point x="11.879999999999997" y="532.4" type="line"/>
      <point x="298.36" y="0.0" type="line"/>
      <point x="310.17999999999995" y="0.0" type="line"/>
    </contour>
  </outline>
</glyph>
<glyph name="z" format="2">
  <advance width="625.7199999999999"/>
  <unicode hex="007A"/>
  <anchor x="320.64" y="534.0" name="top"/>
  <outline>
    <contour>
      <point x="35.08" y="0.0" type="line"/>
      <point x="596.2399999999999" y="0.0" type="line"/>
      <point x="596.2399999999999" y="51.82" type="line"/>
      <point x="128.92" y="51.82" type="line"/>
      <point x="566.7799999999999" y="488.4" type="line"/>
      <point x="566.7799999999999" y="534.0" type="line"/>
      <point x="63.15999999999999" y="534.0" type="line"/>
      <point x="63.15999999999999" y="482.38" type="line"/>
      <point x="474.91999999999996" y="482.38" type="line"/>
      <point x="35.08" y="45.8" type="line"/>
    </contour>
  </outline>
</glyph>
<glyph name="braceleft" format="2">
  <advance width="391.85999999999996"/>
  <unicode hex="007B"/>
  <outline>
    <contour>
      <point x="138.94" y="-62.82000000000001" type="curve" smooth="yes"/>
      <point x="138.94" y="-145.54"/>
      <point x="181.66" y="-210.06"/>
      <point x="292.79999999999995" y="-210.06" type="curve" smooth="yes"/>
      <point x="347.74" y="-210.06" type="line"/>
      <point x="347.74" y="-163.06" type="line"/>
      <point x="307.20000000000005" y="-163.06" type="line" smooth="yes"/>
      <point x="223.2" y="-163.06"/>
      <point x="200.42" y="-112.13999999999999"/>
      <point x="200.42" y="-56.82000000000001" type="curve" smooth="yes"/>
      <point x="200.42" y="12.420000000000002"/>
      <point x="234.15999999999997" y="77.46"/>
      <point x="234.15999999999997" y="149.14" type="curve" smooth="yes"/>
      <point x="234.15999999999997" y="190.18"/>
      <point x="224.48" y="248.18"/>
      <point x="170.18" y="265.0" type="curve"/>
      <point x="223.92" y="285.36"/>
      <point x="234.15999999999997" y="338.64"/>
      <point x="234.15999999999997" y="379.68" type="curve" smooth="yes"/>
      <point x="234.15999999999997" y="451.92"/>
      <point x="200.42" y="514.1600000000001"/>
      <point x="200.42" y="585.64" type="curve" smooth="yes"/>
      <point x="200.42" y="640.96"/>
      <point x="223.2" y="693.0"/>
      <point x="307.20000000000005" y="693.0" type="curve" smooth="yes"/>
      <point x="347.74" y="693.0" type="line"/>
      <point x="347.74" y="740.0" type="line"/>
      <point x="292.79999999999995" y="740.0" type="line" smooth="yes"/>
      <point x="181.66" y="740.0"/>
      <point x="138.94" y="674.36"/>
      <point x="138.94" y="591.64" type="curve" smooth="yes"/>
      <point x="138.94" y="508.8"/>
      <point x="173.78" y="447.76"/>
      <point x="173.78" y="378.88" type="curve" smooth="yes"/>
      <point x="173.78" y="338.4"/>
      <point x="161.55999999999997" y="288.6"/>
      <point x="116.83999999999999" y="288.6" type="curve" smooth="yes"/>
      <point x="96.55999999999999" y="288.6" type="line"/>
      <point x="96.55999999999999" y="241.33999999999997" type="line"/>
      <point x="116.83999999999999" y="241.33999999999997" type="line" smooth="yes"/>
      <point x="161.55999999999997" y="241.33999999999997"/>
      <point x="173.78" y="190.66"/>
      <point x="173.78" y="149.94" type="curve" smooth="yes"/>
      <point x="173.78" y="81.46000000000001"/>
      <point x="138.94" y="17.220000000000002"/>
    </contour>
  </outline>
</glyph>
<glyph name="bar" format="2">
  <advance width="256.76000000000005"/>
  <unicode hex="007C"/>
  <outline>
    <contour>
      <point x="156.98000000000002" y="790.0600000000001" type="line"/>
      <point x="99.78" y="790.0600000000001" type="line"/>
      <point x="99.78" y="-210.0" type="line"/>
      <point x="156.98000000000002" y="-210.0" type="line"/>
    </contour>
  </outline>
</glyph>
<glyph name="braceright" format="2">
  <advance width="391.85999999999996"/>
  <unicode hex="007D"/>
  <outline>
    <contour>
      <point x="44.120000000000005" y="-163.06" type="line"/>
      <point x="44.120000000000005" y="-210.06" type="line"/>
      <point x="99.29999999999998" y="-210.06" type="line" smooth="yes"/>
      <point x="210.44" y="-210.06"/>
      <point x="253.16" y="-145.54"/>
      <point x="253.16" y="-62.82000000000001" type="curve" smooth="yes"/>
      <point x="253.16" y="17.220000000000002"/>
      <point x="218.32000000000002" y="81.46000000000001"/>
      <point x="218.32000000000002" y="149.94" type="curve" smooth="yes"/>
      <point x="218.32000000000002" y="190.66"/>
      <point x="230.54" y="241.33999999999997"/>
      <point x="275.26" y="241.33999999999997" type="curve" smooth="yes"/>
      <point x="295.29999999999995" y="241.33999999999997" type="line"/>
      <point x="295.29999999999995" y="288.6" type="line"/>
      <point x="275.26" y="288.6" type="line" smooth="yes"/>
      <point x="230.3" y="288.6"/>
      <point x="218.32000000000002" y="338.4"/>
      <point x="218.32000000000002" y="378.88" type="curve" smooth="yes"/>
      <point x="218.32000000000002" y="447.76"/>
      <point x="253.16" y="508.8"/>
      <point x="253.16" y="591.64" type="curve" smooth="yes"/>
      <point x="253.16" y="674.36"/>
      <point x="210.44" y="740.0"/>
      <point x="99.29999999999998" y="740.0" type="curve" smooth="yes"/>
      <point x="44.120000000000005" y="740.0" type="line"/>
      <point x="44.120000000000005" y="693.0" type="line"/>
      <point x="83.88" y="693.0" type="line" smooth="yes"/>
      <point x="167.64000000000001" y="693.0"/>
      <point x="190.66" y="640.96"/>
      <point x="190.66" y="585.64" type="curve" smooth="yes"/>
      <point x="190.66" y="514.1600000000001"/>
      <point x="156.92000000000002" y="451.92"/>
      <point x="156.92000000000002" y="379.68" type="curve" smooth="yes"/>
      <point x="156.92000000000002" y="338.64"/>
      <point x="166.92000000000002" y="285.36"/>
      <point x="220.9" y="265.0" type="curve"/>
      <point x="166.35999999999999" y="248.18"/>
      <point x="156.92000000000002" y="190.18"/>
      <point x="156.92000000000002" y="149.14" type="curve" smooth="yes"/>
      <point x="156.92000000000002" y="77.46"/>
      <point x="190.66" y="12.420000000000002"/>
      <point x="190.66" y="-56.82000000000001" type="curve" smooth="yes"/>
      <point x="190.66" y="-112.13999999999999"/>
      <point x="167.64000000000001" y="-163.06"/>
      <point x="83.88" y="-163.06" type="curve" smooth="yes"/>
    </contour>
  </outline>
</glyph>
<glyph name="asciitilde" format="2">
  <advance width="537.08"/>
  <unicode hex="007E"/>
  <outline>
    <contour>
      <point x="470.59999999999997" y="256.46" type="curve"/>
      <point x="470.59999999999997" y="314.09999999999997" type="line"/>
      <point x="445.92" y="291.16"/>
      <point x="419.26" y="271.09999999999997"/>
      <point x="380.82000000000005" y="271.09999999999997" type="curve" smooth="yes"/>
      <point x="292.56" y="271.09999999999997"/>
      <point x="242.62" y="372.86"/>
      <point x="155.76" y="372.86" type="curve" smooth="yes"/>
      <point x="115.56" y="372.86"/>
      <point x="86.58000000000001" y="351.97999999999996"/>
      <point x="66.86" y="334.41999999999996" type="curve"/>
      <point x="66.86" y="276.22" type="line"/>
      <point x="89.16" y="296.18"/>
      <point x="115.05999999999999" y="318.1"/>
      <point x="155.1" y="318.1" type="curve" smooth="yes"/>
      <point x="236.38" y="318.1"/>
      <point x="288.24" y="216.2"/>
      <point x="381.84" y="216.2" type="curve" smooth="yes"/>
      <point x="421.0" y="216.2"/>
      <point x="448.21999999999997" y="235.36"/>
    </contour>
  </outline>
</glyph>
<glyph name="exclamdown" format="2">
  <advance width="282.11999999999995"/>
  <unicode hex="00A1"/>
  <outline>
    <contour>
      <point x="171.73999999999998" y="270.86" type="line"/>
      <point x="111.47999999999999" y="270.86" type="line"/>
      <point x="107.72" y="-206.14" type="line"/>
      <point x="175.32" y="-206.14" type="line"/>
    </contour>
    <contour>
      <point x="182.33999999999997" y="499.42" type="curve" smooth="yes"/>
      <point x="182.33999999999997" y="527.4"/>
      <point x="173.79999999999998" y="536.0"/>
      <point x="141.05999999999997" y="536.0" type="curve" smooth="yes"/>
      <point x="109.12" y="536.0"/>
      <point x="99.77999999999999" y="527.4"/>
      <point x="99.77999999999999" y="499.42" type="curve" smooth="yes"/>
      <point x="99.77999999999999" y="471.23999999999995"/>
      <point x="108.32" y="462.64"/>
      <point x="141.05999999999997" y="462.64" type="curve" smooth="yes"/>
      <point x="173.79999999999998" y="462.64"/>
      <point x="182.33999999999997" y="471.23999999999995"/>
    </contour>
  </outline>
</glyph>
<glyph name="cent" format="2">
  <advance width="811.24"/>
  <unicode hex="00A2"/>
  <outline>
    <contour>
      <point x="420.67999999999995" y="-10.059999999999999" type="curve" smooth="yes"/>
      <point x="506.47999999999996" y="-10.059999999999999"/>
      <point x="609.06" y="1.1"/>
      <point x="678.38" y="18.299999999999997" type="curve"/>
      <point x="668.9" y="69.2" type="line"/>
      <point x="602.7" y="54.38"/>
      <point x="509.38000000000005" y="44.160000000000004"/>
      <point x="435.34000000000003" y="44.160000000000004" type="curve" smooth="yes"/>
      <point x="284.12" y="44.160000000000004"/>
      <point x="198.72" y="117.3"/>
      <point x="198.72" y="255.92000000000002" type="curve" smooth="yes"/>
      <point x="198.72" y="406.96"/>
      <point x="293.22" y="489.08"/>
      <point x="452.40000000000003" y="489.08" type="curve" smooth="yes"/>
      <point x="525.14" y="489.08"/>
      <point x="578.9999999999999" y="482.2"/>
      <point x="657.0999999999999" y="463.24" type="curve"/>
      <point x="666.46" y="516.38" type="line"/>
      <point x="593.7799999999999" y="535.44"/>
      <point x="529.28" y="544.12"/>
      <point x="447.82" y="544.12" type="curve" smooth="yes"/>
      <point x="241.06" y="544.12"/>
      <point x="130.95999999999998" y="432.7"/>
      <point x="130.95999999999998" y="254.71999999999997" type="curve" smooth="yes"/>
      <point x="130.95999999999998" y="82.02"/>
      <point x="232.67999999999998" y="-10.059999999999999"/>
    </contour>
    <contour>
      <point x="393.0799999999999" y="-105.06" type="line"/>
      <point x="446.87999999999994" y="-105.06" type="line"/>
      <point x="446.87999999999994" y="-1.4799999999999995" type="line"/>
      <point x="393.0799999999999" y="0.0600000000000005" type="line"/>
    </contour>
    <contour>
      <point x="393.0799999999999" y="532.3199999999999" type="line"/>
      <point x="446.87999999999994" y="536.3599999999999" type="line"/>
      <point x="446.87999999999994" y="638.9399999999999" type="line"/>
      <point x="393.0799999999999" y="638.9399999999999" type="line"/>
    </contour>
  </outline>
</glyph>
<glyph name="sterling" format="2">
  <advance width="811.48"/>
  <unicode hex="00A3"/>
  <outline>
    <contour>
      <point x="92.25999999999999" y="0.0" type="line"/>
      <point x="748.8199999999998" y="0.0" type="line"/>
      <point x="748.8199999999998" y="54.8" type="line"/>
      <point x="176.7" y="54.8" type="line"/>
      <point x="263.48" y="125.3"/>
      <point x="300.98" y="174.14"/>
      <point x="300.98" y="242.12" type="curve" smooth="yes"/>
      <point x="300.98" y="340.66"/>
      <point x="215.53999999999996" y="390.3"/>
      <point x="215.53999999999996" y="490.92" type="curve" smooth="yes"/>
      <point x="215.53999999999996" y="598.3"/>
      <point x="306.75999999999993" y="653.0"/>
      <point x="453.58" y="653.0" type="curve" smooth="yes"/>
      <point x="525.96" y="653.0"/>
      <point x="637.6" y="639.88"/>
      <point x="710.8399999999999" y="622.12" type="curve"/>
      <point x="721.1999999999999" y="675.0" type="line"/>
      <point x="656.28" y="694.4599999999999"/>
      <point x="532.36" y="710.0"/>
      <point x="447.97999999999996" y="710.0" type="curve" smooth="yes"/>
      <point x="253.73999999999995" y="710.0"/>
      <point x="145.54" y="631.46"/>
      <point x="145.54" y="502.9" type="curve" smooth="yes"/>
      <point x="145.54" y="386.76000000000005"/>
      <point x="234.57999999999998" y="336.5"/>
      <point x="234.57999999999998" y="240.48000000000002" type="curve" smooth="yes"/>
      <point x="234.57999999999998" y="175.34"/>
      <point x="197.7" y="133.48"/>
      <point x="92.25999999999999" y="47.8" type="curve"/>
    </contour>
    <contour>
      <point x="85.69999999999999" y="343.40000000000003" type="line"/>
      <point x="607.0000000000001" y="343.40000000000003" type="line"/>
      <point x="607.0000000000001" y="392.6" type="line"/>
      <point x="85.69999999999999" y="392.6" type="line"/>
    </contour>
  </outline>
</glyph>
<glyph name="currency" format="2">
  <advance width="466.4"/>
  <unicode hex="00A4"/>
  <outline>
    <contour>
      <point x="47.62" y="445.08" type="line"/>
      <point x="117.58" y="374.12" type="line"/>
      <point x="101.28" y="352.26"/>
      <point x="91.05999999999999" y="324.65999999999997"/>
      <point x="91.05999999999999" y="293.58" type="curve" smooth="yes"/>
      <point x="91.05999999999999" y="262.3"/>
      <point x="101.28" y="234.44"/>
      <point x="118.58" y="212.52" type="curve"/>
      <point x="47.62" y="141.56" type="line"/>
      <point x="81.84" y="107.34" type="line"/>
      <point x="156.01999999999998" y="181.38" type="line"/>
      <point x="176.78" y="164.98"/>
      <point x="203.4" y="156.17999999999998"/>
      <point x="232.56" y="156.17999999999998" type="curve" smooth="yes"/>
      <point x="261.88" y="156.17999999999998"/>
      <point x="289.26" y="165.12"/>
      <point x="310.24" y="181.45999999999998" type="curve"/>
      <point x="384.56" y="107.34" type="line"/>
      <point x="418.78" y="141.56" type="line"/>
      <point x="347.36" y="212.92000000000002" type="line"/>
      <point x="364.44" y="234.82"/>
      <point x="374.72" y="262.46000000000004"/>
      <point x="374.72" y="293.58" type="curve" smooth="yes"/>
      <point x="374.72" y="324.44"/>
      <point x="364.58000000000004" y="351.88"/>
      <point x="347.42" y="373.72" type="curve"/>
      <point x="418.78" y="445.08" type="line"/>
      <point x="384.56" y="479.3" type="line"/>
      <point x="310.48" y="405.21999999999997" type="line"/>
      <point x="289.44" y="421.7"/>
      <point x="262.74" y="431.5"/>
      <point x="232.56" y="431.5" type="curve" smooth="yes"/>
      <point x="202.48000000000002" y="431.5"/>
      <point x="175.85999999999999" y="421.64"/>
      <point x="154.98" y="405.3" type="curve"/>
      <point x="81.84" y="479.3" type="line"/>
    </contour>
    <contour>
      <point x="232.42" y="197.28" type="curve" smooth="yes"/>
      <point x="178.88" y="197.28"/>
      <point x="136.18" y="239.83999999999997"/>
      <point x="136.18" y="293.52000000000004" type="curve" smooth="yes"/>
      <point x="136.18" y="347.46"/>
      <point x="178.74" y="390.34"/>
      <point x="232.42" y="390.34" type="curve" smooth="yes"/>
      <point x="286.9" y="390.34"/>
      <point x="329.59999999999997" y="347.46"/>
      <point x="329.59999999999997" y="293.52000000000004" type="curve" smooth="yes"/>
      <point x="329.59999999999997" y="239.83999999999997"/>
      <point x="286.76" y="197.28"/>
    </contour>
  </outline>
</glyph>
<glyph name="yen" format="2">
  <advance width="811.5999999999999"/>
  <unicode hex="00A5"/>
  <outline>
    <contour>
      <point x="114.99999999999999" y="347.59999999999997" type="line"/>
      <point x="374.49999999999994" y="347.59999999999997" type="line"/>
      <point x="374.49999999999994" y="227.29999999999998" type="line"/>
      <point x="114.99999999999999" y="227.29999999999998" type="line"/>
      <point x="114.99999999999999" y="186.3" type="line"/>
      <point x="374.49999999999994" y="186.3" type="line"/>
      <point x="374.49999999999994" y="0.0" type="line"/>
      <point x="447.09999999999997" y="0.0" type="line"/>
      <point x="447.09999999999997" y="186.3" type="line"/>
      <point x="708.7" y="186.3" type="line"/>
      <point x="708.7" y="227.29999999999998" type="line"/>
      <point x="447.09999999999997" y="227.29999999999998" type="line"/>
      <point x="447.09999999999997" y="347.59999999999997" type="line"/>
      <point x="708.7" y="347.59999999999997" type="line"/>
      <point x="708.7" y="388.79999999999995" type="line"/>
      <point x="447.09999999999997" y="388.79999999999995" type="line"/>
      <point x="737.8000000000001" y="694.9" type="line"/>
      <point x="668.2" y="705.3" type="line"/>
      <point x="410.7" y="432.20000000000005" type="line"/>
      <point x="143.6" y="705.3" type="line"/>
      <point x="74.19999999999999" y="694.9" type="line"/>
      <point x="374.49999999999994" y="388.79999999999995" type="line"/>
      <point x="114.99999999999999" y="388.79999999999995" type="line"/>
    </contour>
  </outline>
</glyph>
<glyph name="brokenbar" format="2">
  <advance width="256.7"/>
  <unicode hex="00A6"/>
  <outline>
    <contour>
      <point x="156.92" y="391.0" type="line"/>
      <point x="156.92" y="790.0600000000001" type="line"/>
      <point x="99.78" y="790.0600000000001" type="line"/>
      <point x="99.78" y="391.0" type="line"/>
    </contour>
    <contour>
      <point x="99.78" y="190.06" type="line"/>
      <point x="99.78" y="-210.0" type="line"/>
      <point x="156.92" y="-210.0" type="line"/>
      <point x="156.92" y="190.06" type="line"/>
    </contour>
  </outline>
</glyph>
<glyph name="section" format="2">
  <advance width="609.3599999999999"/>
  <unicode hex="00A7"/>
  <outline>
    <contour>
      <point x="273.7" y="-220.2" type="curve" smooth="yes"/>
      <point x="446.70000000000005" y="-220.2"/>
      <point x="561.9" y="-112.06"/>
      <point x="561.9" y="50.220000000000006" type="curve" smooth="yes"/>
      <point x="561.9" y="140.95999999999998"/>
      <point x="529.9799999999999" y="224.61999999999998"/>
      <point x="433.92" y="388.32" type="curve" smooth="yes"/>
      <point x="361.71999999999997" y="514.3199999999999"/>
      <point x="341.04" y="555.4399999999999"/>
      <point x="341.04" y="599.82" type="curve" smooth="yes"/>
      <point x="341.04" y="653.24"/>
      <point x="377.53999999999996" y="686.4399999999999"/>
      <point x="437.48" y="686.4399999999999" type="curve" smooth="yes"/>
      <point x="462.09999999999997" y="686.4399999999999"/>
      <point x="489.87999999999994" y="681.64"/>
      <point x="529.58" y="668.6200000000001" type="curve"/>
      <point x="541.4399999999999" y="722.9799999999999" type="line"/>
      <point x="485.71999999999997" y="741.5600000000001"/>
      <point x="429.56" y="749.82"/>
      <point x="373.16" y="749.82" type="curve" smooth="yes"/>
      <point x="185.82" y="749.82"/>
      <point x="71.9" y="642.8799999999999"/>
      <point x="71.6" y="472.36" type="curve" smooth="yes"/>
      <point x="71.80000000000001" y="368.2"/>
      <point x="104.6" y="279.66"/>
      <point x="196.16" y="133.4" type="curve" smooth="yes"/>
      <point x="254.20000000000002" y="34.059999999999995"/>
      <point x="283.3" y="-8.799999999999997"/>
      <point x="283.82" y="-67.72" type="curve" smooth="yes"/>
      <point x="284.3399999999999" y="-116.35999999999999"/>
      <point x="245.01999999999998" y="-152.64000000000001"/>
      <point x="191.61999999999998" y="-152.64000000000001" type="curve" smooth="yes"/>
      <point x="150.07999999999998" y="-152.64000000000001"/>
      <point x="118.08" y="-139.26"/>
      <point x="61.71999999999999" y="-99.08" type="curve"/>
      <point x="45.160000000000004" y="-150.22000000000003" type="line"/>
      <point x="124.63999999999999" y="-202.51999999999998"/>
      <point x="183.43999999999997" y="-220.2"/>
    </contour>
    <contour>
      <point x="277.16" y="-180.78000000000003" type="curve" smooth="yes"/>
      <point x="241.33999999999997" y="-180.78000000000003"/>
      <point x="214.04" y="-177.66"/>
      <point x="189.95999999999998" y="-169.66" type="curve"/>
      <point x="208.92000000000002" y="-183.68" type="line"/>
      <point x="282.98" y="-187.70000000000002"/>
      <point x="339.84" y="-135.5"/>
      <point x="339.84" y="-68.1" type="curve" smooth="yes"/>
      <point x="339.84" y="-10.720000000000004"/>
      <point x="321.66" y="34.42"/>
      <point x="245.8" y="157.4" type="curve" smooth="yes"/>
      <point x="157.23999999999998" y="303.38"/>
      <point x="127.32000000000001" y="382.47999999999996"/>
      <point x="127.32000000000001" y="479.46000000000004" type="curve" smooth="yes"/>
      <point x="127.32000000000001" y="617.52"/>
      <point x="217.55999999999997" y="704.3600000000001"/>
      <point x="353.08000000000004" y="704.3600000000001" type="curve" smooth="yes"/>
      <point x="370.54" y="704.3600000000001"/>
      <point x="385.14" y="702.84"/>
      <point x="403.61999999999995" y="698.82" type="curve"/>
      <point x="393.1599999999999" y="711.66" type="line"/>
      <point x="327.0" y="710.74"/>
      <point x="286.26" y="660.76"/>
      <point x="285.53999999999996" y="599.9799999999999" type="curve" smooth="yes"/>
      <point x="285.53999999999996" y="545.36"/>
      <point x="307.98" y="497.02"/>
      <point x="383.7" y="366.2" type="curve" smooth="yes"/>
      <point x="476.96000000000004" y="201.36"/>
      <point x="507.85999999999996" y="124.95999999999998"/>
      <point x="507.85999999999996" y="43.019999999999996" type="curve" smooth="yes"/>
      <point x="508.38000000000005" y="-84.38"/>
      <point x="424.88" y="-180.26"/>
    </contour>
  </outline>
</glyph>
<glyph name="copyright" format="2">
  <advance width="856.1199999999999"/>
  <unicode hex="00A9"/>
  <outline>
    <contour>
      <point x="428.19999999999993" y="24.26" type="curve" smooth="yes"/>
      <point x="238.82" y="24.26"/>
      <point x="95.2" y="109.78"/>
      <point x="95.2" y="349.78" type="curve" smooth="yes"/>
      <point x="95.2" y="590.3"/>
      <point x="239.1" y="674.7399999999999"/>
      <point x="428.19999999999993" y="674.7399999999999" type="curve" smooth="yes"/>
      <point x="617.1999999999999" y="674.7399999999999"/>
      <point x="760.86" y="590.3"/>
      <point x="760.86" y="349.78" type="curve" smooth="yes"/>
      <point x="760.86" y="109.78"/>
      <point x="617.4799999999999" y="24.26"/>
    </contour>
    <contour>
      <point x="428.19999999999993" y="710.0" type="curve" smooth="yes"/>
      <point x="218.35999999999999" y="710.0"/>
      <point x="57.800000000000004" y="612.76"/>
      <point x="57.800000000000004" y="349.78" type="curve" smooth="yes"/>
      <point x="57.800000000000004" y="87.10000000000001"/>
      <point x="218.07999999999998" y="-10.0"/>
      <point x="428.19999999999993" y="-10.0" type="curve" smooth="yes"/>
      <point x="638.0400000000001" y="-10.0"/>
      <point x="798.3199999999999" y="87.10000000000001"/>
      <point x="798.3199999999999" y="349.78" type="curve" smooth="yes"/>
      <point x="798.3199999999999" y="612.76"/>
      <point x="638.0400000000001" y="710.0"/>
    </contour>
    <contour>
      <point x="249.89999999999995" y="337.2" type="curve" smooth="yes"/>
      <point x="249.89999999999995" y="218.18"/>
      <point x="321.2" y="168.02"/>
      <point x="427.26" y="168.02" type="curve" smooth="yes"/>
      <point x="499.66" y="168.02"/>
      <point x="558.7399999999999" y="180.6"/>
      <point x="592.86" y="191.70000000000002" type="curve"/>
      <point x="583.7599999999999" y="231.88000000000002" type="line"/>
      <point x="553.72" y="223.64"/>
      <point x="500.90000000000003" y="212.50000000000003"/>
      <point x="435.15999999999997" y="212.50000000000003" type="curve" smooth="yes"/>
      <point x="347.82" y="212.50000000000003"/>
      <point x="302.88000000000005" y="251.7"/>
      <point x="302.88000000000005" y="337.90000000000003" type="curve" smooth="yes"/>
      <point x="302.88000000000005" y="443.64"/>
      <point x="362.03999999999996" y="478.84"/>
      <point x="453.0199999999999" y="478.84" type="curve" smooth="yes"/>
      <point x="495.61999999999995" y="478.84"/>
      <point x="530.8599999999999" y="473.58"/>
      <point x="567.8000000000001" y="463.38" type="curve"/>
      <point x="577.6400000000001" y="504.44" type="line"/>
      <point x="537.06" y="518.0999999999999"/>
      <point x="496.12" y="523.6"/>
      <point x="447.65999999999997" y="523.6" type="curve" smooth="yes"/>
      <point x="335.67999999999995" y="523.6"/>
      <point x="249.89999999999995" y="474.54"/>
    </contour>
  </outline>
</glyph>
<glyph name="ordfeminine" format="2">
  <advance width="445.76"/>
  <unicode hex="00AA"/>
  <outline>
    <contour>
      <point x="59.46" y="260.68000000000006" type="line"/>
      <point x="402.78" y="260.68000000000006" type="line"/>
      <point x="402.78" y="300.67999999999995" type="line"/>
      <point x="59.46" y="300.67999999999995" type="line"/>
    </contour>
    <component base="a.superior" xOffset="12.879999999999999"/>
  </outline>
</glyph>
<glyph name="logicalnot" format="2">
  <advance width="537.08"/>
  <unicode hex="00AC"/>
  <outline>
    <contour>
      <point x="56.519999999999996" y="363.76000000000005" type="line"/>
      <point x="426.5" y="363.76000000000005" type="line"/>
      <point x="426.5" y="173.62" type="line"/>
      <point x="480.8" y="173.62" type="line"/>
      <point x="480.8" y="418.06" type="line"/>
      <point x="56.519999999999996" y="418.06" type="line"/>
    </contour>
  </outline>
</glyph>
<glyph name="registered" format="2">
  <advance width="820.3399999999999"/>
  <unicode hex="00AE"/>
  <outline>
    <contour>
      <point x="408.02000000000004" y="208.12" type="curve" smooth="yes"/>
      <point x="609.9799999999999" y="208.12"/>
      <point x="762.54" y="299.36000000000007"/>
      <point x="762.54" y="550.4600000000002" type="curve" smooth="yes"/>
      <point x="762.54" y="800.52"/>
      <point x="610.22" y="893.0"/>
      <point x="408.02000000000004" y="893.0" type="curve" smooth="yes"/>
      <point x="208.92" y="893.0"/>
      <point x="57.800000000000004" y="800.52"/>
      <point x="57.800000000000004" y="550.4600000000002" type="curve" smooth="yes"/>
      <point x="57.800000000000004" y="300.98"/>
      <point x="208.38" y="208.12"/>
    </contour>
    <contour>
      <point x="408.02000000000004" y="240.68" type="curve" smooth="yes"/>
      <point x="228.09999999999997" y="240.68"/>
      <point x="93.46" y="322.41999999999996"/>
      <point x="93.46" y="550.4600000000002" type="curve" smooth="yes"/>
      <point x="93.46" y="779.0400000000001"/>
      <point x="228.05999999999997" y="859.3600000000001"/>
      <point x="408.02000000000004" y="859.3600000000001" type="curve" smooth="yes"/>
      <point x="590.7599999999999" y="859.3600000000001"/>
      <point x="727.0200000000001" y="779.0799999999999"/>
      <point x="727.0200000000001" y="550.4600000000002" type="curve" smooth="yes"/>
      <point x="727.0200000000001" y="322.08"/>
      <point x="590.4599999999999" y="240.68"/>
    </contour>
    <contour>
      <point x="601.8199999999999" y="393.4199999999999" type="curve" smooth="yes"/>
      <point x="604.7800000000001" y="393.4199999999999"/>
      <point x="607.02" y="393.4199999999999"/>
      <point x="610.36" y="393.6599999999999" type="curve"/>
      <point x="609.6399999999999" y="435.9" type="line"/>
      <point x="607.9799999999999" y="435.6599999999999"/>
      <point x="606.18" y="435.6599999999999"/>
      <point x="604.3799999999999" y="435.6599999999999" type="curve" smooth="yes"/>
      <point x="571.92" y="435.71999999999997"/>
      <point x="520.3199999999999" y="472.5"/>
      <point x="470.02" y="533.4000000000001" type="curve"/>
      <point x="532.0" y="541.5400000000001"/>
      <point x="565.28" y="567.5400000000002"/>
      <point x="565.28" y="626.16" type="curve" smooth="yes"/>
      <point x="565.28" y="694.14"/>
      <point x="519.9799999999999" y="717.2"/>
      <point x="393.96" y="717.2" type="curve" smooth="yes"/>
      <point x="353.11999999999995" y="717.2"/>
      <point x="317.12" y="716.2800000000001"/>
      <point x="260.92" y="712.98" type="curve"/>
      <point x="260.92" y="395.4599999999999" type="line"/>
      <point x="308.16" y="395.4599999999999" type="line"/>
      <point x="308.16" y="523.94" type="line"/>
      <point x="340.84000000000003" y="523.2800000000001"/>
      <point x="364.73999999999995" y="522.34"/>
      <point x="393.02000000000004" y="522.34" type="curve" smooth="yes"/>
      <point x="399.98" y="522.34"/>
      <point x="406.78" y="522.34"/>
      <point x="413.64000000000004" y="522.58" type="curve"/>
      <point x="477.68000000000006" y="442.17999999999995"/>
      <point x="550.1" y="393.5199999999999"/>
    </contour>
    <contour>
      <point x="398.91999999999996" y="555.5" type="curve" smooth="yes"/>
      <point x="369.46" y="555.5"/>
      <point x="344.71999999999997" y="556.1600000000001"/>
      <point x="308.16" y="556.9200000000001" type="curve"/>
      <point x="308.16" y="677.02" type="line"/>
      <point x="348.40000000000003" y="679.48"/>
      <point x="358.0" y="680.14"/>
      <point x="395.90000000000003" y="680.14" type="curve" smooth="yes"/>
      <point x="492.94" y="680.14"/>
      <point x="517.0" y="664.44"/>
      <point x="517.0" y="621.4000000000001" type="curve" smooth="yes"/>
      <point x="517.0" y="566.6999999999999"/>
      <point x="475.08" y="555.5"/>
    </contour>
  </outline>
</glyph>
<glyph name="degree" format="2">
  <advance width="291.59999999999997"/>
  <unicode hex="00B0"/>
  <outline>
    <contour>
      <point x="145.14" y="482.0" type="curve" smooth="yes"/>
      <point x="215.94" y="482.0"/>
      <point x="261.08" y="537.7399999999999"/>
      <point x="261.08" y="602.4" type="curve" smooth="yes"/>
      <point x="261.08" y="665.8"/>
      <point x="217.42" y="724.4"/>
      <point x="145.14" y="724.4" type="curve" smooth="yes"/>
      <point x="72.58" y="724.4"/>
      <point x="30.52" y="665.8"/>
      <point x="30.52" y="602.4" type="curve" smooth="yes"/>
      <point x="30.52" y="537.7399999999999"/>
      <point x="74.34" y="482.0"/>
    </contour>
    <contour>
      <point x="145.14" y="527.96" type="curve" smooth="yes"/>
      <point x="105.50000000000001" y="527.96"/>
      <point x="78.27999999999999" y="560.62"/>
      <point x="78.27999999999999" y="602.3399999999999" type="curve" smooth="yes"/>
      <point x="78.27999999999999" y="643.38"/>
      <point x="105.16000000000001" y="677.92"/>
      <point x="145.14" y="677.92" type="curve" smooth="yes"/>
      <point x="184.83999999999997" y="677.92"/>
      <point x="213.6" y="643.38"/>
      <point x="213.6" y="602.3399999999999" type="curve" smooth="yes"/>
      <point x="213.6" y="560.62"/>
      <point x="184.78" y="527.96"/>
    </contour>
  </outline>
</glyph>
<glyph name="plusminus" format="2">
  <advance width="544.76"/>
  <unicode hex="00B1"/>
  <outline>
    <contour>
      <point x="55.56" y="57.46" type="line"/>
      <point x="489.2" y="57.46" type="line"/>
      <point x="489.2" y="111.75999999999999" type="line"/>
      <point x="302.26" y="111.75999999999999" type="line"/>
      <point x="302.26" y="296.12" type="line"/>
      <point x="489.2" y="296.12" type="line"/>
      <point x="489.2" y="350.42" type="line"/>
      <point x="302.26" y="350.42" type="line"/>
      <point x="302.26" y="533.7" type="line"/>
      <point x="242.36" y="533.7" type="line"/>
      <point x="242.36" y="350.42" type="line"/>
      <point x="55.56" y="350.42" type="line"/>
      <point x="55.56" y="296.12" type="line"/>
      <point x="242.36" y="296.12" type="line"/>
      <point x="242.36" y="111.75999999999999" type="line"/>
      <point x="55.56" y="111.75999999999999" type="line"/>
    </contour>
  </outline>
</glyph>
<glyph name="uni00B2" format="2">
  <advance width="522.16"/>
  <unicode hex="00B2"/>
  <outline>
    <contour>
      <point x="69.03999999999999" y="370.0" type="line"/>
      <point x="456.78" y="370.0" type="line"/>
      <point x="456.78" y="405.76" type="line"/>
      <point x="154.11999999999998" y="405.76" type="line"/>
      <point x="350.53999999999996" y="527.06"/>
      <point x="389.78" y="578.96"/>
      <point x="389.78" y="651.1200000000001" type="curve" smooth="yes"/>
      <point x="389.78" y="727.1800000000001"/>
      <point x="334.9" y="772.1599999999999"/>
      <point x="238.2" y="772.1599999999999" type="curve" smooth="yes"/>
      <point x="185.99999999999997" y="772.1599999999999"/>
      <point x="124.73999999999998" y="758.38"/>
      <point x="81.63999999999999" y="734.3" type="curve"/>
      <point x="96.18" y="698.86" type="line"/>
      <point x="138.26" y="720.6"/>
      <point x="183.96" y="730.1"/>
      <point x="227.58" y="730.1" type="curve" smooth="yes"/>
      <point x="296.81999999999994" y="730.1"/>
      <point x="333.78000000000003" y="696.9"/>
      <point x="333.78000000000003" y="642.44" type="curve" smooth="yes"/>
      <point x="333.78000000000003" y="577.2199999999999"/>
      <point x="277.52000000000004" y="522.32"/>
      <point x="66.64" y="401.58" type="curve"/>
    </contour>
  </outline>
</glyph>
<glyph name="uni00B3" format="2">
  <advance width="495.78000000000003"/>
  <unicode hex="00B3"/>
  <outline>
    <contour>
      <point x="28.9" y="401.82" type="line"/>
      <point x="87.66" y="372.64000000000004"/>
      <point x="150.18" y="360.78"/>
      <point x="230.79999999999998" y="360.78" type="curve" smooth="yes"/>
      <point x="367.64" y="360.78"/>
      <point x="452.17999999999995" y="405.13999999999993"/>
      <point x="452.17999999999995" y="484.6" type="curve" smooth="yes"/>
      <point x="452.17999999999995" y="537.3999999999999"/>
      <point x="411.26" y="570.82"/>
      <point x="335.46000000000004" y="578.34" type="curve"/>
      <point x="390.29999999999995" y="587.0799999999999"/>
      <point x="423.76000000000005" y="620.68"/>
      <point x="423.76000000000005" y="668.56" type="curve" smooth="yes"/>
      <point x="423.76000000000005" y="733.08"/>
      <point x="355.28" y="772.9200000000001"/>
      <point x="230.52" y="772.9200000000001" type="curve" smooth="yes"/>
      <point x="148.85999999999999" y="772.9200000000001"/>
      <point x="88.24" y="760.2199999999999"/>
      <point x="55.84" y="749.42" type="curve"/>
      <point x="65.66" y="714.06" type="line"/>
      <point x="95.54" y="721.86"/>
      <point x="138.56" y="734.26"/>
      <point x="219.26000000000002" y="734.26" type="curve" smooth="yes"/>
      <point x="313.26" y="734.26"/>
      <point x="372.4" y="706.1999999999999"/>
      <point x="372.4" y="659.5" type="curve" smooth="yes"/>
      <point x="372.4" y="616.68"/>
      <point x="332.4" y="590.58"/>
      <point x="256.02" y="590.58" type="curve" smooth="yes"/>
      <point x="141.32" y="590.58" type="line"/>
      <point x="141.32" y="557.92" type="line"/>
      <point x="250.51999999999998" y="557.92" type="line" smooth="yes"/>
      <point x="354.74" y="557.92"/>
      <point x="398.74" y="535.42"/>
      <point x="398.74" y="487.0" type="curve" smooth="yes"/>
      <point x="398.74" y="430.63999999999993"/>
      <point x="335.98" y="396.78000000000003"/>
      <point x="226.54" y="396.78000000000003" type="curve" smooth="yes"/>
      <point x="143.81999999999996" y="396.78000000000003"/>
      <point x="90.51999999999998" y="408.48"/>
      <point x="41.760000000000005" y="434.6" type="curve"/>
    </contour>
  </outline>
</glyph>
<glyph name="uni00B5" format="2">
  <advance width="706.1"/>
  <unicode hex="00B5"/>
  <outline>
    <contour>
      <point x="88.7" y="-210.0" type="line"/>
      <point x="156.66" y="-210.0" type="line"/>
      <point x="156.66" y="52.46" type="line"/>
      <point x="179.85999999999999" y="12.539999999999997"/>
      <point x="225.34" y="-9.879999999999999"/>
      <point x="292.66" y="-9.879999999999999" type="curve" smooth="yes"/>
      <point x="388.41999999999996" y="-9.879999999999999"/>
      <point x="456.54" y="22.48"/>
      <point x="540.5" y="68.7" type="curve"/>
      <point x="552.22" y="13.260000000000002"/>
      <point x="588.34" y="-10.0"/>
      <point x="631.08" y="-10.0" type="curve" smooth="yes"/>
      <point x="653.74" y="-10.0"/>
      <point x="677.5799999999999" y="-4.18"/>
      <point x="696.9399999999999" y="5.279999999999999" type="curve"/>
      <point x="687.88" y="49.71999999999999" type="line"/>
      <point x="677.88" y="45.099999999999994"/>
      <point x="667.1" y="42.739999999999995"/>
      <point x="656.72" y="42.739999999999995" type="curve" smooth="yes"/>
      <point x="626.3" y="42.739999999999995"/>
      <point x="599.9" y="62.54"/>
      <point x="599.9" y="128.5" type="curve" smooth="yes"/>
      <point x="599.9" y="534.0" type="line"/>
      <point x="531.4" y="534.0" type="line"/>
      <point x="531.4" y="114.52" type="line"/>
      <point x="448.65999999999997" y="73.10000000000001"/>
      <point x="386.06" y="44.58"/>
      <point x="299.13999999999993" y="44.58" type="curve" smooth="yes"/>
      <point x="205.09999999999997" y="44.58"/>
      <point x="157.26" y="93.46"/>
      <point x="157.26" y="170.6" type="curve" smooth="yes"/>
      <point x="157.26" y="534.0" type="line"/>
      <point x="88.7" y="534.0" type="line"/>
    </contour>
  </outline>
</glyph>
<glyph name="paragraph" format="2">
  <advance width="701.34"/>
  <unicode hex="00B6"/>
  <outline>
    <contour>
      <point x="546.0799999999999" y="-210.0" type="line"/>
      <point x="602.44" y="-210.0" type="line"/>
      <point x="602.44" y="740.0" type="line"/>
      <point x="546.0799999999999" y="740.0" type="line"/>
    </contour>
    <contour>
      <point x="293.68" y="231.96" type="line"/>
      <point x="170.01999999999998" y="245.18"/>
      <point x="112.58" y="325.28"/>
      <point x="112.58" y="462.2" type="curve" smooth="yes"/>
      <point x="112.58" y="607.9799999999999"/>
      <point x="187.20000000000002" y="683.1800000000001"/>
      <point x="362.15999999999997" y="686.0600000000001" type="curve"/>
      <point x="362.15999999999997" y="-210.0" type="line"/>
      <point x="418.52000000000004" y="-210.0" type="line"/>
      <point x="418.52000000000004" y="740.0" type="line"/>
      <point x="378.8" y="740.0" type="line" smooth="yes"/>
      <point x="146.42" y="740.0"/>
      <point x="52.36" y="642.18"/>
      <point x="52.36" y="467.26" type="curve" smooth="yes"/>
      <point x="52.36" y="302.88000000000005"/>
      <point x="126.16" y="206.00000000000003"/>
      <point x="287.7" y="189.07999999999998" type="curve"/>
    </contour>
  </outline>
</glyph>
<glyph name="periodcentered" format="2">
  <advance width="212.22"/>
  <unicode hex="00B7"/>
  <outline>
    <contour>
      <point x="64.86" y="293.59999999999997" type="curve" smooth="yes"/>
      <point x="64.86" y="265.40000000000003"/>
      <point x="74.47999999999999" y="256.8"/>
      <point x="106.32000000000001" y="256.8" type="curve" smooth="yes"/>
      <point x="139.16" y="256.8"/>
      <point x="147.78" y="265.40000000000003"/>
      <point x="147.78" y="293.59999999999997" type="curve" smooth="yes"/>
      <point x="147.78" y="322.00000000000006"/>
      <point x="139.16" y="330.6"/>
      <point x="106.32000000000001" y="330.6" type="curve" smooth="yes"/>
      <point x="73.47999999999999" y="330.6"/>
      <point x="64.86" y="322.00000000000006"/>
    </contour>
  </outline>
</glyph>
<glyph name="uni00B9" format="2">
  <advance width="469.71999999999997"/>
  <unicode hex="00B9"/>
  <outline>
    <contour>
      <point x="39.3" y="370.0" type="line"/>
      <point x="440.78" y="370.0" type="line"/>
      <point x="440.78" y="406.70000000000005" type="line"/>
      <point x="283.15999999999997" y="406.70000000000005" type="line"/>
      <point x="283.15999999999997" y="767.98" type="line"/>
      <point x="254.78" y="767.98" type="line"/>
      <point x="29.68" y="671.1399999999999" type="line"/>
      <point x="44.099999999999994" y="632.54" type="line"/>
      <point x="227.76" y="713.16" type="line"/>
      <point x="227.76" y="406.70000000000005" type="line"/>
      <point x="39.3" y="406.70000000000005" type="line"/>
    </contour>
  </outline>
</glyph>
<glyph name="ordmasculine" format="2">
  <advance width="468.67999999999995"/>
  <unicode hex="00BA"/>
  <outline>
    <contour>
      <point x="65.82" y="261.24" type="line"/>
      <point x="413.62" y="261.24" type="line"/>
      <point x="413.62" y="301.23999999999995" type="line"/>
      <point x="65.82" y="301.23999999999995" type="line"/>
    </contour>
    <component base="o.superior" xOffset="10.880000000000003"/>
  </outline>
</glyph>
<glyph name="questiondown" format="2">
  <advance width="570.8399999999999"/>
  <unicode hex="00BF"/>
  <outline>
    <contour>
      <point x="336.40000000000003" y="271.88000000000005" type="line"/>
      <point x="276.08" y="271.88000000000005" type="line"/>
      <point x="275.8" y="205.66000000000003" type="line"/>
      <point x="113.18" y="154.54"/>
      <point x="36.84" y="96.69999999999999"/>
      <point x="36.84" y="-15.9" type="curve" smooth="yes"/>
      <point x="36.84" y="-166.0"/>
      <point x="165.07999999999998" y="-216.74"/>
      <point x="283.62" y="-216.74" type="curve" smooth="yes"/>
      <point x="374.0" y="-216.74"/>
      <point x="477.32" y="-191.88"/>
      <point x="551.24" y="-143.74" type="curve"/>
      <point x="529.5999999999999" y="-93.28" type="line"/>
      <point x="457.04" y="-137.96000000000004"/>
      <point x="370.12" y="-158.82000000000002"/>
      <point x="292.49999999999994" y="-158.82000000000002" type="curve" smooth="yes"/>
      <point x="203.2" y="-158.82000000000002"/>
      <point x="107.68" y="-120.08"/>
      <point x="107.68" y="-12.279999999999998" type="curve" smooth="yes"/>
      <point x="107.68" y="65.52"/>
      <point x="161.2" y="124.32"/>
      <point x="337.62" y="171.38" type="curve"/>
    </contour>
    <contour>
      <point x="344.02" y="498.76" type="curve" smooth="yes"/>
      <point x="344.02" y="526.74"/>
      <point x="334.26" y="535.3399999999999"/>
      <point x="302.49999999999994" y="535.3399999999999" type="curve" smooth="yes"/>
      <point x="270.06" y="535.3399999999999"/>
      <point x="261.21999999999997" y="526.74"/>
      <point x="261.21999999999997" y="498.76" type="curve" smooth="yes"/>
      <point x="261.21999999999997" y="470.58"/>
      <point x="270.06" y="461.98"/>
      <point x="302.49999999999994" y="461.98" type="curve" smooth="yes"/>
      <point x="335.3" y="461.98"/>
      <point x="344.02" y="470.58"/>
    </contour>
  </outline>
</glyph>
<glyph name="AE" format="2">
  <advance width="1245.3200000000002"/>
  <unicode hex="00C6"/>
  <anchor x="630.9200000000001" y="700.0" name="top"/>
  <outline>
    <contour>
      <point x="5.419999999999999" y="0.0" type="line"/>
      <point x="89.57999999999998" y="-0.3800000000000001" type="line"/>
      <point x="312.96" y="279.26" type="line"/>
      <point x="593.0" y="279.26" type="line"/>
      <point x="593.0" y="0.0" type="line"/>
      <point x="1206.2800000000002" y="0.0" type="line"/>
      <point x="1206.2800000000002" y="60.4" type="line"/>
      <point x="664.5999999999999" y="60.4" type="line"/>
      <point x="664.5999999999999" y="310.48" type="line"/>
      <point x="1155.76" y="310.48" type="line"/>
      <point x="1155.76" y="369.68" type="line"/>
      <point x="664.5999999999999" y="369.68" type="line"/>
      <point x="664.5999999999999" y="639.5999999999999" type="line"/>
      <point x="1183.1000000000001" y="639.5999999999999" type="line"/>
      <point x="1183.1000000000001" y="700.0" type="line"/>
      <point x="562.0" y="700.0" type="line"/>
    </contour>
    <contour>
      <point x="352.67999999999995" y="336.88" type="line"/>
      <point x="592.8000000000001" y="643.9399999999999" type="line"/>
      <point x="592.8000000000001" y="336.88" type="line"/>
    </contour>
  </outline>
</glyph>
<glyph name="multiply" format="2">
  <advance width="518.28"/>
  <unicode hex="00D7"/>
  <outline>
    <contour>
      <point x="98.16" y="79.2" type="line"/>
      <point x="259.46" y="257.23999999999995" type="line"/>
      <point x="419.56" y="81.12" type="line"/>
      <point x="456.56" y="120.30000000000001" type="line"/>
      <point x="299.78" y="295.38" type="line"/>
      <point x="457.44" y="472.2" type="line"/>
      <point x="420.44" y="511.38" type="line"/>
      <point x="259.46" y="333.76" type="line"/>
      <point x="97.6" y="512.5" type="line"/>
      <point x="60.599999999999994" y="473.32" type="line"/>
      <point x="219.24" y="295.38" type="line"/>
      <point x="61.16" y="118.38" type="line"/>
    </contour>
  </outline>
</glyph>
<glyph name="Oslash" format="2">
  <advance width="961.5999999999999"/>
  <unicode hex="00D8"/>
  <anchor x="478.79999999999995" y="700.0" name="top"/>
  <outline>
    <contour>
      <point x="133.9" y="-11.4" type="line"/>
      <point x="229.2" y="73.80000000000001" type="line"/>
      <point x="230.49999999999997" y="72.90000000000002" type="line"/>
      <point x="773.6999999999999" y="593.6" type="line"/>
      <point x="774.9999999999999" y="592.8" type="line"/>
      <point x="896.5999999999999" y="712.0" type="line"/>
      <point x="825.3" y="712.0" type="line"/>
      <point x="733.0999999999999" y="626.1999999999999" type="line"/>
      <point x="731.4999999999999" y="626.8" type="line"/>
      <point x="188.79999999999998" y="109.80000000000001" type="line"/>
      <point x="187.7" y="110.2" type="line"/>
      <point x="63.400000000000006" y="-11.4" type="line"/>
    </contour>
    <contour>
      <point x="478.8999999999999" y="42.0" type="curve" smooth="yes"/>
      <point x="313.3" y="42.0"/>
      <point x="134.0" y="105.5"/>
      <point x="134.0" y="349.9" type="curve" smooth="yes"/>
      <point x="134.0" y="601.5000000000001"/>
      <point x="313.2" y="658.0"/>
      <point x="478.8999999999999" y="658.0" type="curve" smooth="yes"/>
      <point x="644.9" y="658.0"/>
      <point x="825.1999999999999" y="602.1"/>
      <point x="825.1999999999999" y="349.9" type="curve" smooth="yes"/>
      <point x="825.1999999999999" y="97.9"/>
      <point x="644.9" y="42.0"/>
    </contour>
    <contour>
      <point x="478.99999999999994" y="-10.0" type="curve" smooth="yes"/>
      <point x="697.3999999999999" y="-10.0"/>
      <point x="896.6999999999999" y="62.300000000000004"/>
      <point x="896.6999999999999" y="353.20000000000005" type="curve" smooth="yes"/>
      <point x="896.6999999999999" y="636.8000000000001"/>
      <point x="693.9" y="710.0"/>
      <point x="478.8999999999999" y="710.0" type="curve" smooth="yes"/>
      <point x="261.6" y="710.0"/>
      <point x="63.300000000000004" y="634.6999999999999"/>
      <point x="63.300000000000004" y="350.2" type="curve" smooth="yes"/>
      <point x="63.300000000000004" y="71.8"/>
      <point x="264.8" y="-10.0"/>
    </contour>
  </outline>
</glyph>
<glyph name="Thorn" format="2">
  <advance width="833.06"/>
  <unicode hex="00DE"/>
  <outline>
    <contour>
      <point x="101.66" y="0.0" type="line"/>
      <point x="173.02" y="0.0" type="line"/>
      <point x="173.02" y="158.72000000000003" type="line"/>
      <point x="290.35999999999996" y="155.44"/>
      <point x="332.56" y="154.88"/>
      <point x="431.79999999999995" y="154.88" type="curve" smooth="yes"/>
      <point x="685.38" y="154.88"/>
      <point x="779.0600000000001" y="214.66000000000003"/>
      <point x="779.0600000000001" y="396.08000000000004" type="curve" smooth="yes"/>
      <point x="779.0600000000001" y="561.4"/>
      <point x="707.72" y="625.12"/>
      <point x="403.65999999999997" y="625.12" type="curve" smooth="yes"/>
      <point x="360.44" y="625.12"/>
      <point x="301.06" y="623.6200000000001"/>
      <point x="173.07999999999998" y="618.52" type="curve"/>
      <point x="173.07999999999998" y="700.0" type="line"/>
      <point x="101.66" y="700.0" type="line"/>
    </contour>
    <contour>
      <point x="410.32" y="210.49999999999997" type="curve" smooth="yes"/>
      <point x="319.96000000000004" y="210.49999999999997"/>
      <point x="272.08" y="212.31999999999996"/>
      <point x="173.07999999999998" y="214.92" type="curve"/>
      <point x="173.07999999999998" y="563.52" type="line"/>
      <point x="308.62" y="569.4599999999999"/>
      <point x="357.06" y="570.8199999999999"/>
      <point x="408.4" y="570.8199999999999" type="curve" smooth="yes"/>
      <point x="648.54" y="570.8199999999999"/>
      <point x="706.7200000000001" y="520.4399999999999"/>
      <point x="706.7200000000001" y="395.94" type="curve" smooth="yes"/>
      <point x="706.7200000000001" y="261.65999999999997"/>
      <point x="644.62" y="210.49999999999997"/>
    </contour>
  </outline>
</glyph>
<glyph name="germandbls" format="2">
  <advance width="784.92"/>
  <unicode hex="00DF"/>
  <outline>
    <contour>
      <point x="139.32" y="0.0" type="line"/>
      <point x="207.76" y="0.0" type="line"/>
      <point x="207.76" y="497.66" type="line" smooth="yes"/>
      <point x="207.76" y="631.76"/>
      <point x="285.7" y="698.82"/>
      <point x="442.1" y="698.82" type="curve" smooth="yes"/>
      <point x="571.4599999999999" y="698.82"/>
      <point x="612.6999999999999" y="677.74"/>
      <point x="612.6999999999999" y="618.88" type="curve" smooth="yes"/>
      <point x="612.6999999999999" y="572.88"/>
      <point x="579.34" y="554.02"/>
      <point x="483.96000000000004" y="529.34" type="curve" smooth="yes"/>
      <point x="374.06" y="503.64"/>
      <point x="329.02000000000004" y="464.41999999999996"/>
      <point x="329.02000000000004" y="394.44" type="curve" smooth="yes"/>
      <point x="329.02000000000004" y="311.78000000000003"/>
      <point x="380.14" y="273.46"/>
      <point x="548.0999999999999" y="243.20000000000002" type="curve" smooth="yes"/>
      <point x="676.86" y="217.6"/>
      <point x="715.64" y="194.78"/>
      <point x="715.64" y="136.3" type="curve" smooth="yes"/>
      <point x="715.64" y="73.32000000000001"/>
      <point x="637.0799999999998" y="39.46"/>
      <point x="538.62" y="39.46" type="curve" smooth="yes"/>
      <point x="463.53999999999996" y="39.46"/>
      <point x="367.31999999999994" y="55.64"/>
      <point x="292.86" y="78.96" type="curve"/>
      <point x="281.81999999999994" y="29.240000000000002" type="line"/>
      <point x="360.58000000000004" y="4.159999999999998"/>
      <point x="456.2" y="-10.5"/>
      <point x="536.18" y="-10.5" type="curve" smooth="yes"/>
      <point x="668.3199999999998" y="-10.5"/>
      <point x="780.16" y="37.0"/>
      <point x="780.16" y="140.38000000000002" type="curve" smooth="yes"/>
      <point x="780.16" y="226.52"/>
      <point x="726.0" y="266.94"/>
      <point x="564.4799999999999" y="296.24" type="curve" smooth="yes"/>
      <point x="434.25999999999993" y="320.66"/>
      <point x="391.09999999999997" y="343.86"/>
      <point x="391.09999999999997" y="397.8" type="curve" smooth="yes"/>
      <point x="391.09999999999997" y="446.62"/>
      <point x="429.5799999999999" y="466.29999999999995"/>
      <point x="510.98" y="486.54" type="curve" smooth="yes"/>
      <point x="625.9799999999999" y="516.34"/>
      <point x="676.9799999999999" y="545.52"/>
      <point x="676.9799999999999" y="617.9" type="curve" smooth="yes"/>
      <point x="676.9799999999999" y="709.8000000000001"/>
      <point x="601.9" y="750.0"/>
      <point x="441.44" y="750.0" type="curve" smooth="yes"/>
      <point x="239.61999999999998" y="750.0"/>
      <point x="140.48" y="670.56"/>
      <point x="139.32" y="512.42" type="curve" smooth="yes"/>
      <point x="139.32" y="486.64" type="line"/>
      <point x="30.439999999999998" y="479.06" type="line"/>
      <point x="30.439999999999998" y="436.72" type="line"/>
      <point x="139.32" y="436.72" type="line"/>
    </contour>
  </outline>
</glyph>
<glyph name="ae" format="2">
  <advance width="1087.1"/>
  <unicode hex="00E6"/>
  <anchor x="557.3" y="534.0" name="top"/>
  <outline>
    <contour>
      <point x="211.0" y="-10.0" type="curve" smooth="yes"/>
      <point x="331.29999999999995" y="-10.0"/>
      <point x="423.19999999999993" y="36.7"/>
      <point x="514.0" y="109.99999999999999" type="curve"/>
      <point x="515.1999999999999" y="109.99999999999999" type="line"/>
      <point x="557.3" y="29.9"/>
      <point x="642.8" y="-10.0"/>
      <point x="773.6999999999999" y="-10.0" type="curve" smooth="yes"/>
      <point x="892.0999999999999" y="-10.0"/>
      <point x="966.9999999999999" y="4.499999999999999"/>
      <point x="1032.7999999999997" y="21.8" type="curve"/>
      <point x="1023.5999999999999" y="72.69999999999999" type="line"/>
      <point x="962.1999999999999" y="58.1"/>
      <point x="883.5999999999998" y="43.0"/>
      <point x="778.8000000000001" y="43.0" type="curve" smooth="yes"/>
      <point x="636.2" y="43.0"/>
      <point x="557.8999999999999" y="101.1"/>
      <point x="555.4" y="240.3" type="curve" smooth="yes"/>
      <point x="554.9999999999999" y="248.7"/>
      <point x="554.9999999999999" y="255.3"/>
      <point x="556.3" y="265.9" type="curve"/>
      <point x="804.8" y="267.1"/>
      <point x="975.7999999999998" y="282.70000000000005"/>
      <point x="1038.1999999999998" y="286.90000000000003" type="curve"/>
      <point x="1038.6999999999998" y="293.90000000000003"/>
      <point x="1039.3999999999999" y="302.40000000000003"/>
      <point x="1039.3999999999999" y="315.1" type="curve" smooth="yes"/>
      <point x="1039.3999999999999" y="467.8"/>
      <point x="945.0999999999999" y="544.0"/>
      <point x="776.6999999999999" y="544.0" type="curve" smooth="yes"/>
      <point x="659.7" y="544.0"/>
      <point x="569.8000000000001" y="499.4000000000001"/>
      <point x="532.6999999999999" y="406.09999999999997" type="curve"/>
      <point x="531.7" y="406.09999999999997" type="line"/>
      <point x="518.8000000000001" y="495.8"/>
      <point x="447.0" y="544.0"/>
      <point x="313.8" y="544.0" type="curve" smooth="yes"/>
      <point x="248.9" y="544.0"/>
      <point x="171.49999999999997" y="533.1"/>
      <point x="94.29999999999998" y="512.6999999999999" type="curve"/>
      <point x="104.59999999999998" y="461.2" type="line"/>
      <point x="179.39999999999995" y="480.9"/>
      <point x="253.79999999999998" y="490.6"/>
      <point x="311.09999999999997" y="490.6" type="curve" smooth="yes"/>
      <point x="427.9" y="490.6"/>
      <point x="487.2" y="446.90000000000003"/>
      <point x="487.2" y="367.9" type="curve" smooth="yes"/>
      <point x="487.2" y="307.7" type="line"/>
      <point x="158.50000000000003" y="291.2"/>
      <point x="50.9" y="256.5"/>
      <point x="50.9" y="126.1" type="curve" smooth="yes"/>
      <point x="50.9" y="37.50000000000001"/>
      <point x="109.8" y="-10.0"/>
    </contour>
    <contour>
      <point x="231.8" y="36.7" type="curve" smooth="yes"/>
      <point x="162.09999999999997" y="36.7"/>
      <point x="120.89999999999999" y="68.89999999999999"/>
      <point x="120.89999999999999" y="131.70000000000002" type="curve" smooth="yes"/>
      <point x="120.89999999999999" y="228.3"/>
      <point x="219.30000000000004" y="254.1"/>
      <point x="486.0999999999999" y="267.2" type="curve"/>
      <point x="485.8" y="259.40000000000003"/>
      <point x="485.8" y="251.7"/>
      <point x="485.8" y="238.9" type="curve" smooth="yes"/>
      <point x="485.8" y="203.29999999999998"/>
      <point x="488.49999999999994" y="174.9"/>
      <point x="495.09999999999997" y="151.6" type="curve"/>
      <point x="427.5" y="85.3"/>
      <point x="323.5" y="36.7"/>
    </contour>
    <contour>
      <point x="557.9" y="308.20000000000005" type="curve"/>
      <point x="569.7999999999998" y="442.6"/>
      <point x="658.8" y="495.30000000000007"/>
      <point x="772.6999999999999" y="495.30000000000007" type="curve" smooth="yes"/>
      <point x="894.8" y="495.30000000000007"/>
      <point x="966.5" y="435.1"/>
      <point x="968.9" y="324.2" type="curve"/>
      <point x="925.3" y="320.90000000000003"/>
      <point x="771.5999999999999" y="308.2"/>
    </contour>
  </outline>
</glyph>
<glyph name="eth" format="2">
  <advance width="713.4"/>
  <unicode hex="00F0"/>
  <outline>
    <contour>
      <point x="604.3000000000001" y="416.40000000000003" type="curve"/>
      <point x="605.5999999999999" y="462.70000000000005" type="line"/>
      <point x="539.6999999999999" y="509.1"/>
      <point x="459.69999999999993" y="526.9"/>
      <point x="361.9" y="526.9" type="curve" smooth="yes"/>
      <point x="151.8" y="526.9"/>
      <point x="52.49999999999999" y="434.20000000000005"/>
      <point x="52.49999999999999" y="256.79999999999995" type="curve" smooth="yes"/>
      <point x="52.49999999999999" y="75.10000000000001"/>
      <point x="150.7" y="-10.0"/>
      <point x="339.59999999999997" y="-10.0" type="curve" smooth="yes"/>
      <point x="564.1999999999999" y="-10.0"/>
      <point x="661.9" y="91.1"/>
      <point x="661.9" y="347.7" type="curve" smooth="yes"/>
      <point x="661.9" y="601.5"/>
      <point x="534.0" y="720.5999999999999"/>
      <point x="292.7" y="720.5999999999999" type="curve" smooth="yes"/>
      <point x="217.49999999999997" y="720.5999999999999"/>
      <point x="153.49999999999997" y="713.2"/>
      <point x="68.99999999999999" y="694.4" type="curve"/>
      <point x="75.69999999999999" y="649.7" type="line"/>
      <point x="153.29999999999998" y="665.9"/>
      <point x="210.09999999999997" y="674.7"/>
      <point x="279.7" y="674.7" type="curve" smooth="yes"/>
      <point x="494.0" y="674.7"/>
      <point x="594.9" y="579.8"/>
      <point x="594.9" y="345.2" type="curve" smooth="yes"/>
      <point x="594.9" y="123.1"/>
      <point x="519.5" y="40.7"/>
      <point x="346.2" y="40.7" type="curve" smooth="yes"/>
      <point x="199.2" y="40.7"/>
      <point x="122.5" y="107.9"/>
      <point x="122.5" y="259.2" type="curve" smooth="yes"/>
      <point x="122.5" y="410.3"/>
      <point x="208.89999999999998" y="480.20000000000005"/>
      <point x="369.8999999999999" y="480.20000000000005" type="curve" smooth="yes"/>
      <point x="463.29999999999995" y="480.20000000000005"/>
      <point x="535.8" y="461.9"/>
    </contour>
    <contour>
      <point x="206.99999999999997" y="557.4" type="line"/>
      <point x="473.0" y="656.5" type="line"/>
      <point x="474.5" y="660.1999999999999" type="line"/>
      <point x="653.2999999999998" y="729.8" type="line"/>
      <point x="563.0999999999999" y="729.8" type="line"/>
      <point x="430.49999999999994" y="678.9" type="line"/>
      <point x="433.29999999999995" y="676.9" type="line"/>
      <point x="116.6" y="557.4" type="line"/>
    </contour>
  </outline>
</glyph>
<glyph name="divide" format="2">
  <advance width="537.2"/>
  <unicode hex="00F7"/>
  <outline>
    <contour>
      <point x="232.83999999999997" y="101.38" type="curve" smooth="yes"/>
      <point x="232.83999999999997" y="76.77999999999999"/>
      <point x="240.88" y="70.17999999999999"/>
      <point x="268.7" y="70.17999999999999" type="curve" smooth="yes"/>
      <point x="297.34" y="70.17999999999999"/>
      <point x="304.56" y="76.77999999999999"/>
      <point x="304.56" y="101.38" type="curve" smooth="yes"/>
      <point x="304.56" y="125.78000000000002"/>
      <point x="297.15999999999997" y="132.78000000000003"/>
      <point x="268.7" y="132.78000000000003" type="curve" smooth="yes"/>
      <point x="240.06" y="132.78000000000003"/>
      <point x="232.83999999999997" y="125.78000000000002"/>
    </contour>
    <contour>
      <point x="232.83999999999997" y="490.02" type="curve" smooth="yes"/>
      <point x="232.83999999999997" y="465.82"/>
      <point x="241.06" y="458.82"/>
      <point x="268.7" y="458.82" type="curve" smooth="yes"/>
      <point x="297.34" y="458.82"/>
      <point x="304.56" y="465.82"/>
      <point x="304.56" y="490.02" type="curve" smooth="yes"/>
      <point x="304.56" y="514.8199999999999"/>
      <point x="297.34" y="521.62"/>
      <point x="268.7" y="521.62" type="curve" smooth="yes"/>
      <point x="240.06" y="521.62"/>
      <point x="232.83999999999997" y="514.8199999999999"/>
    </contour>
    <contour>
      <point x="55.67999999999999" y="268.59999999999997" type="line"/>
      <point x="481.72" y="268.59999999999997" type="line"/>
      <point x="481.72" y="322.99999999999994" type="line"/>
      <point x="55.67999999999999" y="322.99999999999994" type="line"/>
    </contour>
  </outline>
</glyph>
<glyph name="oslash" format="2">
  <advance width="722.5"/>
  <unicode hex="00F8"/>
  <anchor x="360.9" y="534.0" name="top"/>
  <outline>
    <contour>
      <point x="360.9" y="-10.0" type="curve" smooth="yes"/>
      <point x="144.99999999999997" y="-10.0"/>
      <point x="52.9" y="77.2"/>
      <point x="52.9" y="268.5" type="curve" smooth="yes"/>
      <point x="52.9" y="450.50000000000006"/>
      <point x="132.59999999999997" y="544.0"/>
      <point x="360.9" y="544.0" type="curve" smooth="yes"/>
      <point x="589.0999999999999" y="544.0"/>
      <point x="669.1999999999999" y="450.50000000000006"/>
      <point x="669.1999999999999" y="268.5" type="curve" smooth="yes"/>
      <point x="669.1999999999999" y="77.2"/>
      <point x="577.0999999999999" y="-10.0"/>
    </contour>
    <contour>
      <point x="360.9" y="37.9" type="curve" smooth="yes"/>
      <point x="531.1999999999999" y="37.9"/>
      <point x="601.0" y="109.4"/>
      <point x="601.0" y="268.5" type="curve" smooth="yes"/>
      <point x="601.0" y="420.70000000000005"/>
      <point x="541.5999999999999" y="496.09999999999997"/>
      <point x="360.9" y="496.09999999999997" type="curve" smooth="yes"/>
      <point x="180.29999999999998" y="496.09999999999997"/>
      <point x="120.89999999999999" y="420.70000000000005"/>
      <point x="120.89999999999999" y="268.5" type="curve" smooth="yes"/>
      <point x="120.89999999999999" y="109.4"/>
      <point x="190.70000000000002" y="37.9"/>
    </contour>
    <contour>
      <point x="52.6" y="-9.4" type="line"/>
      <point x="145.29999999999998" y="83.20000000000002" type="line"/>
      <point x="145.8" y="82.99999999999999" type="line"/>
      <point x="544.2" y="482.59999999999997" type="line"/>
      <point x="544.6999999999999" y="482.40000000000003" type="line"/>
      <point x="607.1" y="544.0" type="line"/>
      <point x="669.4999999999999" y="544.0" type="line"/>
      <point x="578.2" y="452.4" type="line"/>
      <point x="577.7" y="452.6" type="line"/>
      <point x="178.79999999999995" y="53.6" type="line"/>
      <point x="178.3" y="53.8" type="line"/>
      <point x="114.2" y="-9.4" type="line"/>
    </contour>
  </outline>
</glyph>
<glyph name="thorn" format="2">
  <advance width="698.56"/>
  <unicode hex="00FE"/>
  <outline>
    <contour>
      <point x="88.7" y="-210.0" type="line"/>
      <point x="157.22" y="-210.0" type="line"/>
      <point x="157.22" y="6.9" type="line"/>
      <point x="214.18" y="-4.340000000000001"/>
      <point x="274.18" y="-10.0"/>
      <point x="326.15999999999997" y="-10.0" type="curve" smooth="yes"/>
      <point x="548.2399999999999" y="-10.0"/>
      <point x="645.5" y="73.74"/>
      <point x="645.5" y="271.34000000000003" type="curve" smooth="yes"/>
      <point x="645.5" y="447.38"/>
      <point x="544.7" y="544.0"/>
      <point x="360.84000000000003" y="544.0" type="curve" smooth="yes"/>
      <point x="295.96" y="544.0"/>
      <point x="226.66" y="533.0600000000001"/>
      <point x="157.34" y="513.4799999999999" type="curve"/>
      <point x="157.34" y="740.0" type="line"/>
      <point x="88.7" y="740.0" type="line"/>
    </contour>
    <contour>
      <point x="325.62" y="38.81999999999999" type="curve" smooth="yes"/>
      <point x="279.08" y="38.81999999999999"/>
      <point x="223.26" y="45.099999999999994"/>
      <point x="157.26" y="58.699999999999996" type="curve"/>
      <point x="157.26" y="464.06000000000006" type="line"/>
      <point x="220.48" y="480.98"/>
      <point x="282.52" y="489.16"/>
      <point x="334.12" y="489.16" type="curve" smooth="yes"/>
      <point x="493.62" y="489.16"/>
      <point x="575.78" y="414.56"/>
      <point x="575.78" y="268.12" type="curve" smooth="yes"/>
      <point x="575.78" y="104.4"/>
      <point x="499.66" y="38.81999999999999"/>
    </contour>
  </outline>
</glyph>
<glyph name="Dcroat" format="2">
  <advance width="902.5599999999998"/>
  <unicode hex="0110"/>
  <outline>
    <contour>
      <point x="0.499999999999999" y="332.59999999999997" type="line"/>
      <point x="356.5799999999999" y="332.59999999999997" type="line"/>
      <point x="356.5799999999999" y="384.40000000000003" type="line"/>
      <point x="0.499999999999999" y="384.40000000000003" type="line"/>
    </contour>
    <component base="D" xOffset="2.6599999999999997"/>
  </outline>
</glyph>
<glyph name="dcroat" format="2">
  <advance width="700.8999999999999"/>
  <unicode hex="0111"/>
  <outline>
    <contour>
      <point x="331.12" y="612.6" type="line"/>
      <point x="710.6599999999999" y="612.6" type="line"/>
      <point x="710.6599999999999" y="652.4000000000001" type="line"/>
      <point x="331.12" y="652.4000000000001" type="line"/>
    </contour>
    <component base="d"/>
  </outline>
</glyph>
<glyph name="Hbar" format="2">
  <advance width="926.3199999999999"/>
  <unicode hex="0126"/>
  <outline>
    <contour>
      <point x="30.099999999999998" y="498.70000000000005" type="line"/>
      <point x="101.8" y="498.70000000000005" type="line"/>
      <point x="101.8" y="0.0" type="line"/>
      <point x="173.1" y="0.0" type="line"/>
      <point x="173.1" y="275.59999999999997" type="line"/>
      <point x="754.6199999999999" y="275.59999999999997" type="line"/>
      <point x="754.6199999999999" y="0.0" type="line"/>
      <point x="824.5199999999999" y="0.0" type="line"/>
      <point x="824.5199999999999" y="498.70000000000005" type="line"/>
      <point x="896.2199999999999" y="498.70000000000005" type="line"/>
      <point x="896.2199999999999" y="546.0400000000001" type="line"/>
      <point x="824.5199999999999" y="546.0400000000001" type="line"/>
      <point x="824.5199999999999" y="700.0" type="line"/>
      <point x="754.6199999999999" y="700.0" type="line"/>
      <point x="754.6199999999999" y="546.0400000000001" type="line"/>
      <point x="173.1" y="546.0400000000001" type="line"/>
      <point x="173.1" y="700.0" type="line"/>
      <point x="101.8" y="700.0" type="line"/>
      <point x="101.8" y="546.0400000000001" type="line"/>
      <point x="30.099999999999998" y="546.0400000000001" type="line"/>
    </contour>
    <contour>
      <point x="173.1" y="336.06" type="line"/>
      <point x="173.1" y="498.70000000000005" type="line"/>
      <point x="754.6199999999999" y="498.70000000000005" type="line"/>
      <point x="754.6199999999999" y="336.06" type="line"/>
    </contour>
  </outline>
</glyph>
<glyph name="hbar" format="2">
  <advance width="712.7399999999999"/>
  <unicode hex="0127"/>
  <outline>
    <contour>
      <point x="-9.58" y="612.5" type="line"/>
      <point x="402.46" y="612.5" type="line"/>
      <point x="402.46" y="649.9000000000001" type="line"/>
      <point x="-9.58" y="649.9000000000001" type="line"/>
    </contour>
    <component base="h"/>
  </outline>
</glyph>
<glyph name="Idotaccent" format="2">
  <advance width="274.62"/>
  <unicode hex="0130"/>
  <outline>
    <contour>
      <point x="137.39999999999998" y="806.34" type="curve" smooth="yes"/>
      <point x="171.76" y="806.34"/>
      <point x="181.36" y="814.6800000000001"/>
      <point x="181.36" y="841.94" type="curve" smooth="yes"/>
      <point x="181.36" y="869.3199999999999"/>
      <point x="171.64" y="877.5999999999999"/>
      <point x="137.39999999999998" y="877.5999999999999" type="curve" smooth="yes"/>
      <point x="103.1" y="877.5999999999999"/>
      <point x="93.37999999999998" y="869.3199999999999"/>
      <point x="93.37999999999998" y="841.94" type="curve" smooth="yes"/>
      <point x="93.37999999999998" y="814.62"/>
      <point x="103.9" y="806.34"/>
    </contour>
    <component base="I"/>
  </outline>
</glyph>
<glyph name="dotlessi" format="2">
  <advance width="246.07999999999998"/>
  <unicode hex="0131"/>
  <anchor x="152.38" y="2.0" name="ogonek"/>
  <anchor x="123.16" y="0.0" name="bottom"/>
  <anchor x="123.03999999999999" y="534.0" name="top"/>
  <outline>
    <contour>
      <point x="88.7" y="0.0" type="line"/>
      <point x="157.38" y="0.0" type="line"/>
      <point x="157.38" y="534.0" type="line"/>
      <point x="88.7" y="534.0" type="line"/>
    </contour>
  </outline>
</glyph>
<glyph name="kgreenlandic" format="2">
  <advance width="653.5999999999999"/>
  <unicode hex="0138"/>
  <anchor x="328.3" y="534.0" name="top"/>
  <anchor x="328.3" y="0.0" name="bottom"/>
  <outline>
    <contour>
      <point x="619.6999999999999" y="-9.2" type="curve" smooth="yes"/>
      <point x="628.4" y="-9.2"/>
      <point x="636.3" y="-8.4"/>
      <point x="642.9000000000001" y="-7.199999999999999" type="curve"/>
      <point x="639.9999999999999" y="58.0" type="line"/>
      <point x="634.2" y="57.2"/>
      <point x="628.5999999999999" y="56.7"/>
      <point x="624.9" y="56.7" type="curve" smooth="yes"/>
      <point x="585.4999999999999" y="56.7"/>
      <point x="533.5999999999999" y="85.10000000000001"/>
      <point x="394.8999999999999" y="194.60000000000002" type="curve" smooth="yes"/>
      <point x="155.2" y="384.3" type="line"/>
      <point x="155.2" y="534.0" type="line"/>
      <point x="88.6" y="534.0" type="line"/>
      <point x="88.6" y="0.0" type="line"/>
      <point x="155.2" y="0.0" type="line"/>
      <point x="155.2" y="306.99999999999994" type="line"/>
      <point x="383.49999999999994" y="126.30000000000001" type="line" smooth="yes"/>
      <point x="542.4" y="0.4999999999999998"/>
      <point x="576.9" y="-9.2"/>
    </contour>
    <contour>
      <point x="286.09999999999997" y="253.9" type="line"/>
      <point x="389.59999999999997" y="315.90000000000003"/>
      <point x="540.1" y="404.0"/>
      <point x="601.2" y="531.0000000000001" type="curve"/>
      <point x="531.3000000000001" y="541.3000000000001" type="line"/>
      <point x="474.7" y="424.5"/>
      <point x="343.9" y="349.59999999999997"/>
      <point x="223.29999999999998" y="276.6" type="curve"/>
    </contour>
  </outline>
</glyph>
<glyph name="Ldot" format="2">
  <advance width="692.5"/>
  <unicode hex="013F"/>
  <outline>
    <contour>
      <point x="439.15999999999997" y="380.06" type="curve" smooth="yes"/>
      <point x="439.15999999999997" y="353.76"/>
      <point x="447.8999999999999" y="345.99999999999994"/>
      <point x="478.4" y="345.99999999999994" type="curve" smooth="yes"/>
      <point x="509.75999999999993" y="345.99999999999994"/>
      <point x="517.6999999999999" y="353.76"/>
      <point x="517.6999999999999" y="380.06" type="curve" smooth="yes"/>
      <point x="517.6999999999999" y="406.56"/>
      <point x="509.75999999999993" y="414.32"/>
      <point x="478.4" y="414.32" type="curve" smooth="yes"/>
      <point x="447.09999999999997" y="414.32"/>
      <point x="439.15999999999997" y="406.56"/>
    </contour>
    <component base="L"/>
  </outline>
</glyph>
<glyph name="ldot" format="2">
  <advance width="333.29999999999995"/>
  <unicode hex="0140"/>
  <outline>
    <contour>
      <point x="297.3" y="337.96000000000004" type="curve" smooth="yes"/>
      <point x="320.1" y="337.96000000000004"/>
      <point x="325.18" y="343.92"/>
      <point x="325.18" y="367.38" type="curve" smooth="yes"/>
      <point x="325.18" y="390.90000000000003"/>
      <point x="320.1" y="396.86"/>
      <point x="297.3" y="396.86" type="curve" smooth="yes"/>
      <point x="274.56" y="396.86"/>
      <point x="269.47999999999996" y="390.90000000000003"/>
      <point x="269.47999999999996" y="367.38" type="curve" smooth="yes"/>
      <point x="269.47999999999996" y="343.92"/>
      <point x="275.36" y="337.96000000000004"/>
    </contour>
    <component base="l"/>
  </outline>
</glyph>
<glyph name="Lslash" format="2">
  <advance width="699.28"/>
  <unicode hex="0141"/>
  <outline>
    <contour>
      <point x="20.4" y="182.6" type="line"/>
      <point x="108.44000000000001" y="236.29999999999998" type="line"/>
      <point x="108.44000000000001" y="0.0" type="line"/>
      <point x="676.58" y="0.0" type="line"/>
      <point x="676.58" y="60.04" type="line"/>
      <point x="179.79999999999998" y="60.04" type="line"/>
      <point x="179.79999999999998" y="271.28000000000003" type="line"/>
      <point x="460.31999999999994" y="439.6" type="line"/>
      <point x="460.31999999999994" y="501.64" type="line"/>
      <point x="179.79999999999998" y="333.55999999999995" type="line"/>
      <point x="179.79999999999998" y="700.0" type="line"/>
      <point x="108.44000000000001" y="700.0" type="line"/>
      <point x="108.44000000000001" y="298.58000000000004" type="line"/>
      <point x="20.4" y="244.88000000000002" type="line"/>
    </contour>
  </outline>
</glyph>
<glyph name="lslash" format="2">
  <advance width="327.41999999999996"/>
  <unicode hex="0142"/>
  <outline>
    <contour>
      <point x="226.16" y="-10.0" type="curve" smooth="yes"/>
      <point x="265.41999999999996" y="-10.0"/>
      <point x="304.32" y="-2.24"/>
      <point x="335.46" y="6.54" type="curve"/>
      <point x="326.90000000000003" y="60.96" type="line"/>
      <point x="299.76" y="54.519999999999996"/>
      <point x="271.71999999999997" y="49.04"/>
      <point x="246.52" y="49.04" type="curve" smooth="yes"/>
      <point x="199.98000000000002" y="49.04"/>
      <point x="159.38" y="69.41999999999999"/>
      <point x="159.38" y="167.04" type="curve" smooth="yes"/>
      <point x="159.38" y="282.2" type="line"/>
      <point x="286.79999999999995" y="398.24000000000007" type="line"/>
      <point x="286.79999999999995" y="456.8" type="line"/>
      <point x="159.38" y="340.76000000000005" type="line"/>
      <point x="159.38" y="740.0" type="line"/>
      <point x="90.88" y="740.0" type="line"/>
      <point x="90.88" y="297.06" type="line"/>
      <point x="20.62" y="233.44" type="line"/>
      <point x="20.62" y="175.12" type="line"/>
      <point x="91.16" y="238.64" type="line"/>
      <point x="91.44" y="152.32" type="line" smooth="yes"/>
      <point x="93.82" y="21.78"/>
      <point x="150.4" y="-10.0"/>
    </contour>
  </outline>
</glyph>
<glyph name="Eng" format="2">
  <advance width="915.0"/>
  <unicode hex="014A"/>
  <outline>
    <contour>
      <point x="101.79999999999998" y="0.0" type="line"/>
      <point x="167.49999999999997" y="0.0" type="line"/>
      <point x="167.49999999999997" y="604.4" type="line"/>
      <point x="746.3" y="-0.6000000000000005" type="line"/>
      <point x="746.3" y="-9.9" type="line" smooth="yes"/>
      <point x="743.0999999999999" y="-106.9"/>
      <point x="663.8000000000001" y="-143.1"/>
      <point x="554.5999999999999" y="-143.1" type="curve" smooth="yes"/>
      <point x="506.2" y="-143.1"/>
      <point x="451.69999999999993" y="-135.3"/>
      <point x="407.59999999999997" y="-126.19999999999999" type="curve"/>
      <point x="397.00000000000006" y="-179.0" type="line"/>
      <point x="443.5999999999999" y="-189.3"/>
      <point x="503.69999999999993" y="-198.00000000000003"/>
      <point x="560.8" y="-198.00000000000003" type="curve" smooth="yes"/>
      <point x="710.5" y="-198.00000000000003"/>
      <point x="813.1999999999998" y="-140.89999999999998"/>
      <point x="813.1999999999998" y="-10.4" type="curve" smooth="yes"/>
      <point x="813.1999999999998" y="700.0" type="line"/>
      <point x="747.6999999999999" y="700.0" type="line"/>
      <point x="747.6999999999999" y="91.30000000000001" type="line"/>
      <point x="165.09999999999997" y="705.6" type="line"/>
      <point x="101.79999999999998" y="705.6" type="line"/>
    </contour>
  </outline>
</glyph>
<glyph name="eng" format="2">
  <advance width="712.6199999999999"/>
  <unicode hex="014B"/>
  <outline>
    <contour>
      <point x="624.04" y="15.0" type="curve"/>
      <point x="624.04" y="368.65999999999997" type="line" smooth="yes"/>
      <point x="624.04" y="478.25999999999993"/>
      <point x="558.4399999999999" y="544.0"/>
      <point x="428.82" y="544.0" type="curve" smooth="yes"/>
      <point x="322.96" y="544.0"/>
      <point x="247.52" y="511.52"/>
      <point x="151.9" y="464.88" type="curve"/>
      <point x="151.9" y="534.0" type="line"/>
      <point x="88.7" y="534.0" type="line"/>
      <point x="88.7" y="0.0" type="line"/>
      <point x="157.26" y="0.0" type="line"/>
      <point x="157.26" y="417.78000000000003" type="line"/>
      <point x="245.95999999999998" y="459.78"/>
      <point x="312.28000000000003" y="488.56"/>
      <point x="405.06" y="488.56" type="curve" smooth="yes"/>
      <point x="507.9599999999999" y="488.56"/>
      <point x="555.48" y="436.7"/>
      <point x="555.48" y="349.94" type="curve" smooth="yes"/>
      <point x="555.48" y="12.96" type="line" smooth="yes"/>
      <point x="555.48" y="-67.05999999999999"/>
      <point x="532.26" y="-117.06"/>
      <point x="488.96" y="-142.66" type="curve" smooth="yes"/>
      <point x="480.15999999999997" y="-147.22"/>
      <point x="470.62" y="-150.64"/>
      <point x="460.52" y="-153.26" type="curve"/>
      <point x="465.14" y="-207.84" type="line"/>
      <point x="480.04" y="-205.54"/>
      <point x="494.5400000000001" y="-201.28"/>
      <point x="507.94" y="-196.48" type="curve" smooth="yes"/>
      <point x="581.34" y="-168.0"/>
      <point x="624.04" y="-95.82000000000001"/>
    </contour>
  </outline>
</glyph>
<glyph name="OE" format="2">
  <advance width="1383.44"/>
  <unicode hex="0152"/>
  <outline>
    <contour>
      <point x="1344.3999999999999" y="0.0" type="line"/>
      <point x="1344.3999999999999" y="60.4" type="line"/>
      <point x="798.3199999999999" y="60.4" type="line"/>
      <point x="798.3199999999999" y="342.19999999999993" type="line"/>
      <point x="1293.68" y="342.19999999999993" type="line"/>
      <point x="1293.68" y="401.4" type="line"/>
      <point x="798.3199999999999" y="401.4" type="line"/>
      <point x="798.3199999999999" y="639.8" type="line"/>
      <point x="1321.0199999999998" y="639.8" type="line"/>
      <point x="1321.0199999999998" y="700.0" type="line"/>
      <point x="795.3199999999999" y="700.0" type="line"/>
      <point x="684.3399999999999" y="704.02"/>
      <point x="573.26" y="708.5200000000001"/>
      <point x="481.52" y="708.5200000000001" type="curve" smooth="yes"/>
      <point x="245.67999999999998" y="708.5200000000001"/>
      <point x="63.88" y="623.34"/>
      <point x="63.88" y="354.52" type="curve" smooth="yes"/>
      <point x="63.88" y="51.18"/>
      <point x="272.06000000000006" y="-9.079999999999998"/>
      <point x="501.82" y="-9.079999999999998" type="curve" smooth="yes"/>
      <point x="603.52" y="-9.079999999999998"/>
      <point x="692.18" y="-4.6000000000000005"/>
      <point x="798.3199999999999" y="0.0" type="curve"/>
    </contour>
    <contour>
      <point x="726.72" y="52.080000000000005" type="line"/>
      <point x="678.62" y="50.080000000000005"/>
      <point x="585.7" y="44.94"/>
      <point x="502.8" y="44.94" type="curve" smooth="yes"/>
      <point x="322.65999999999997" y="44.94"/>
      <point x="137.48" y="88.47999999999999"/>
      <point x="137.48" y="353.3" type="curve" smooth="yes"/>
      <point x="137.48" y="603.7"/>
      <point x="324.90000000000003" y="654.88"/>
      <point x="486.0799999999999" y="654.88" type="curve" smooth="yes"/>
      <point x="529.42" y="654.88"/>
      <point x="694.1799999999998" y="648.3"/>
      <point x="726.72" y="647.3399999999999" type="curve"/>
    </contour>
  </outline>
</glyph>
<glyph name="oe" format="2">
  <advance width="1230.82"/>
  <unicode hex="0153"/>
  <outline>
    <contour>
      <point x="53.06" y="268.56" type="curve" smooth="yes"/>
      <point x="53.06" y="77.06"/>
      <point x="145.14000000000001" y="-10.0"/>
      <point x="361.52" y="-10.0" type="curve" smooth="yes"/>
      <point x="516.12" y="-10.0"/>
      <point x="600.36" y="38.44"/>
      <point x="633.9000000000001" y="134.94" type="curve"/>
      <point x="670.4599999999999" y="39.739999999999995"/>
      <point x="763.8999999999999" y="-10.0"/>
      <point x="889.3599999999999" y="-10.0" type="curve" smooth="yes"/>
      <point x="1008.32" y="-10.0"/>
      <point x="1110.12" y="7.1"/>
      <point x="1176.0" y="23.919999999999998" type="curve"/>
      <point x="1167.08" y="74.68" type="line"/>
      <point x="1102.6" y="60.1"/>
      <point x="996.7599999999999" y="41.92"/>
      <point x="893.9799999999999" y="41.92" type="curve" smooth="yes"/>
      <point x="760.1800000000001" y="41.92"/>
      <point x="669.2800000000001" y="101.82000000000001"/>
      <point x="669.2800000000001" y="236.18" type="curve" smooth="yes"/>
      <point x="669.2800000000001" y="246.79999999999998"/>
      <point x="669.6400000000001" y="259.02"/>
      <point x="670.5" y="270.14" type="curve"/>
      <point x="918.6599999999999" y="271.14"/>
      <point x="1119.1200000000001" y="285.98"/>
      <point x="1181.64" y="289.7" type="curve"/>
      <point x="1182.34" y="297.98"/>
      <point x="1182.84" y="307.74"/>
      <point x="1182.84" y="317.98" type="curve" smooth="yes"/>
      <point x="1182.84" y="473.48"/>
      <point x="1094.04" y="544.0"/>
      <point x="919.0799999999999" y="544.0" type="curve" smooth="yes"/>
      <point x="791.3399999999999" y="544.0"/>
      <point x="682.56" y="493.38"/>
      <point x="640.3399999999999" y="387.5" type="curve"/>
      <point x="610.04" y="488.44"/>
      <point x="530.28" y="544.0"/>
      <point x="361.52" y="544.0" type="curve" smooth="yes"/>
      <point x="132.99999999999997" y="544.0"/>
      <point x="53.06" y="450.56"/>
    </contour>
    <contour>
      <point x="122.67999999999999" y="268.42" type="curve" smooth="yes"/>
      <point x="122.67999999999999" y="419.32"/>
      <point x="181.87999999999997" y="494.76"/>
      <point x="361.38" y="494.76" type="curve" smooth="yes"/>
      <point x="540.46" y="494.76"/>
      <point x="599.58" y="419.32"/>
      <point x="599.58" y="268.42" type="curve" smooth="yes"/>
      <point x="599.58" y="110.72"/>
      <point x="530.5" y="39.3"/>
      <point x="361.38" y="39.3" type="curve" smooth="yes"/>
      <point x="192.2" y="39.3"/>
      <point x="122.67999999999999" y="110.72"/>
    </contour>
    <contour>
      <point x="672.58" y="311.47999999999996" type="curve"/>
      <point x="694.42" y="456.03999999999996"/>
      <point x="814.4399999999999" y="495.46000000000004"/>
      <point x="916.3599999999999" y="495.46000000000004" type="curve" smooth="yes"/>
      <point x="1048.1599999999999" y="495.46000000000004"/>
      <point x="1110.8200000000002" y="442.18"/>
      <point x="1112.92" y="326.72" type="curve"/>
      <point x="1071.6799999999998" y="323.16"/>
      <point x="888.8" y="311.62"/>
    </contour>
  </outline>
</glyph>
